<?xml version="1.0" encoding="UTF-8" standalone="no"?>
<svg width="280px" height="240px" viewBox="0 0 280 240" version="1.1" xmlns="http://www.w3.org/2000/svg" xmlns:xlink="http://www.w3.org/1999/xlink" xmlns:sketch="http://www.bohemiancoding.com/sketch/ns">
    <!-- Generator: Sketch 3.4 (15575) - http://www.bohemiancoding.com/sketch -->
    <title>logo-resources-small</title>
    <desc>Created with Sketch.</desc>
    <defs></defs>
    <g id="Page-1" stroke="none" stroke-width="1" fill="none" fill-rule="evenodd" sketch:type="MSPage">
        <g id="Artboard-1-Copy" sketch:type="MSArtboardGroup" transform="translate(-1181.000000, -740.000000)">
            <g id="Group-Copy" sketch:type="MSLayerGroup" transform="translate(281.000000, 440.000000)">
                <g id="logo-resources-small" transform="translate(900.000000, 300.000000)" sketch:type="MSShapeGroup">
                    <rect id="Rectangle-8" fill="#455A64" x="0" y="0" width="280" height="240"></rect>
                    <g id="inner" transform="translate(67.000000, 48.000000)">
                        <g id="Group">
                            <path d="M54.2624758,76.3586368 C59.3711894,79.5922785 66.141859,78.0851052 69.3853744,72.9916226 C72.6285683,67.89814 71.116793,61.1480813 66.0080793,57.9147602 C60.8993656,54.6811185 54.1283744,56.1889329 50.884859,61.282095 C47.6416652,66.3749364 49.1540837,73.1253157 54.2624758,76.3586368" id="Fill-93" fill="#FFFFFF"></path>
                            <path d="M68.5325286,127.319432 C69.3149471,127.319432 70.1054053,127.088595 70.7961718,126.607685 C72.593837,125.360524 73.035696,122.895056 71.7837621,121.10607 L60.7459692,105.306238 L53.3041498,92.8538644 C53.4983877,92.6663093 53.6633612,92.4454112 53.8083965,92.1866814 L63.8068238,107.20872 L73.0340881,119.137543 C73.5026388,118.974033 73.9486784,118.720754 74.3439075,118.374498 C75.987533,116.931767 76.1454317,114.431033 74.6973304,112.793052 L63.7685551,100.430127 L54.7943789,83.057719 C53.7643392,79.1780543 50.5709912,76.0438008 46.3472819,75.287489 C40.2439031,74.1945399 31.3388678,75.0739648 24.6566344,80.8214856 C20.6126916,84.2991092 15.8683348,90.8978414 16.2278678,102.584285 C16.3545727,106.736787 17.3604934,109.873605 22.160163,120.349437 L4.4095859,119.480592 C2.22376652,119.313877 0.317405286,120.939354 0.14760793,123.116275 C-0.0221894273,125.293196 1.61018062,127.194395 3.79407048,127.364317 L29.683022,129.586123 C29.7862511,129.592535 29.888837,129.598948 29.9914229,129.598948 C31.2504317,129.598948 32.2521718,129.069946 33.0024317,128.04721 C33.8134714,126.941116 33.82537,125.620215 33.6655419,124.155042 L32.8805507,112.39069 L41.0456167,108.283715 L42.6345727,126.517915 C42.7136828,128.649951 44.4727577,130.326725 46.5958678,130.326725 C46.6450705,130.326725 46.6945947,130.323519 46.7444405,130.323519 C48.9334758,130.243368 50.6427048,128.409496 50.5619868,126.226163 L49.6326035,101.154058 C49.5859736,99.8982403 48.9431233,98.738605 47.9008634,98.0316667 C46.8589251,97.3234459 45.5410661,97.1525624 44.3524846,97.5699927 L37.6541718,99.9206828 C37.8098194,98.2532061 38.2323833,97.2990798 38.6243965,96.9618013 C39.2807533,96.3978536 43.3491366,95.1660817 46.2212203,94.561417 L46.5579207,94.5851419 C47.7471454,94.1673911 48.9280088,94.9166495 49.9705903,95.6245497 C51.0128502,96.331488 51.9965815,97.4776579 52.0428899,98.7334753 L52.5156211,106.10487 L65.2748634,125.623421 C66.0457048,126.729515 67.2789868,127.319432 68.5325286,127.319432" id="Fill-95" fill="#FFFFFF"></path>
                            <path d="M139.19685,114.232256 L131.26011,126.960352 L111.313101,126.960352 L139.692093,87.1121145 C137.814031,95.0570754 136.108982,102.022582 135.618242,103.579129 C135.124286,104.578781 135.067044,105.743867 135.505044,106.814694 C135.89159,107.759202 136.955396,109.339153 139.736793,109.339153 C139.968013,109.339153 140.236859,109.349092 140.531432,109.334344 L139.19685,114.232256 L139.19685,114.232256 Z M103.986731,105.309765 L104.095106,105.214224 L104.134018,105.235384 L104.119546,105.192744 L133.297035,79.3880519 L133.25137,79.3367548 L140.957211,72.4841018 L141.608101,77.5981033 L109.49389,122.641777 L103.986731,105.309765 L103.986731,105.309765 Z M90.368533,126.960352 L88.4859692,116.918943 L84.210163,94.3514195 L98.9201454,102.4336 L106.703489,126.960352 L90.368533,126.960352 L90.368533,126.960352 Z M80.6537445,126.960352 L83.0038943,122.382085 L86.1695859,126.960352 L80.6537445,126.960352 L80.6537445,126.960352 Z M85.0710485,74.8681351 L88.8387489,76.7520215 L90.2739868,77.4717841 L97.0407974,96.8678634 L83.4718018,89.4416446 L85.0710485,74.8681351 L85.0710485,74.8681351 Z M94.2745154,74.6966104 L100.462793,59.3033089 L121.975925,84.1461796 L102.718396,101.177141 L93.8493789,75.7549339 L94.2745154,74.6966104 L94.2745154,74.6966104 Z M102.432507,46.9621855 L109.933819,49.7969922 L119.287467,75.0261943 L101.698648,54.7154234 C101.669062,54.6811185 101.633687,54.6561111 101.602172,54.624371 L102.432507,46.9621855 L102.432507,46.9621855 Z M113.666467,45.842626 L114.964709,30.1915565 L121.664308,30.1072369 L122.405885,72.0987323 L113.484771,48.03686 L113.666467,45.842626 L113.666467,45.842626 Z M125.642969,27.9469873 L130.978401,17.4490333 L138.071943,47.1801982 L128.700608,78.1986001 L126.491313,80.1526995 L125.57222,28.0861307 L125.642969,27.9469873 L125.642969,27.9469873 Z M139.736793,105.425184 C139.308119,105.425184 139.077542,105.375489 139.17659,105.278666 C139.654789,104.811862 145.714432,78.6413583 145.714432,78.6413583 L143.925771,64.5795374 L134.365344,73.0801101 L142.153189,47.3007465 L132.324238,6.10371512 L122.355075,25.718769 C122.193639,25.847653 122.052141,25.9999413 121.938621,26.1724278 L111.330467,26.3058003 L109.737009,45.5184924 L99.0606784,41.4833333 L97.4668987,56.1879711 L90.6145463,73.2314366 L81.7702907,68.7830152 L79.4194978,90.1832085 L83.4042687,111.161163 L76.7024185,106.080184 L79.5053612,120.307758 L75.9380088,127.345081 L60.6440264,130.807636 L133.439498,130.807636 L142.841705,115.793612 L145.869115,104.88977 C145.869115,104.88977 141.370449,105.425184 139.736793,105.425184 L139.736793,105.425184 Z" id="Fill-96" fill="#FFFFFF"></path>
                            <path d="M50.5494449,20.8301542 L61.6515551,19.1678071 L68.1131806,22.917626 L68.1131806,25.2458737 L62.4449075,28.7084288 L50.6610352,27.5484728 L50.3172599,30.8286025 L57.7642247,31.5647161 L52.1358282,35.0449046 L53.8772159,37.8457269 L59.0898018,34.6201003 L56.7718106,41.2941752 L59.8960176,42.3723764 L63.5450529,31.8628806 L69.8069736,28.0046965 L71.3290396,28.895022 L71.3290396,35.7383774 L64.2470749,44.9195986 L66.881185,46.9253157 L71.3290396,41.1553524 L71.3290396,47.7694738 L74.8664846,47.7694738 L74.8664846,41.329442 L79.3181982,46.9615443 L81.9532731,44.88337 L74.8664846,36.1006632 L74.8664846,28.895022 L76.4969251,27.8392633 L82.3144141,31.2954063 L86.6329912,42.0200294 L89.679696,40.7834484 L86.9346388,34.0439697 L92.3790881,37.242024 L94.0542291,34.4011258 L88.754815,31.291559 L95.9493348,30.2069457 L95.4553789,26.9476554 L84.3310793,28.6388571 L78.0823436,24.9143661 L78.0823436,22.9881596 L84.0159251,19.2566153 L95.515837,20.396373 L95.817163,17.1165639 L88.5477137,16.4000073 L93.9140176,13.0759545 L92.1674846,10.2751322 L86.9417137,13.5074914 L89.3214493,6.6513118 L86.1965991,5.57311062 L82.484533,16.2647112 L76.4567269,20.0821782 L74.8664846,19.0501444 L74.8664846,12.5033505 L81.9137181,3.16342878 L79.3580749,1.1577117 L74.8664846,7.08573421 L74.8664846,0.31964513 L71.3290396,0.31964513 L71.3290396,6.60386197 L66.8422731,1.12148311 L64.2859868,3.19965737 L71.3290396,11.8326407 L71.3290396,19.0501444 L69.6249559,20.048835 L63.8499163,16.6673935 L59.4139604,5.75778023 L56.3463524,6.99436123 L59.1557269,13.9188302 L53.4501498,10.5710524 L51.771793,13.41163 L57.0599515,16.5154258 L50.0548458,17.5708639 L50.5494449,20.8301542" id="Fill-97" fill="#00B0FF"></path>
                        </g>
                    </g>
                </g>
            </g>
        </g>
    </g>
</svg>