<?xml version="1.0" encoding="UTF-8" standalone="no"?>
<svg width="280px" height="280px" viewBox="0 0 280 280" version="1.1" xmlns="http://www.w3.org/2000/svg" xmlns:xlink="http://www.w3.org/1999/xlink" xmlns:sketch="http://www.bohemiancoding.com/sketch/ns">
    <!-- Generator: Sketch 3.4 (15575) - http://www.bohemiancoding.com/sketch -->
    <title>logo-organize</title>
    <desc>Created with Sketch.</desc>
    <defs>
        <linearGradient x1="0%" y1="0%" x2="100%" y2="100%" id="linearGradient-1">
            <stop stop-color="#455A64" offset="0%"></stop>
            <stop stop-color="#3B4C55" offset="100%"></stop>
        </linearGradient>
    </defs>
    <g id="Page-1" stroke="none" stroke-width="1" fill="none" fill-rule="evenodd" sketch:type="MSPage">
        <g id="Artboard-1-Copy" sketch:type="MSArtboardGroup" transform="translate(-1181.000000, -1906.000000)">
            <g id="Group" sketch:type="MSLayerGroup" transform="translate(281.000000, 1906.000000)">
                <g id="logo-organize" transform="translate(900.000000, 0.000000)" sketch:type="MSShapeGroup">
                    <rect id="Rectangle-8" fill="url(#linearGradient-1)" x="0" y="0" width="280" height="280"></rect>
                    <g id="inner" transform="translate(72.000000, 64.000000)">
                        <path d="M20.53,154.8 C20.53,155.866672 20.3566684,156.849996 20.01,157.75 C19.6633316,158.650005 19.1750032,159.424997 18.545,160.075 C17.9149969,160.725003 17.1583378,161.233332 16.275,161.6 C15.3916623,161.966669 14.4100054,162.15 13.33,162.15 C12.2566613,162.15 11.2783378,161.966669 10.395,161.6 C9.51166225,161.233332 8.7533365,160.725003 8.12,160.075 C7.4866635,159.424997 6.9966684,158.650005 6.65,157.75 C6.3033316,156.849996 6.13,155.866672 6.13,154.8 C6.13,153.733328 6.3033316,152.750005 6.65,151.85 C6.9966684,150.949996 7.4866635,150.173337 8.12,149.52 C8.7533365,148.866663 9.51166225,148.356669 10.395,147.99 C11.2783378,147.623332 12.2566613,147.44 13.33,147.44 C14.4100054,147.44 15.3916623,147.623332 16.275,147.99 C17.1583378,148.356669 17.9149969,148.866663 18.545,149.52 C19.1750032,150.173337 19.6633316,150.949996 20.01,151.85 C20.3566684,152.750005 20.53,153.733328 20.53,154.8 L20.53,154.8 Z M18.14,154.8 C18.14,153.973329 18.0283345,153.230003 17.805,152.57 C17.5816656,151.909997 17.2616688,151.350002 16.845,150.89 C16.4283313,150.429998 15.9233363,150.076668 15.33,149.83 C14.7366637,149.583332 14.0700037,149.46 13.33,149.46 C12.596663,149.46 11.9333363,149.583332 11.34,149.83 C10.7466637,150.076668 10.2400021,150.429998 9.82,150.89 C9.3999979,151.350002 9.0766678,151.909997 8.85,152.57 C8.6233322,153.230003 8.51,153.973329 8.51,154.8 C8.51,155.633338 8.6233322,156.379997 8.85,157.04 C9.0766678,157.700003 9.3999979,158.258331 9.82,158.715 C10.2400021,159.171669 10.7466637,159.521665 11.34,159.765 C11.9333363,160.008335 12.596663,160.13 13.33,160.13 C14.0700037,160.13 14.7366637,160.008335 15.33,159.765 C15.9233363,159.521665 16.4283313,159.171669 16.845,158.715 C17.2616688,158.258331 17.5816656,157.700003 17.805,157.04 C18.0283345,156.379997 18.14,155.633338 18.14,154.8 L18.14,154.8 Z M28.43,156.2 L28.43,162 L26.09,162 L26.09,147.6 L30.33,147.6 C31.2766714,147.6 32.0916633,147.696666 32.775,147.89 C33.4583368,148.083334 34.0199978,148.358332 34.46,148.715 C34.9000022,149.071668 35.224999,149.499998 35.435,150 C35.6450011,150.500003 35.75,151.056664 35.75,151.67 C35.75,152.170003 35.6750008,152.636665 35.525,153.07 C35.3749993,153.503336 35.1583348,153.896665 34.875,154.25 C34.5916653,154.603335 34.2416688,154.909999 33.825,155.17 C33.4083313,155.430001 32.9366693,155.633333 32.41,155.78 C32.7033348,155.953334 32.9533323,156.196665 33.16,156.51 L37.05,162 L34.96,162 C34.5466646,162 34.2466676,161.840002 34.06,161.52 L30.7,156.67 C30.5866661,156.503333 30.463334,156.383334 30.33,156.31 C30.196666,156.236666 29.996668,156.2 29.73,156.2 L28.43,156.2 Z M28.43,154.5 L30.27,154.5 C30.803336,154.5 31.269998,154.435001 31.67,154.305 C32.070002,154.174999 32.403332,153.993335 32.67,153.76 C32.936668,153.526666 33.136666,153.248335 33.27,152.925 C33.403334,152.601665 33.47,152.243335 33.47,151.85 C33.47,151.063329 33.2100026,150.463335 32.69,150.05 C32.1699974,149.636665 31.3833386,149.43 30.33,149.43 L28.43,149.43 L28.43,154.5 Z M53.38,160.61 C51.9466595,161.643339 50.2800095,162.16 48.38,162.16 C47.2133275,162.16 46.1583381,161.978335 45.215,161.615 C44.271662,161.251665 43.46667,160.745003 42.8,160.095 C42.13333,159.444997 41.6200018,158.670005 41.26,157.77 C40.8999982,156.869996 40.72,155.880005 40.72,154.8 C40.72,153.713328 40.8933316,152.718338 41.24,151.815 C41.5866684,150.911662 42.0833301,150.135003 42.73,149.485 C43.3766699,148.834997 44.1566621,148.331668 45.07,147.975 C45.9833379,147.618332 47.0099943,147.44 48.15,147.44 C48.7300029,147.44 49.2683309,147.485 49.765,147.575 C50.2616692,147.665 50.7233312,147.789999 51.15,147.95 C51.5766688,148.110001 51.9699982,148.303332 52.33,148.53 C52.6900018,148.756668 53.0199985,149.009999 53.32,149.29 L52.65,150.36 C52.5433328,150.526668 52.4066675,150.63 52.24,150.67 C52.0733325,150.71 51.8933343,150.670001 51.7,150.55 C51.5066657,150.436666 51.3016678,150.316667 51.085,150.19 C50.8683323,150.063333 50.6200014,149.945001 50.34,149.835 C50.0599986,149.724999 49.7366685,149.635 49.37,149.565 C49.0033315,149.495 48.5700025,149.46 48.07,149.46 C47.3099962,149.46 46.6250031,149.584999 46.015,149.835 C45.404997,150.085001 44.8833355,150.441664 44.45,150.905 C44.0166645,151.368336 43.6833345,151.929997 43.45,152.59 C43.2166655,153.250003 43.1,153.986663 43.1,154.8 C43.1,155.660004 43.2233321,156.42833 43.47,157.105 C43.7166679,157.78167 44.0666644,158.354998 44.52,158.825 C44.9733356,159.295002 45.5216635,159.653332 46.165,159.9 C46.8083366,160.146668 47.5266627,160.27 48.32,160.27 C48.9133363,160.27 49.4416644,160.206667 49.905,160.08 C50.3683357,159.953333 50.8233311,159.776668 51.27,159.55 L51.27,156.69 L49.26,156.69 C49.1066659,156.69 48.9866671,156.648334 48.9,156.565 C48.8133329,156.481666 48.77,156.373334 48.77,156.24 L48.77,154.91 L53.38,154.91 L53.38,160.61 Z M71.02,162 L69.21,162 C69.0033323,162 68.8366673,161.948334 68.71,161.845 C68.5833327,161.741666 68.486667,161.613334 68.42,161.46 L67.22,158.28 L61.02,158.28 L59.82,161.46 C59.7666664,161.593334 59.673334,161.716666 59.54,161.83 C59.406666,161.943334 59.240001,162 59.04,162 L57.23,162 L62.94,147.6 L65.31,147.6 L71.02,162 Z M61.65,156.6 L66.59,156.6 L64.61,151.34 C64.5299996,151.146666 64.4483338,150.916668 64.365,150.65 C64.2816663,150.383332 64.2000004,150.096668 64.12,149.79 C64.0399996,150.103335 63.9583338,150.391665 63.875,150.655 C63.7916663,150.918335 63.7133337,151.149999 63.64,151.35 L61.65,156.6 Z M76.92,147.6 C77.0200005,147.6 77.1049997,147.605 77.175,147.615 C77.2450004,147.625 77.3099997,147.643333 77.37,147.67 C77.4300003,147.696667 77.4866664,147.736666 77.54,147.79 C77.5933336,147.843334 77.6499997,147.91 77.71,147.99 L85.63,158.16 C85.6099999,157.953332 85.5950001,157.750001 85.585,157.55 C85.575,157.349999 85.57,157.163334 85.57,156.99 L85.57,147.6 L87.62,147.6 L87.62,162 L86.43,162 C86.2499991,162 86.0966673,161.968334 85.97,161.905 C85.8433327,161.841666 85.7233339,161.736667 85.61,161.59 L77.7,151.43 C77.7200001,151.623334 77.735,151.814999 77.745,152.005 C77.7550001,152.195001 77.76,152.369999 77.76,152.53 L77.76,162 L75.7,162 L75.7,147.6 L76.92,147.6 Z M96.4,162 L94.05,162 L94.05,147.6 L96.4,147.6 L96.4,162 Z M112.6,147.6 L112.6,148.47 C112.6,148.603334 112.578334,148.733333 112.535,148.86 C112.491666,148.986667 112.433334,149.106666 112.36,149.22 L104.63,160.11 L112.45,160.11 L112.45,162 L101.57,162 L101.57,161.08 C101.57,160.953333 101.59,160.835001 101.63,160.725 C101.67,160.614999 101.723333,160.510001 101.79,160.41 L109.54,149.49 L102,149.49 L102,147.6 L112.6,147.6 Z M126.88,147.6 L126.88,149.49 L120.25,149.49 L120.25,153.83 L125.55,153.83 L125.55,155.66 L120.25,155.66 L120.25,160.11 L126.89,160.11 L126.88,162 L117.9,162 L117.9,147.6 L126.88,147.6 Z" id="ORGANIZE" fill="#FFFFFF"></path>
                        <g id="Group">
                            <path d="M105.910899,23.6396407 C112.430265,23.6396407 117.719153,18.3607186 117.719153,11.8491018 C117.719153,5.33712575 112.430265,0.0582035928 105.910899,0.0582035928 C99.3879365,0.0582035928 94.1026455,5.33712575 94.1026455,11.8491018 C94.1026455,18.3607186 99.3879365,23.6396407 105.910899,23.6396407" id="Fill-45" fill="#FFFFFF"></path>
                            <path d="M135.928042,58.3131737 C134.902646,43.0196407 128.034286,35.0734132 122.453968,31.100479 C118.100529,27.9998802 113.898201,26.797006 111.645926,26.3439521 C109.850582,25.8179641 102.658413,25.9609581 99.7908995,26.8950898 C97.4126984,27.645988 89.8175661,29.9586826 82.5174603,31.2438323 C79.1354497,31.839521 74.4078307,31.1946108 70.471746,30.6194012 C69.6154497,30.3650299 68.8059259,30.1785629 68.2554497,30.1785629 L57.1056085,30.1785629 C57.1056085,30.1785629 56.3680423,30.3269461 56.3968254,31.0620359 C56.4220106,31.797485 57.213545,31.888024 57.213545,31.888024 L63.6501587,32.6504192 C63.4630688,33.0377246 63.3299471,33.4602395 63.2687831,33.9093413 C62.9377778,36.2435928 64.567619,38.402515 66.9026455,38.7312575 C67.4675132,38.8102994 68.0467725,38.8954491 68.6440212,38.9827545 C71.8893122,39.4591617 75.6922751,40.0164072 79.3621164,40.0164072 C80.952381,40.0164072 82.5174603,39.911497 84.0033862,39.6499401 C87.1083598,39.1034731 90.6594709,38.8329341 94.0270899,38.7 L94.365291,115.416287 C94.3365079,117.773533 95.5921693,119.998922 98.5856085,119.998922 C101.579048,119.998922 102.881481,117.746946 102.913862,115.408383 L105.320847,75.448024 L107.382434,75.448024 L109.602328,115.408383 C109.61672,117.759162 111.591958,119.99497 113.876614,119.99497 C116.16127,119.99497 118.161693,117.771377 118.150899,115.414491 L117.679577,40.694012 C117.679577,40.4946108 117.679577,40.3027545 117.675979,40.1159281 C122.058201,42.3977246 126.634709,47.5013174 127.401058,58.8851497 C127.552169,61.1396407 129.430265,62.8670659 131.660952,62.8670659 C131.758095,62.8670659 131.855238,62.8641916 131.952381,62.8577246 C134.305397,62.6996407 136.086349,60.6653892 135.928042,58.3131737" id="Fill-46" fill="#FFFFFF"></path>
                            <path d="M34.0179894,17.6263473 L20.184127,11.305509 L18.392381,12.5047904 L17.2734392,13.2553293 L12.0169312,16.7752096 L20.9108995,26.4061078 L34.0179894,17.6263473" id="Fill-47" fill="#FF5722"></path>
                            <path d="M8.61333333,19.0552096 L0.280634921,24.6362874 L0.939047619,39.782515 L13.9561905,31.0641916 L8.61333333,19.0552096" id="Fill-48" fill="#FF5722"></path>
                            <path d="M35.298836,19.6322156 L22.3068783,28.3343713 L26.2069841,34.1446707 L19.1551323,38.8688623 L15.2514286,33.0585629 L2.2594709,41.7607186 L13.3769312,58.3131737 C13.9633862,59.1876647 15.0967196,59.3220359 15.9746032,58.7356886 L45.9485714,38.660479 C46.8228571,38.074491 47.0027513,37.059521 46.4162963,36.1846707 L35.298836,19.6322156" id="Fill-49" fill="#FF5722"></path>
                            <path d="M22.2924868,112.823353 C11.621164,112.823353 2.96825397,114.097006 2.96825397,115.668503 C2.96825397,117.24 11.621164,118.514012 22.2924868,118.514012 C32.9674074,118.514012 41.6203175,117.24 41.6203175,115.668503 C41.6203175,114.097006 32.9674074,112.823353 22.2924868,112.823353" id="Fill-50" fill="#FFFFFF"></path>
                            <path d="M36.626455,73.2366467 L36.626455,55.4223952 C36.626455,53.8853892 35.4679365,52.6390419 33.9280423,52.6390419 C32.3881481,52.6390419 31.2296296,53.8853892 31.2296296,55.4223952 L31.2296296,73.2366467 C31.2296296,74.774012 32.3881481,76.02 33.9280423,76.02 C35.4679365,76.02 36.626455,74.774012 36.626455,73.2366467" id="Fill-51" fill="#FFFFFF"></path>
                            <path d="M25.8328042,98.4732934 L25.8328042,62.8451497 C25.8328042,61.3077844 24.6742857,60.0617964 23.1343915,60.0617964 C21.5944974,60.0617964 20.4359788,61.3077844 20.4359788,62.8451497 L20.4359788,98.4732934 C20.4359788,100.010659 21.5944974,101.257006 23.1343915,101.257006 C24.6742857,101.257006 25.8328042,100.010659 25.8328042,98.4732934" id="Fill-52" fill="#FFFFFF"></path>
                        </g>
                    </g>
                </g>
            </g>
        </g>
    </g>
</svg>