<?xml version="1.0" encoding="UTF-8" standalone="no"?>
<svg width="280px" height="280px" viewBox="0 0 280 280" version="1.1" xmlns="http://www.w3.org/2000/svg" xmlns:xlink="http://www.w3.org/1999/xlink" xmlns:sketch="http://www.bohemiancoding.com/sketch/ns">
    <!-- Generator: Sketch 3.4 (15575) - http://www.bohemiancoding.com/sketch -->
    <title>logo-internals</title>
    <desc>Created with Sketch.</desc>
    <defs>
        <linearGradient x1="0%" y1="0%" x2="100%" y2="100%" id="linearGradient-1">
            <stop stop-color="#455A64" offset="0%"></stop>
            <stop stop-color="#3B4C55" offset="100%"></stop>
        </linearGradient>
    </defs>
    <g id="Page-1" stroke="none" stroke-width="1" fill="none" fill-rule="evenodd" sketch:type="MSPage">
        <g id="Artboard-1-Copy" sketch:type="MSArtboardGroup" transform="translate(-1481.000000, -1327.000000)">
            <g id="logo-internals" sketch:type="MSLayerGroup" transform="translate(1481.000000, 1327.000000)">
                <rect id="Rectangle-8" fill="url(#linearGradient-1)" sketch:type="MSShapeGroup" x="0" y="0" width="280" height="280"></rect>
                <g id="inner" transform="translate(71.000000, 56.000000)" sketch:type="MSShapeGroup">
                    <g id="Group">
                        <path d="M113.47459,35.0102399 C114.721853,35.4946649 115.923043,35.4890703 116.153408,34.9980634 C116.383773,34.5073856 115.55775,33.7172331 114.310487,33.2328081 C113.059933,32.748383 111.858743,32.7543067 111.628378,33.2453136 C111.398013,33.7356623 112.224036,34.5258148 113.47459,35.0102399" id="Fill-109" fill="#FF5722"></path>
                        <path d="M77.9884817,18.5420923 C77.8502626,19.1772419 78.8079235,19.9200051 80.1275869,20.2017088 C81.4439592,20.4834124 82.6221125,20.1971014 82.7603316,19.5619518 C82.8952598,18.9271312 81.9375989,18.184039 80.6179356,17.9023353 C79.3015632,17.6206316 78.1234099,17.9069426 77.9884817,18.5420923" id="Fill-110" fill="#FF5722"></path>
                        <path d="M89.5725587,18.0556927 C89.4475033,18.632922 90.3196,19.3085501 91.5174989,19.5645845 C92.7153978,19.820948 93.7882413,19.5603063 93.9100057,18.983077 C94.0350611,18.4058477 93.1629644,17.7302196 91.9650655,17.4741852 C90.7671666,17.2181507 89.6943231,17.4784634 89.5725587,18.0556927" id="Fill-111" fill="#FF5722"></path>
                        <path d="M116.637175,39.6086577 C116.446301,40.0206822 117.229542,40.659781 118.384659,41.0359344 C119.536485,41.4124169 120.625783,41.3831277 120.816657,40.970774 C121.00424,40.5584204 120.22429,39.9193216 119.069173,39.5434972 C117.914056,39.1670147 116.828049,39.196304 116.637175,39.6086577" id="Fill-112" fill="#FF5722"></path>
                        <path d="M116.278463,24.0172141 C116.413392,23.3817353 113.793811,22.2838808 110.427188,21.5638251 C107.060566,20.8440985 104.220492,20.7756471 104.085564,21.4107968 C103.947345,22.0456174 106.566926,23.1434719 109.936839,23.8635276 C113.303462,24.5832542 116.143535,24.6520347 116.278463,24.0172141" id="Fill-113" fill="#FF5722"></path>
                        <path d="M126.240111,19.7469021 C126.325676,19.103196 123.636985,18.2153028 120.230871,17.7637871 C116.828049,17.3126005 114.001139,17.4685906 113.915575,18.1126258 C113.830011,18.7560028 116.518701,19.643896 119.921524,20.0950826 C123.327637,20.5465983 126.154547,20.3906082 126.240111,19.7469021" id="Fill-114" fill="#FF5722"></path>
                        <path d="M77.7712803,61.1691918 L61.7181191,52.752965 L54.7117271,37.1871907 C54.3102335,33.9814948 52.8819695,31.0324916 49.7720397,28.7400291 C40.8371622,22.1552054 31.1947345,25.9183849 31.1947345,25.9183849 C30.2140371,26.4867287 29.3254857,27.1373457 28.5126258,27.8518068 C28.170369,28.0110879 27.8412759,28.2088729 27.5319284,28.4560218 L8.18783621,43.7496361 C7.51977723,44.2893488 7.00968293,44.9988735 6.71020821,45.8048225 L0.48376685,64.9057148 C-0.279729131,66.9641921 0.770077843,69.2504019 2.83020062,70.0132397 C3.28434909,70.1817353 3.75166129,70.2613759 4.20910069,70.2613759 C5.82494779,70.2613759 7.34206696,69.2698184 7.93772546,67.6664768 L15.1876464,50.3443326 L24.9123473,43.137852 C24.2278337,53.3798873 23.0727169,67.1182077 24.6984368,73.054389 L30.6254035,98.8510094 L19.1795456,122.386431 C17.9125372,124.581482 18.6628694,127.388646 20.8579204,128.658946 C21.5819252,129.076894 22.3717486,129.27435 23.1516993,129.27435 C24.737928,129.27435 26.2813746,128.451617 27.1337257,126.97728 L43.2395418,103.164762 C44.0688564,101.732878 44.3222581,100.041339 43.9503829,98.4291121 L40.2777039,79.0504652 C42.0021518,78.6940573 39.9782292,78.7167648 41.5545852,78.1220935 L58.7990634,94.4194418 L65.9239289,123.011708 C66.3978229,125.196886 68.3295994,126.687678 70.4752864,126.687678 C70.8043795,126.687678 71.1367635,126.651478 71.4691475,126.579077 C73.9867097,126.036074 75.5828112,123.551421 75.0365167,121.03715 L70.4785773,91.5316499 C70.2482121,90.4670337 69.7545725,89.4771217 69.0437314,88.6520853 L50.3413708,66.9121954 C49.4594013,63.0022404 49.0973989,58.6651225 50.476299,55.3142966 C50.7297007,54.7051452 50.9896842,54.0699956 51.2529587,53.4183912 L53.4381368,58.2764635 C53.8758306,59.24663 54.6162901,60.049288 55.5476236,60.5623442 L73.9439276,68.1239162 C74.5527498,68.4576166 75.2076451,68.6159104 75.8526676,68.6159104 C77.2546041,68.6159104 78.6137586,67.8731473 79.3344725,66.5587494 C80.3908613,64.6384912 79.693184,62.2245934 77.7712803,61.1691918" id="Fill-115" fill="#FFFFFF"></path>
                        <path d="M60.7571673,15.9363331 L50.617809,13.6590089 C49.6733118,13.4464148 49.1270173,12.2995253 49.4396557,10.9051579 C49.7522942,9.51079046 50.7362825,8.7078033 51.6807797,8.92006835 L61.2113157,11.0608189 L130.952725,13.3151066 L150.569964,6.61312575 L61.010569,9.77965952 C60.7571673,8.10391747 60.2865641,7.22754256 59.2992849,5.7147016 C55.6167331,0.0773368774 48.0607556,-1.51284096 42.4102272,2.17398899 C36.7695715,5.85686982 35.1833428,13.4161382 38.8658946,19.0558066 C42.5484463,24.6994241 50.1077147,26.2915765 55.7516613,22.6067211 C58.0256946,21.1234985 59.3486488,19.7357129 60.2273274,17.3757863 L140.476679,66.6614265 L130.952725,53.1778242 L60.7571673,15.9363331" id="Fill-116" fill="#FF5722"></path>
                    </g>
                    <path d="M8.275,170 L5.925,170 L5.925,155.6 L8.275,155.6 L8.275,170 Z M15.915,155.6 C16.0150005,155.6 16.0999997,155.605 16.17,155.615 C16.2400004,155.625 16.3049997,155.643333 16.365,155.67 C16.4250003,155.696667 16.4816664,155.736666 16.535,155.79 C16.5883336,155.843334 16.6449997,155.91 16.705,155.99 L24.625,166.16 C24.6049999,165.953332 24.5900001,165.750001 24.58,165.55 C24.57,165.349999 24.565,165.163334 24.565,164.99 L24.565,155.6 L26.615,155.6 L26.615,170 L25.425,170 C25.2449991,170 25.0916673,169.968334 24.965,169.905 C24.8383327,169.841666 24.7183339,169.736667 24.605,169.59 L16.695,159.43 C16.7150001,159.623334 16.73,159.814999 16.74,160.005 C16.7500001,160.195001 16.755,160.369999 16.755,160.53 L16.755,170 L14.695,170 L14.695,155.6 L15.915,155.6 Z M42.955,155.6 L42.955,157.55 L38.465,157.55 L38.465,170 L36.135,170 L36.135,157.55 L31.635,157.55 L31.635,155.6 L42.955,155.6 Z M56.935,155.6 L56.935,157.49 L50.305,157.49 L50.305,161.83 L55.605,161.83 L55.605,163.66 L50.305,163.66 L50.305,168.11 L56.945,168.11 L56.935,170 L47.955,170 L47.955,155.6 L56.935,155.6 Z M64.815,164.2 L64.815,170 L62.475,170 L62.475,155.6 L66.715,155.6 C67.6616714,155.6 68.4766633,155.696666 69.16,155.89 C69.8433368,156.083334 70.4049978,156.358332 70.845,156.715 C71.2850022,157.071668 71.609999,157.499998 71.82,158 C72.0300011,158.500003 72.135,159.056664 72.135,159.67 C72.135,160.170003 72.0600008,160.636665 71.91,161.07 C71.7599993,161.503336 71.5433348,161.896665 71.26,162.25 C70.9766653,162.603335 70.6266688,162.909999 70.21,163.17 C69.7933313,163.430001 69.3216693,163.633333 68.795,163.78 C69.0883348,163.953334 69.3383323,164.196665 69.545,164.51 L73.435,170 L71.345,170 C70.9316646,170 70.6316676,169.840002 70.445,169.52 L67.085,164.67 C66.9716661,164.503333 66.848334,164.383334 66.715,164.31 C66.581666,164.236666 66.381668,164.2 66.115,164.2 L64.815,164.2 Z M64.815,162.5 L66.655,162.5 C67.188336,162.5 67.654998,162.435001 68.055,162.305 C68.455002,162.174999 68.788332,161.993335 69.055,161.76 C69.321668,161.526666 69.521666,161.248335 69.655,160.925 C69.788334,160.601665 69.855,160.243335 69.855,159.85 C69.855,159.063329 69.5950026,158.463335 69.075,158.05 C68.5549974,157.636665 67.7683386,157.43 66.715,157.43 L64.815,157.43 L64.815,162.5 Z M79.395,155.6 C79.4950005,155.6 79.5799997,155.605 79.65,155.615 C79.7200004,155.625 79.7849997,155.643333 79.845,155.67 C79.9050003,155.696667 79.9616664,155.736666 80.015,155.79 C80.0683336,155.843334 80.1249997,155.91 80.185,155.99 L88.105,166.16 C88.0849999,165.953332 88.0700001,165.750001 88.06,165.55 C88.05,165.349999 88.045,165.163334 88.045,164.99 L88.045,155.6 L90.095,155.6 L90.095,170 L88.905,170 C88.7249991,170 88.5716673,169.968334 88.445,169.905 C88.3183327,169.841666 88.1983339,169.736667 88.085,169.59 L80.175,159.43 C80.1950001,159.623334 80.21,159.814999 80.22,160.005 C80.2300001,160.195001 80.235,160.369999 80.235,160.53 L80.235,170 L78.175,170 L78.175,155.6 L79.395,155.6 Z M108.575,170 L106.765,170 C106.558332,170 106.391667,169.948334 106.265,169.845 C106.138333,169.741666 106.041667,169.613334 105.975,169.46 L104.775,166.28 L98.575,166.28 L97.375,169.46 C97.3216664,169.593334 97.228334,169.716666 97.095,169.83 C96.961666,169.943334 96.795001,170 96.595,170 L94.785,170 L100.495,155.6 L102.865,155.6 L108.575,170 Z M99.205,164.6 L104.145,164.6 L102.165,159.34 C102.085,159.146666 102.003334,158.916668 101.92,158.65 C101.836666,158.383332 101.755,158.096668 101.675,157.79 C101.595,158.103335 101.513334,158.391665 101.43,158.655 C101.346666,158.918335 101.268334,159.149999 101.195,159.35 L99.205,164.6 Z M115.595,168.04 L121.575,168.04 L121.575,170 L113.255,170 L113.255,155.6 L115.595,155.6 L115.595,168.04 Z M134.115,158.06 C134.041666,158.180001 133.965,158.268333 133.885,158.325 C133.805,158.381667 133.705001,158.41 133.585,158.41 C133.458333,158.41 133.316667,158.356667 133.16,158.25 C133.003333,158.143333 132.810001,158.025001 132.58,157.895 C132.349999,157.764999 132.078335,157.645001 131.765,157.535 C131.451665,157.424999 131.078336,157.37 130.645,157.37 C130.244998,157.37 129.893335,157.42 129.59,157.52 C129.286665,157.620001 129.031668,157.759999 128.825,157.94 C128.618332,158.120001 128.463334,158.331665 128.36,158.575 C128.256666,158.818335 128.205,159.083332 128.205,159.37 C128.205,159.736669 128.301666,160.041665 128.495,160.285 C128.688334,160.528335 128.943332,160.736666 129.26,160.91 C129.576668,161.083334 129.938331,161.234999 130.345,161.365 C130.751669,161.495001 131.166665,161.633333 131.59,161.78 C132.013335,161.926667 132.428331,162.093332 132.835,162.28 C133.241669,162.466668 133.603332,162.703332 133.92,162.99 C134.236668,163.276668 134.491666,163.626665 134.685,164.04 C134.878334,164.453335 134.975,164.956664 134.975,165.55 C134.975,166.190003 134.865001,166.789997 134.645,167.35 C134.424999,167.910003 134.106669,168.398331 133.69,168.815 C133.273331,169.231669 132.760003,169.559999 132.15,169.8 C131.539997,170.040001 130.845004,170.16 130.065,170.16 C129.604998,170.16 129.156669,170.115 128.72,170.025 C128.283331,169.935 127.866669,169.808334 127.47,169.645 C127.073331,169.481666 126.701668,169.283335 126.355,169.05 C126.008332,168.816666 125.698335,168.556668 125.425,168.27 L126.105,167.15 C126.165,167.056666 126.241666,166.983334 126.335,166.93 C126.428334,166.876666 126.531666,166.85 126.645,166.85 C126.798334,166.85 126.968332,166.921666 127.155,167.065 C127.341668,167.208334 127.566665,167.364999 127.83,167.535 C128.093335,167.705001 128.411665,167.861666 128.785,168.005 C129.158335,168.148334 129.604997,168.22 130.125,168.22 C130.971671,168.22 131.626664,168.013335 132.09,167.6 C132.553336,167.186665 132.785,166.61667 132.785,165.89 C132.785,165.483331 132.688334,165.151668 132.495,164.895 C132.301666,164.638332 132.046668,164.423334 131.73,164.25 C131.413332,164.076666 131.051669,163.930001 130.645,163.81 C130.238331,163.689999 129.825002,163.561667 129.405,163.425 C128.984998,163.288333 128.571669,163.128334 128.165,162.945 C127.758331,162.761666 127.396668,162.521668 127.08,162.225 C126.763332,161.928332 126.508334,161.561669 126.315,161.125 C126.121666,160.688331 126.025,160.143337 126.025,159.49 C126.025,158.969997 126.126666,158.466669 126.33,157.98 C126.533334,157.493331 126.829998,157.061669 127.22,156.685 C127.610002,156.308331 128.091664,156.006668 128.665,155.78 C129.238336,155.553332 129.891663,155.44 130.625,155.44 C131.451671,155.44 132.209997,155.569999 132.9,155.83 C133.590003,156.090001 134.184998,156.459998 134.685,156.94 L134.115,158.06 Z" id="INTERNALS" fill="#FFFFFF"></path>
                </g>
            </g>
        </g>
    </g>
</svg>