<?xml version="1.0" encoding="UTF-8" standalone="no"?>
<svg width="280px" height="280px" viewBox="0 0 280 280" version="1.1" xmlns="http://www.w3.org/2000/svg" xmlns:xlink="http://www.w3.org/1999/xlink" xmlns:sketch="http://www.bohemiancoding.com/sketch/ns">
    <!-- Generator: Sketch 3.4 (15575) - http://www.bohemiancoding.com/sketch -->
    <title>logo-tools-small</title>
    <desc>Created with Sketch.</desc>
    <defs></defs>
    <g id="Page-1" stroke="none" stroke-width="1" fill="none" fill-rule="evenodd" sketch:type="MSPage">
        <g id="Artboard-1-Copy" sketch:type="MSArtboardGroup" transform="translate(-281.000000, -740.000000)">
            <g id="Group-Copy" sketch:type="MSLayerGroup" transform="translate(281.000000, 440.000000)">
                <g id="logo-tools-small" transform="translate(0.000000, 300.000000)" sketch:type="MSShapeGroup">
                    <rect id="Rectangle-8" fill="#455A64" x="0" y="0" width="280" height="280"></rect>
                    <g id="inner" transform="translate(79.000000, 50.000000)">
                        <g id="Group">
                            <path d="M59.3030577,39.7458621 C65.4659334,39.7458621 70.4626224,44.7569431 70.4626224,50.9383567 C70.4626224,57.1194179 65.4659334,62.1304989 59.3030577,62.1304989 C53.1394794,62.1304989 48.1438443,57.1194179 48.1438443,50.9383567 C48.1438443,44.7569431 53.1394794,39.7458621 59.3030577,39.7458621" id="Fill-98" fill="#FFFFFF"></path>
                            <path d="M32.2471726,68.3446761 C26.8184326,65.6376214 24.0849188,61.7003435 22.4027295,54.799186 C21.2351376,50.0079387 21.571997,45.7363304 21.58675,45.5566586 C21.7718646,43.3269672 23.7206611,41.6725777 25.9476563,41.8554201 C28.171139,42.0417856 29.8231199,43.9995033 29.6380053,46.229547 C29.6351952,46.2605492 29.4054705,49.4072713 30.2506046,52.8752888 C31.2653979,57.0373326 33.3290568,59.6897812 36.3853795,60.7593567 C43.2465622,63.1599125 48.9355868,63.9779475 50.9683347,64.2118731 C54.5101002,64.7892888 60.8275308,65.9335514 65.2112691,70.2132626 C68.3185247,73.4804705 70.3108776,75.7785077 74.770137,78.6712232 C76.3908557,79.7228315 85.842589,80.9312123 92.5927732,80.4527921 C94.8148509,80.2984858 96.7502994,81.9747177 96.9087182,84.2061707 C97.0667857,86.4383282 95.390919,88.3763173 93.1653288,88.5348512 C91.9299436,88.6229256 89.6910054,88.7504573 87.0818381,88.7504573 C82.0851491,88.7504573 73.6253772,88.2829584 70.3825348,86.1797418 C68.7842969,85.1425777 67.3230508,84.2502079 65.9917713,83.4762101 C65.9615628,89.4399037 66.2601347,156.279212 66.2601347,156.279212 C66.2892894,158.516302 64.6805136,160.647702 62.2199297,160.647702 C59.7593458,160.647702 58.210987,158.773479 58.1818323,156.554004 L55.3576932,112.711626 C55.1374525,112.725013 54.9165093,112.734173 54.6931072,112.734173 C54.6246113,112.734173 54.5554129,112.737344 54.4862144,112.739105 L51.8587815,156.878118 C51.8482437,159.108162 50.1031786,161 47.8006622,161 C45.4981458,161 43.7692387,159.122254 43.7797766,156.885164 C43.7797766,156.885164 44.2367672,79.5822648 44.2258782,75.4952604 C40.5348267,73.0672254 36.0032074,70.2174902 32.2471726,68.3446761" id="Fill-99" fill="#FFFFFF"></path>
                            <path d="M25.2208972,31.2699344 L21.129408,22.0813085 L20.7721755,11.7970372 L24.7930612,7.32144858 L25.7260106,3.38205689 L26.1043188,3.04103282 L30.9299436,6.92123851 L28.6130255,11.0255055 L32.1087758,9.06496937 L32.5689278,16.4783676 L32.4445814,16.7693654 L28.8139468,18.5868687 L31.8822124,18.091186 L25.2208972,31.2699344 L25.2208972,31.2699344 Z M24.9939825,37.8790372 L35.046021,16.7351926 L34.4432569,7.01318818 L25.9992917,0.223004376 L14.5401013,10.5622341 L24.9939825,37.8790372 L24.9939825,37.8790372 Z" id="Fill-100" fill="#00E676"></path>
                            <path d="M95.9603133,30.7326805 L92.6844524,26.5361116 L90.7943165,16.4871751 L93.1962398,11.8639737 L96.3653173,8.49389497 L96.6684556,8.16414442 L100.531976,11.9083632 L98.5852873,14.4029825 L101.476517,13.9770547 L101.844288,21.130105 L101.745232,21.4105339 L97.2866751,19.5472319 L101.294564,22.6862035 L95.9603133,30.7326805 L95.9603133,30.7326805 Z M95.7794138,37.109267 L103.82821,21.3777702 L103.345578,11.9967899 L96.5841529,5.44581619 L87.4081596,15.4214748 L95.7794138,37.109267 L95.7794138,37.109267 Z" id="Fill-101" fill="#00E676"></path>
                            <path d="M101.106991,65.5196018 L98.4068467,55.7412298 L100.944357,49.1955405 L105.276811,44.3074114 L106.489013,36.258116 L113.374082,42.9302801 L109.904676,47.3755711 L115.056622,46.6160175 L115.712427,59.3632013 L115.536445,59.8631116 L107.172216,65.218035 L112.285523,65.828919 L105.227986,76.4746477 L101.106991,65.5196018 L101.106991,65.5196018 Z M93.3630888,50.2813217 L104.904474,87.8376543 L119.248221,59.8042779 L118.387631,43.0881094 L106.338673,31.4126149 L93.3630888,50.2813217 L93.3630888,50.2813217 Z" id="Fill-102" fill="#00E676"></path>
                            <path d="M115.847311,83.2641269 L117.427986,82.0265055 L119.008661,83.2641269 L119.008661,87.254954 L117.427986,88.4922232 L115.847311,87.254954 L115.847311,83.2641269 L115.847311,83.2641269 Z M117.427986,78.8818972 L113.388483,82.0712473 L113.388483,88.448186 L117.427986,91.6368315 L121.467488,88.448186 L121.467488,82.0712473 L117.427986,78.8818972 L117.427986,78.8818972 Z" id="Fill-103" fill="#00E676"></path>
                            <path d="M81.4237245,40.9989847 L83.0043994,39.7610109 L84.5850743,40.9989847 L84.5850743,44.9894595 L83.0043994,46.227081 L81.4237245,44.9894595 L81.4237245,40.9989847 L81.4237245,40.9989847 Z M83.0043994,36.6164026 L78.9648969,39.8057527 L78.9648969,46.1830438 L83.0043994,49.371337 L87.0439019,46.1830438 L87.0439019,39.8057527 L83.0043994,36.6164026 L83.0043994,36.6164026 Z" id="Fill-104" fill="#00E676"></path>
                            <path d="M22.4118623,77.6273654 L23.9925371,76.389744 L25.573212,77.6273654 L25.573212,81.6178403 L23.9925371,82.8554617 L22.4118623,81.6178403 L22.4118623,77.6273654 L22.4118623,77.6273654 Z M23.9925371,73.2451357 L19.9530347,76.4344858 L19.9530347,82.8114245 L23.9925371,86.00007 L28.0320396,82.8114245 L28.0320396,76.4344858 L23.9925371,73.2451357 L23.9925371,73.2451357 Z" id="Fill-105" fill="#00E676"></path>
                            <path d="M4.49754693,57.240256 L8.36141886,54.1949956 L12.2252908,57.240256 L12.2252908,64.8442473 L8.36141886,67.8891554 L4.49754693,64.8442473 L4.49754693,57.240256 L4.49754693,57.240256 Z M8.36141886,51.0503873 L2.03871934,56.0466718 L2.03871934,66.0381838 L8.36141886,71.0337637 L14.6841184,66.0381838 L14.6841184,56.0466718 L8.36141886,51.0503873 L8.36141886,51.0503873 Z" id="Fill-106" fill="#00E676"></path>
                            <path d="M2.74124151,25.0723151 L5.37569964,23.1086083 L8.01015778,25.0723151 L8.01015778,30.5139037 L5.37569964,32.4769059 L2.74124151,30.5139037 L2.74124151,25.0723151 L2.74124151,25.0723151 Z M0.282413912,23.8787309 L0.282413912,31.707488 L5.37569964,35.6215142 L10.4689854,31.707488 L10.4689854,23.8787309 L5.37569964,19.9643523 L0.282413912,23.8787309 L0.282413912,23.8787309 Z" id="Fill-107" fill="#00E676"></path>
                            <path d="M39.9749165,35.4668556 L38.3942416,36.704477 L36.8135667,35.4668556 L36.8135667,31.4763807 L38.3942416,30.2387593 L39.9749165,31.4763807 L39.9749165,35.4668556 L39.9749165,35.4668556 Z M38.3942416,39.8490853 L42.4337441,36.6604398 L42.4337441,30.2835011 L38.3942416,27.094151 L34.3547391,30.2835011 L34.3547391,36.6604398 L38.3942416,39.8490853 L38.3942416,39.8490853 Z" id="Fill-108" fill="#00E676"></path>
                        </g>
                    </g>
                </g>
            </g>
        </g>
    </g>
</svg>