<?xml version="1.0" encoding="UTF-8" standalone="no"?>
<svg width="280px" height="280px" viewBox="0 0 280 280" version="1.1" xmlns="http://www.w3.org/2000/svg" xmlns:xlink="http://www.w3.org/1999/xlink" xmlns:sketch="http://www.bohemiancoding.com/sketch/ns">
    <!-- Generator: Sketch 3.4 (15575) - http://www.bohemiancoding.com/sketch -->
    <title>logo-perform-small</title>
    <desc>Created with Sketch.</desc>
    <defs></defs>
    <g id="Page-1" stroke="none" stroke-width="1" fill="none" fill-rule="evenodd" sketch:type="MSPage">
        <g id="Artboard-1-Copy" sketch:type="MSArtboardGroup" transform="translate(-1481.000000, -440.000000)">
            <g id="Group-Copy" sketch:type="MSLayerGroup" transform="translate(281.000000, 440.000000)">
                <g id="logo-perform-small" transform="translate(1200.000000, 0.000000)" sketch:type="MSShapeGroup">
                    <rect id="Rectangle-8" fill="#455A64" x="0" y="0" width="280" height="280"></rect>
                    <g id="inner" transform="translate(68.000000, 81.000000)">
                        <g id="Group">
                            <path d="M20.6382326,51.7517581 C25.0493256,46.9343419 24.7062791,39.4660871 19.8689767,35.0704581 C15.0351395,30.6751742 7.53662791,31.0175742 3.12553488,35.8353355 C-1.28902326,40.6527516 -0.945976744,48.1213516 3.89132558,52.5166355 C8.72862791,56.9122645 16.2236744,56.5695194 20.6382326,51.7517581" id="Fill-17" fill="#FFFFFF"></path>
                            <path d="M75.6850698,94.9159032 L57.3268837,90.9527613 L62.3235814,82.8376742 L62.3027907,82.8376742 L62.3027907,82.8238677 L63.2695581,81.3034323 C64.517,79.0260581 66.4817209,74.3546452 65.6916744,68.6177194 C64.4962093,67.5956968 63.3180698,66.6150935 62.1676512,65.5796097 L124.175907,65.5796097 C125.132279,65.5796097 125.905,64.6604452 125.905,63.5086419 C125.905,62.3564935 125.132279,61.4376742 124.175907,61.4376742 L57.3372791,61.4376742 C50.3516047,55.5699323 45.0603721,50.9057677 44.194093,50.1201806 C49.1145581,48.8375613 56.6719767,49.314229 66.5510233,57.1524968 C68.1103256,58.3909355 70.386907,58.1814226 71.6308837,56.6268161 C71.818,56.3886548 71.9704651,56.2602548 72.0917442,55.9150935 L110.568395,55.9150935 C111.521302,55.9150935 112.297488,54.995929 112.297488,53.8441258 C112.297488,52.6919774 111.521302,51.7731581 110.568395,51.7731581 L71.2393256,51.7731581 C71.1804186,51.7731581 71.1180465,51.5574323 71.0556744,51.5070387 C68.1796279,49.2248323 65.3902093,47.2860613 62.7220698,45.9054161 L98.4716744,45.9054161 C99.4280465,45.9054161 100.200767,44.9865968 100.200767,43.8344484 C100.200767,42.6823 99.4280465,41.7634806 98.4716744,41.7634806 L50.9926512,41.7634806 C47.797814,41.4183194 44.9737442,41.1960355 42.6278605,41.3765548 C37.4336512,41.7769419 32.4958605,44.2879903 29.9905814,45.7639 C29.4084419,46.0521097 28.8540233,46.4217774 28.3377209,46.8397677 C28.3273256,46.8473613 28.3134651,46.8656548 28.3065349,46.8715226 C28.0916977,47.0420323 27.9184419,47.1990806 27.7833023,47.3364548 C27.6516279,47.4600226 27.5268837,47.5891129 27.4021395,47.7216548 C24.7513256,50.5757935 24.2696744,54.8088516 25.7111628,58.3060258 C26.5913023,60.0425323 27.4714419,61.2150452 28.1575349,61.8449645 C28.1817907,61.8680903 28.7500698,62.3923903 29.768814,63.3198387 C30.9296279,66.4311226 32.1389535,70.2631032 30.0772093,73.9905 C29.3633953,75.2848548 23.302907,78.2825806 19.550186,76.9654452 C17.6686279,76.3048065 15.6068837,77.2885161 14.9415814,79.1627419 C14.2797442,81.0376581 15.2673023,83.0930935 17.1488605,83.7537323 C22.765814,85.726329 34.6823488,82.8877226 37.5029535,76.3410484 C38.2271628,74.6576968 38.3865581,72.9180839 38.7157442,71.3696903 C38.7157442,71.3696903 39.4988605,63.3547 37.2638605,54.4478129 C37.2638605,54.4478129 42.2051163,63.6059774 41.5952558,73.7799516 C43.9272791,75.6276 46.131093,77.1725419 49.5095814,80.0801806 L45.237093,93.0699806 C44.5475349,95.4443452 44.790093,96.3593677 46.2003953,97.8611645 C47.0008372,98.7109516 49.3432558,99.1327387 50.7674186,99.1106484 L74.5381163,102.022429 C76.5097674,102.336871 78.3636047,101.001442 78.6789302,99.0392 C78.7378372,98.6695323 78.7378372,98.3053871 78.6858605,97.9540129 C78.4675581,96.437029 77.2824884,95.1713226 75.6850698,94.9159032" id="Fill-19" fill="#FFFFFF"></path>
                            <path d="M125.686698,84.5634806 L84.7983256,84.5634806 C79.8778605,80.0763839 74.3371395,75.5537355 68.9939302,70.9786226 C69.0701628,73.5134871 68.8622558,78.0292323 66.9772326,82.884271 C74.2505116,88.058929 97.6816279,105.736019 97.6816279,105.736019 C99.4245814,107.109071 101.728884,107.055916 103.049093,105.565165 C104.341581,104.108584 104.965302,101.476384 100.665093,98.024771 L113.589977,98.024771 C114.546349,98.024771 115.322535,97.1056065 115.322535,95.9538032 C115.322535,94.8016548 114.546349,93.8828355 113.589977,93.8828355 L95.807,93.8828355 C94.0986977,92.5021903 92.0023023,90.7763839 89.6425581,88.7054161 L125.686698,88.7054161 C126.64307,88.7054161 127.419256,87.7865968 127.419256,86.6344484 C127.419256,85.4823 126.64307,84.5634806 125.686698,84.5634806" id="Fill-20" fill="#FFFFFF"></path>
                            <path d="M63.9937674,23.8782581 C64.0734651,23.901729 65.1199302,23.9186419 66.8524884,23.9296871 C67.1019767,21.7216903 67.2371163,19.3059065 67.2371163,16.7738032 C67.2371163,14.0432323 67.0777209,11.4476194 66.7935814,9.10224839 C65.203093,9.11122258 64.250186,9.12399355 64.1808837,9.14194194 C56.0898372,9.9126871 45.8712093,13.0201742 45.8712093,16.4924968 C45.8712093,19.9378968 55.933907,23.0802452 63.9937674,23.8782581" id="Fill-21" fill="#FF5722"></path>
                            <path d="M122.460674,0.344125806 L103.593116,0.344125806 C99.5978372,0.344125806 92.1790233,7.5925129 92.1790233,7.5925129 L115.734884,7.5925129 C115.734884,7.5925129 125.111488,0.344125806 122.460674,0.344125806" id="Fill-22" fill="#FF5722"></path>
                            <path d="M103.593116,33.1344484 L122.460674,33.1344484 C125.111488,33.1344484 115.734884,26.2312226 115.734884,26.2312226 L92.1790233,26.2312226 C92.1790233,26.2312226 99.5978372,33.1344484 103.593116,33.1344484" id="Fill-23" fill="#FF5722"></path>
                            <path d="M69.4097442,23.9414226 C81.8668372,23.980771 111.365372,23.8782581 111.365372,23.8782581 C112.436093,23.8782581 113.427116,23.6017839 114.28993,23.1209742 C115.838837,21.305771 116.777884,18.9407258 116.777884,16.3540871 C116.777884,14.051171 116.032884,11.9249774 114.775047,10.2053839 C113.811744,9.53922258 112.647465,9.14194194 111.372302,9.14194194 C111.372302,9.14194194 81.5896279,9.05979355 69.316186,9.09189355 C69.6037907,11.440371 69.7839767,14.0390903 69.7839767,16.7738032 C69.7839767,19.3103935 69.6557674,21.7299742 69.4097442,23.9414226" id="Fill-24" fill="#FF5722"></path>
                            <path d="M148.948023,16.5304645 C148.948023,16.0900387 133.448558,14.6538226 123.23686,14.1070871 C127.630628,13.7063548 131.677884,13.1409806 131.677884,12.5145129 C131.677884,11.6416 123.829395,10.8877677 118.125814,10.5315613 C119.241581,12.1910968 119.896488,14.1951032 119.896488,16.3540871 C119.896488,18.6324968 119.165349,20.7376355 117.935233,22.4479097 C123.652674,22.0965355 131.677884,21.3354548 131.677884,20.4532226 C131.677884,19.829171 127.668744,19.2662129 123.295767,18.8654806 C133.507465,18.3394548 148.948023,16.9698548 148.948023,16.5304645" id="Fill-25" fill="#FF5722"></path>
                        </g>
                    </g>
                </g>
            </g>
        </g>
    </g>
</svg>