<?xml version="1.0" encoding="UTF-8" standalone="no"?>
<svg width="280px" height="280px" viewBox="0 0 280 280" version="1.1" xmlns="http://www.w3.org/2000/svg" xmlns:xlink="http://www.w3.org/1999/xlink" xmlns:sketch="http://www.bohemiancoding.com/sketch/ns">
    <!-- Generator: Sketch 3.4 (15575) - http://www.bohemiancoding.com/sketch -->
    <title>logo-secure-small</title>
    <desc>Created with Sketch.</desc>
    <defs></defs>
    <g id="Page-1" stroke="none" stroke-width="1" fill="none" fill-rule="evenodd" sketch:type="MSPage">
        <g id="Artboard-1-Copy" sketch:type="MSArtboardGroup" transform="translate(-881.000000, -440.000000)">
            <g id="Group-Copy" sketch:type="MSLayerGroup" transform="translate(281.000000, 440.000000)">
                <g id="logo-secure-small" transform="translate(600.000000, 0.000000)" sketch:type="MSShapeGroup">
                    <rect id="Rectangle-8" fill="#455A64" x="0" y="0" width="280" height="280"></rect>
                    <g id="inner" transform="translate(48.000000, 49.000000)">
                        <g id="Group">
                            <path d="M92.8557082,77.5013828 C98.4949142,77.1358933 102.76794,72.3240418 102.396695,66.7544501 C102.025451,61.1848585 97.1510086,56.9665151 91.5118026,57.3327378 C85.8725966,57.6989606 81.5995708,62.5104455 81.9708155,68.0800371 C82.3420601,73.6492622 87.2165021,77.8679722 92.8557082,77.5013828" id="Fill-26" fill="#FFFFFF"></path>
                            <path d="M124.07367,78.4669791 C123.650451,78.8324687 114.66633,86.2811972 98.0976824,80.695109 C93.1007296,79.6844223 88.74603,80.2966265 84.6512017,81.2339954 C69.1740129,85.7709049 60.791309,78.8196381 60.3829399,78.4669791 C59.0019099,77.2590673 56.8932403,77.3734432 55.6569957,78.7276241 C54.4170386,80.0884037 54.528412,82.1845615 55.9057296,83.409703 C56.2881116,83.7491647 62.8294421,89.3983063 74.6164592,89.3983063 C77.0035622,89.3983063 79.6059871,89.8290487 82.4200215,89.963587 C81.7109442,99.8039443 79.1827682,137.733476 81.6478326,154.840733 C81.8854292,156.494784 83.2107725,157.933647 85.4456652,157.664204 C87.6768455,157.394761 88.5566953,155.735944 88.2931116,153.923527 C86.3774893,140.633197 88.2522747,129.624886 91.0403219,121.75458 C91.4598283,120.559132 93.8803433,120.638682 94.3146996,121.75348 C97.1064592,129.608023 99.5752361,140.594339 97.6559013,153.90593 C97.3923176,155.718715 98.3204292,157.344538 100.50706,157.655406 C102.689979,157.966274 104.063584,156.494784 104.304893,154.840733 C106.710558,138.132691 102.55633,101.735137 101.112189,89.9973132 C104.278906,89.928761 107.193176,89.3983063 109.84015,89.3983063 C121.627167,89.3983063 128.168498,83.7491647 128.55088,83.409703 C129.928197,82.1845615 130.039571,80.0884037 128.799614,78.7276241 C127.563369,77.3734432 125.4547,77.2590673 124.07367,78.4669791" id="Fill-27" fill="#FFFFFF"></path>
                            <path d="M92.1317811,34.6789838 C57.2013734,34.6789838 28.8828326,62.6402181 28.8828326,97.1326079 C28.8828326,110.777796 33.319206,123.398733 40.8369099,133.672766 C35.3610515,124.152441 32.2091845,112.98503 32.2091845,101.041916 C32.2091845,66.2030998 59.0353219,37.9606914 92.1317811,37.9606914 C125.224528,37.9606914 152.054378,66.2030998 152.054378,101.041916 C152.054378,112.98503 148.898798,124.152807 143.42294,133.673499 C150.940644,123.398733 155.377017,110.777796 155.377017,97.1326079 C155.377017,62.6402181 127.062189,34.6789838 92.1317811,34.6789838" id="Fill-28" fill="#00E676"></path>
                            <path d="M159.47927,36.1050162 L135.340944,42.6347053 L137.86912,15.9741299 C137.935944,15.2688121 137.408777,14.6430441 136.695987,14.577058 C135.98691,14.5114385 135.348369,15.0294292 135.281545,15.7347471 L132.578884,44.2429327 C132.538047,44.6623109 132.70882,45.0743573 133.035515,45.3452668 C133.273112,45.5417587 133.570107,45.6455035 133.870815,45.6455035 C133.985901,45.6455035 134.100987,45.6304733 134.212361,45.6000464 L160.166073,38.5798608 C160.8603,38.3929002 161.26867,37.6868492 161.075622,37.0035267 C160.886288,36.3202042 160.173498,35.9169559 159.47927,36.1050162" id="Fill-29" fill="#FFFFFF"></path>
                            <path d="M58.2074464,20.5187378 L92.6849356,31.6073318 C92.8148712,31.6498561 92.9522318,31.6703852 93.0858798,31.6703852 C93.3160515,31.6703852 93.5425107,31.6109977 93.7429828,31.4947889 C94.0622532,31.3100278 94.2887124,30.9984269 94.3629614,30.6391694 L100.243476,1.61042691 C100.384549,0.91537355 99.9279185,0.23974942 99.2225536,0.100445476 C98.5209013,-0.0384918794 97.8340987,0.412412993 97.6930258,1.10709977 L92.0983691,28.7204408 L59.0130472,18.0787193 C58.3299571,17.8594988 57.5986052,18.2271879 57.3758584,18.9013457 C57.1531116,19.5751369 57.5280687,20.2991508 58.2074464,20.5187378" id="Fill-30" fill="#FFFFFF"></path>
                            <path d="M50.8493777,18.9574339 L54.2054292,20.1000928 C55.2857511,20.4677819 56.7744421,16.2039814 55.6978326,15.8362923 L52.3417811,14.6932668 C51.2503219,14.3215452 48.0798927,14.2966172 47.7049356,15.3740232 L47.608412,15.6474988 C47.2297425,16.7252715 49.7616309,18.5853457 50.8493777,18.9574339" id="Fill-31" fill="#FFFFFF"></path>
                            <path d="M171.882554,34.5143852 L171.808305,34.2343109 C171.522446,33.1301439 168.374292,32.9549142 167.256845,33.2390209 L163.81912,34.1122367 C162.712811,34.3930441 163.84882,38.7613225 164.955129,38.4805151 L168.392854,37.6072993 C169.5103,37.3231926 172.168412,35.6181856 171.882554,34.5143852" id="Fill-32" fill="#FFFFFF"></path>
                            <path d="M160.72294,68.6614478 L152.704056,64.7906311 L172.428283,46.4164408 C172.951738,45.93071 172.974013,45.118348 172.48397,44.6029234 C171.993927,44.0907981 171.169764,44.0640371 170.646309,44.5501346 L149.552189,64.197123 C149.244056,64.4863619 149.095558,64.9072065 149.15867,65.323652 C149.206931,65.6257216 149.359142,65.8973643 149.585601,66.0942227 C149.6747,66.1686404 149.771223,66.2327935 149.875172,66.2837494 L159.583219,70.9680278 C160.225472,71.278529 161.005086,71.0142181 161.320644,70.3770858 C161.632489,69.7403202 161.368906,68.9715824 160.72294,68.6614478" id="Fill-33" fill="#FFFFFF"></path>
                            <path d="M171.099227,75.5529606 L171.232876,75.2948817 C171.752618,74.2779629 169.506588,72.0938237 168.47824,71.5780325 L165.311524,69.9929002 C164.294313,69.4826079 162.226481,73.5051926 163.243691,74.0154849 L166.410408,75.6006172 C167.438755,76.1160418 170.575773,76.5691462 171.099227,75.5529606" id="Fill-34" fill="#FFFFFF"></path>
                            <path d="M31.6337554,68.8509745 C31.8713519,68.5016148 31.9196137,68.0587749 31.763691,67.6661578 L21.9813948,42.91258 C21.7178112,42.2527193 20.9641845,41.9242552 20.2959442,42.1827007 C19.6277039,42.4400464 19.2972961,43.18129 19.5571674,43.8411508 L28.6600858,66.8600278 L1.54437768,67.1543991 C0.827875536,67.1628306 0.252446352,67.720413 0.259871245,68.4290302 C0.271008584,69.1325151 0.850150215,69.6508724 1.55922747,69.6508724 L1.57407725,69.6508724 L30.5682833,69.370065 C30.9952146,69.3649327 31.3924464,69.1999675 31.6337554,68.8509745" id="Fill-35" fill="#FFFFFF"></path>
                            <path d="M17.0995279,39.7962042 C17.4967597,40.8530812 21.7772103,39.2782135 21.3799785,38.221703 L20.1400215,34.9374292 C19.7353648,33.8695545 17.7417811,31.4372343 16.6577468,31.8346172 L16.3867382,31.9357958 C15.3027039,32.3339118 15.4549142,35.4440557 15.8595708,36.5119304 L17.0995279,39.7962042" id="Fill-36" fill="#FFFFFF"></path>
                        </g>
                    </g>
                </g>
            </g>
        </g>
    </g>
</svg>