<?xml version="1.0" encoding="UTF-8" standalone="no"?>
<svg width="280px" height="240px" viewBox="0 0 280 240" version="1.1" xmlns="http://www.w3.org/2000/svg" xmlns:xlink="http://www.w3.org/1999/xlink" xmlns:sketch="http://www.bohemiancoding.com/sketch/ns">
    <!-- Generator: Sketch 3.4 (15575) - http://www.bohemiancoding.com/sketch -->
    <title>logo-internals-small</title>
    <desc>Created with Sketch.</desc>
    <defs></defs>
    <g id="Page-1" stroke="none" stroke-width="1" fill="none" fill-rule="evenodd" sketch:type="MSPage">
        <g id="Artboard-1-Copy" sketch:type="MSArtboardGroup" transform="translate(-1481.000000, -740.000000)">
            <g id="Group-Copy" sketch:type="MSLayerGroup" transform="translate(281.000000, 440.000000)">
                <g id="logo-internals-small" transform="translate(1200.000000, 300.000000)" sketch:type="MSShapeGroup">
                    <rect id="Rectangle-8" fill="#455A64" x="0" y="0" width="280" height="240"></rect>
                    <g id="inner" transform="translate(73.000000, 53.000000)">
                        <g id="Group">
                            <path d="M110.468641,33.9330017 C111.682864,34.4025214 112.852234,34.3970989 113.076497,33.9211999 C113.300759,33.4456199 112.496617,32.6797798 111.282394,32.2102601 C110.064968,31.7407405 108.895598,31.7464819 108.671335,32.2223809 C108.447072,32.6976419 109.251214,33.4634821 110.468641,33.9330017" id="Fill-109" fill="#FF5722"></path>
                            <path d="M75.9225617,17.9715664 C75.788004,18.587173 76.7202964,19.3070818 78.0050018,19.5801177 C79.2865034,19.8531536 80.4334473,19.5756522 80.568005,18.9600456 C80.6993589,18.3447579 79.7670665,17.6245301 78.4823611,17.3514942 C77.2008595,17.0784583 76.0539156,17.3559597 75.9225617,17.9715664" id="Fill-110" fill="#FF5722"></path>
                            <path d="M87.1997757,17.5001329 C87.078033,18.0596013 87.9270278,18.7144409 89.0931943,18.9625973 C90.2593607,19.2110727 91.3037845,18.9584507 91.4223234,18.3989823 C91.5440661,17.839514 90.6950713,17.1846744 89.5289048,16.9365179 C88.3627384,16.6883615 87.3183146,16.9406645 87.1997757,17.5001329" id="Fill-111" fill="#FF5722"></path>
                            <path d="M113.547448,38.3899298 C113.361631,38.7892766 114.124124,39.4087108 115.248642,39.7732903 C116.369956,40.1381887 117.430398,40.1098006 117.616216,39.7101348 C117.79883,39.310469 117.03954,38.6910347 115.915023,38.3267743 C114.790505,37.9618758 113.733266,37.9902639 113.547448,38.3899298" id="Fill-112" fill="#FF5722"></path>
                            <path d="M113.198239,23.2782229 C113.329593,22.6622973 110.779405,21.5982229 107.501965,20.9003228 C104.224524,20.2027416 101.459685,20.1363964 101.328331,20.752003 C101.193773,21.3672907 103.743961,22.4313651 107.024605,23.1292652 C110.302046,23.8268464 113.066885,23.8935105 113.198239,23.2782229" id="Fill-113" fill="#FF5722"></path>
                            <path d="M122.896002,19.1393051 C122.9793,18.5154054 120.361833,17.654832 117.045948,17.217209 C113.733266,16.7799051 110.981241,16.9310955 110.897944,17.5553142 C110.814646,18.178895 113.432113,19.0394684 116.744795,19.4767724 C120.06068,19.9143953 122.812705,19.7632049 122.896002,19.1393051" id="Fill-114" fill="#FF5722"></path>
                            <path d="M75.7111139,59.2870628 L60.083202,51.1297968 L53.2624098,36.0429694 C52.8715518,32.9359104 51.4811226,30.0776457 48.4535751,27.8557205 C39.7553831,21.4735067 30.3683839,25.1208961 30.3683839,25.1208961 C29.4136652,25.6717524 28.5486517,26.3023505 27.7573244,26.9948282 C27.424134,27.1492083 27.1037586,27.3409075 26.8026058,27.5804519 L7.97093989,42.4034934 C7.32057783,42.9265996 6.82399597,43.6142928 6.53245435,44.3954433 L0.470951834,62.9086159 C-0.272319088,64.9037555 0.74967843,67.1196203 2.75522842,67.8589861 C3.19734647,68.0222973 3.65227953,68.0994874 4.09760133,68.0994874 C5.67064454,68.0994874 7.14757512,67.1384393 7.72745459,65.5844314 L14.7853246,48.7952762 L24.2524176,41.8105335 C23.5860368,51.7374293 22.4615191,65.0530321 24.0441736,70.8065616 L29.8141345,95.8094399 L18.6714782,118.620695 C17.4380329,120.748206 18.1684888,123.468996 20.3053927,124.700209 C21.0102186,125.105297 21.7791195,125.296677 22.5384092,125.296677 C24.0826186,125.296677 25.5851792,124.49926 26.4149515,123.070287 L42.0941235,99.9904614 C42.9014695,98.6026353 43.1481585,96.9631441 42.7861343,95.400524 L39.2107449,76.6181432 C40.889512,76.2727017 38.9192033,76.2947105 40.4538014,75.7183368 L57.2414723,91.5142282 L64.1775996,119.226732 C64.6389402,121.344674 66.5195438,122.789596 68.6083914,122.789596 C68.9287668,122.789596 69.2523459,122.754509 69.5759251,122.684336 C72.0267969,122.158041 73.5806175,119.749839 73.0487944,117.31293 L68.6115951,88.7152914 C68.3873323,87.6834327 67.9067693,86.7239795 67.2147584,85.9243288 L49.0078246,64.8533586 C48.1492185,61.0637099 47.7968056,56.8600418 49.1391785,53.6123182 C49.3858675,53.02191 49.6389641,52.4063034 49.8952644,51.7747484 L52.022557,56.4833416 C52.4486563,57.4236567 53.169501,58.2016176 54.0761633,58.6988874 L71.9851481,66.0277957 C72.5778425,66.3512284 73.2153896,66.5046516 73.8433254,66.5046516 C75.2081246,66.5046516 76.531275,65.7847427 77.2328971,64.5107879 C78.2613021,62.6496146 77.5821063,60.3099905 75.7111139,59.2870628" id="Fill-115" fill="#FFFFFF"></path>
                            <path d="M59.1477059,15.4459844 L49.2769399,13.2387317 C48.3574625,13.0326789 47.8256393,11.9210784 48.129996,10.5696146 C48.4343526,9.21815075 49.392275,8.43987089 50.3117524,8.64560471 L59.5898239,10.720486 L127.483778,12.905411 L146.581356,6.40964496 L59.3943949,9.47874691 C59.1477059,7.85456617 58.6895691,7.00515664 57.7284429,5.53886463 C54.1434422,0.0749572812 46.787623,-1.46629201 41.2867775,2.10709702 C35.7955432,5.67665844 34.2513337,13.003334 37.8363344,18.4694741 C41.4213351,23.9394418 48.780358,25.4826049 54.2747961,21.9111297 C56.4885901,20.4735447 57.7764992,19.1284602 58.6319015,16.8411468 L136.755442,64.6103057 L127.483778,51.5415834 L59.1477059,15.4459844" id="Fill-116" fill="#FF5722"></path>
                        </g>
                    </g>
                </g>
            </g>
        </g>
    </g>
</svg>