<?xml version="1.0" encoding="UTF-8" standalone="no"?>
<svg width="280px" height="280px" viewBox="0 0 280 280" version="1.1" xmlns="http://www.w3.org/2000/svg" xmlns:xlink="http://www.w3.org/1999/xlink" xmlns:sketch="http://www.bohemiancoding.com/sketch/ns">
    <!-- Generator: Sketch 3.4 (15575) - http://www.bohemiancoding.com/sketch -->
    <title>logo-secure</title>
    <desc>Created with Sketch.</desc>
    <defs>
        <linearGradient x1="0%" y1="0%" x2="100%" y2="100%" id="linearGradient-1">
            <stop stop-color="#455A64" offset="0%"></stop>
            <stop stop-color="#3B4C55" offset="100%"></stop>
        </linearGradient>
    </defs>
    <g id="Page-1" stroke="none" stroke-width="1" fill="none" fill-rule="evenodd" sketch:type="MSPage">
        <g id="Artboard-1-Copy" sketch:type="MSArtboardGroup" transform="translate(-881.000000, -1906.000000)">
            <g id="Group" sketch:type="MSLayerGroup" transform="translate(281.000000, 1906.000000)">
                <g id="logo-secure" transform="translate(600.000000, 0.000000)" sketch:type="MSShapeGroup">
                    <rect id="Rectangle-8" fill="url(#linearGradient-1)" x="0" y="0" width="280" height="280"></rect>
                    <g id="inner" transform="translate(54.000000, 39.000000)">
                        <path d="M49.53,175.06 C49.4566663,175.180001 49.3800004,175.268333 49.3,175.325 C49.2199996,175.381667 49.1200006,175.41 49,175.41 C48.8733327,175.41 48.7316675,175.356667 48.575,175.25 C48.4183326,175.143333 48.2250012,175.025001 47.995,174.895 C47.7649989,174.764999 47.4933349,174.645001 47.18,174.535 C46.8666651,174.424999 46.4933355,174.37 46.06,174.37 C45.659998,174.37 45.3083349,174.42 45.005,174.52 C44.7016652,174.620001 44.4466677,174.759999 44.24,174.94 C44.0333323,175.120001 43.8783339,175.331665 43.775,175.575 C43.6716662,175.818335 43.62,176.083332 43.62,176.37 C43.62,176.736669 43.7166657,177.041665 43.91,177.285 C44.1033343,177.528335 44.3583318,177.736666 44.675,177.91 C44.9916683,178.083334 45.3533313,178.234999 45.76,178.365 C46.1666687,178.495001 46.5816646,178.633333 47.005,178.78 C47.4283355,178.926667 47.8433313,179.093332 48.25,179.28 C48.6566687,179.466668 49.0183318,179.703332 49.335,179.99 C49.6516683,180.276668 49.9066657,180.626665 50.1,181.04 C50.2933343,181.453335 50.39,181.956664 50.39,182.55 C50.39,183.190003 50.2800011,183.789997 50.06,184.35 C49.8399989,184.910003 49.5216688,185.398331 49.105,185.815 C48.6883313,186.231669 48.1750031,186.559999 47.565,186.8 C46.954997,187.040001 46.2600039,187.16 45.48,187.16 C45.0199977,187.16 44.5716689,187.115 44.135,187.025 C43.6983312,186.935 43.2816687,186.808334 42.885,186.645 C42.4883314,186.481666 42.1166684,186.283335 41.77,186.05 C41.4233316,185.816666 41.1133347,185.556668 40.84,185.27 L41.52,184.15 C41.5800003,184.056666 41.6566662,183.983334 41.75,183.93 C41.8433338,183.876666 41.9466661,183.85 42.06,183.85 C42.2133341,183.85 42.3833324,183.921666 42.57,184.065 C42.7566676,184.208334 42.9816654,184.364999 43.245,184.535 C43.5083347,184.705001 43.8266648,184.861666 44.2,185.005 C44.5733352,185.148334 45.0199974,185.22 45.54,185.22 C46.3866709,185.22 47.0416644,185.013335 47.505,184.6 C47.9683357,184.186665 48.2,183.61667 48.2,182.89 C48.2,182.483331 48.1033343,182.151668 47.91,181.895 C47.7166657,181.638332 47.4616683,181.423334 47.145,181.25 C46.8283318,181.076666 46.4666687,180.930001 46.06,180.81 C45.6533313,180.689999 45.2400021,180.561667 44.82,180.425 C44.3999979,180.288333 43.9866687,180.128334 43.58,179.945 C43.1733313,179.761666 42.8116683,179.521668 42.495,179.225 C42.1783318,178.928332 41.9233343,178.561669 41.73,178.125 C41.5366657,177.688331 41.44,177.143337 41.44,176.49 C41.44,175.969997 41.5416657,175.466669 41.745,174.98 C41.9483344,174.493331 42.2449981,174.061669 42.635,173.685 C43.025002,173.308331 43.5066638,173.006668 44.08,172.78 C44.6533362,172.553332 45.306663,172.44 46.04,172.44 C46.8666708,172.44 47.6249966,172.569999 48.315,172.83 C49.0050035,173.090001 49.5999975,173.459998 50.1,173.94 L49.53,175.06 Z M64.89,172.6 L64.89,174.49 L58.26,174.49 L58.26,178.83 L63.56,178.83 L63.56,180.66 L58.26,180.66 L58.26,185.11 L64.9,185.11 L64.89,187 L55.91,187 L55.91,172.6 L64.89,172.6 Z M80.12,183.79 C80.2466673,183.79 80.3566662,183.84 80.45,183.94 L81.38,184.95 C80.7933304,185.65667 80.0733376,186.201665 79.22,186.585 C78.3666624,186.968335 77.3466726,187.16 76.16,187.16 C75.1066614,187.16 74.1550043,186.978335 73.305,186.615 C72.4549958,186.251665 71.730003,185.745003 71.13,185.095 C70.529997,184.444997 70.068335,183.670005 69.745,182.77 C69.4216651,181.869996 69.26,180.880005 69.26,179.8 C69.26,178.719995 69.431665,177.728338 69.775,176.825 C70.1183351,175.921662 70.6016636,175.145003 71.225,174.495 C71.8483365,173.844997 72.5949957,173.340002 73.465,172.98 C74.3350044,172.619998 75.2933281,172.44 76.34,172.44 C77.3800052,172.44 78.2983294,172.608332 79.095,172.945 C79.8916707,173.281668 80.5833304,173.729997 81.17,174.29 L80.4,175.38 C80.3466664,175.453334 80.2833337,175.516666 80.21,175.57 C80.1366663,175.623334 80.0366673,175.65 79.91,175.65 C79.776666,175.65 79.6250009,175.588334 79.455,175.465 C79.2849992,175.341666 79.0683347,175.205001 78.805,175.055 C78.5416654,174.904999 78.2116687,174.768334 77.815,174.645 C77.4183314,174.521666 76.9233363,174.46 76.33,174.46 C75.6433299,174.46 75.0133362,174.579999 74.44,174.82 C73.8666638,175.060001 73.3733354,175.409998 72.96,175.87 C72.5466646,176.330002 72.2250012,176.889997 71.995,177.55 C71.7649989,178.210003 71.65,178.959996 71.65,179.8 C71.65,180.646671 71.7699988,181.401663 72.01,182.065 C72.2500012,182.728337 72.5799979,183.288331 73,183.745 C73.4200021,184.201669 73.9133305,184.549999 74.48,184.79 C75.0466695,185.030001 75.6566634,185.15 76.31,185.15 C76.710002,185.15 77.0683318,185.128334 77.385,185.085 C77.7016683,185.041666 77.993332,184.971667 78.26,184.875 C78.526668,184.778333 78.7783322,184.656667 79.015,184.51 C79.2516679,184.363333 79.4866655,184.183334 79.72,183.97 C79.853334,183.849999 79.986666,183.79 80.12,183.79 L80.12,183.79 Z M92.09,185.11 C92.6433361,185.11 93.1383312,185.016668 93.575,184.83 C94.0116689,184.643332 94.3816652,184.383335 94.685,184.05 C94.9883349,183.716665 95.2199992,183.315002 95.38,182.845 C95.5400008,182.374998 95.62,181.853336 95.62,181.28 L95.62,172.6 L97.95,172.6 L97.95,181.28 C97.95,182.126671 97.8150014,182.909996 97.545,183.63 C97.2749987,184.350004 96.8866692,184.971664 96.38,185.495 C95.8733308,186.018336 95.258337,186.428332 94.535,186.725 C93.8116631,187.021668 92.9966712,187.17 92.09,187.17 C91.1833288,187.17 90.368337,187.021668 89.645,186.725 C88.9216631,186.428332 88.3066692,186.018336 87.8,185.495 C87.2933308,184.971664 86.9050014,184.350004 86.635,183.63 C86.3649987,182.909996 86.23,182.126671 86.23,181.28 L86.23,172.6 L88.57,172.6 L88.57,181.27 C88.57,181.843336 88.6499992,182.364998 88.81,182.835 C88.9700008,183.305002 89.1999985,183.708332 89.5,184.045 C89.8000015,184.381668 90.1683312,184.643332 90.605,184.83 C91.0416689,185.016668 91.5366639,185.11 92.09,185.11 L92.09,185.11 Z M106.54,181.2 L106.54,187 L104.2,187 L104.2,172.6 L108.44,172.6 C109.386671,172.6 110.201663,172.696666 110.885,172.89 C111.568337,173.083334 112.129998,173.358332 112.57,173.715 C113.010002,174.071668 113.334999,174.499998 113.545,175 C113.755001,175.500003 113.86,176.056664 113.86,176.67 C113.86,177.170003 113.785001,177.636665 113.635,178.07 C113.484999,178.503336 113.268335,178.896665 112.985,179.25 C112.701665,179.603335 112.351669,179.909999 111.935,180.17 C111.518331,180.430001 111.046669,180.633333 110.52,180.78 C110.813335,180.953334 111.063332,181.196665 111.27,181.51 L115.16,187 L113.07,187 C112.656665,187 112.356668,186.840002 112.17,186.52 L108.81,181.67 C108.696666,181.503333 108.573334,181.383334 108.44,181.31 C108.306666,181.236666 108.106668,181.2 107.84,181.2 L106.54,181.2 Z M106.54,179.5 L108.38,179.5 C108.913336,179.5 109.379998,179.435001 109.78,179.305 C110.180002,179.174999 110.513332,178.993335 110.78,178.76 C111.046668,178.526666 111.246666,178.248335 111.38,177.925 C111.513334,177.601665 111.58,177.243335 111.58,176.85 C111.58,176.063329 111.320003,175.463335 110.8,175.05 C110.279997,174.636665 109.493339,174.43 108.44,174.43 L106.54,174.43 L106.54,179.5 Z M128.88,172.6 L128.88,174.49 L122.25,174.49 L122.25,178.83 L127.55,178.83 L127.55,180.66 L122.25,180.66 L122.25,185.11 L128.89,185.11 L128.88,187 L119.9,187 L119.9,172.6 L128.88,172.6 Z" id="SECURE" fill="#FFFFFF"></path>
                        <g id="Group">
                            <path d="M86.4148498,72.596232 C91.662897,72.2538747 95.6395279,67.7465708 95.2940343,62.5294849 C94.9485408,57.3123991 90.4122103,53.3610394 85.1641631,53.7040835 C79.9161159,54.0471276 75.939485,58.5540882 76.2849785,63.771174 C76.6304721,68.9879165 81.1668026,72.9396195 86.4148498,72.596232" id="Fill-26" fill="#FFFFFF"></path>
                            <path d="M115.467403,73.5007146 C115.073541,73.8430719 106.712597,80.8203619 91.2932189,75.5878237 C86.6428755,74.6411044 82.5902361,75.2145615 78.7794421,76.0926032 C64.3758155,80.3423666 56.5745708,73.8310534 56.1945279,73.5007146 C54.9092918,72.3692529 52.9468884,72.4763898 51.7963948,73.7448631 C50.6424464,75.0195174 50.7460944,76.983007 52.0278755,78.1306079 C52.3837339,78.4485847 58.4713305,83.7401856 69.4407511,83.7401856 C71.6622747,83.7401856 74.0841845,84.1436659 76.7030258,84.2696891 C76.043133,93.487239 73.6903219,129.016167 75.9843991,145.040687 C76.205515,146.590051 77.438927,147.937847 79.5187983,147.685457 C81.5952146,147.433067 82.4140343,145.879239 82.1687339,144.181531 C80.3859871,131.732362 82.1307296,121.42078 84.7253863,114.048594 C85.115794,112.928807 87.368412,113.003323 87.7726395,114.047564 C90.3707511,121.404984 92.6682833,131.695963 90.8820815,144.165049 C90.6367811,145.8631 91.500515,147.386023 93.5354721,147.677216 C95.5669742,147.968408 96.8453004,146.590051 97.0698712,145.040687 C99.3086695,129.390116 95.4425966,95.2962042 94.0986266,84.3012807 C97.0456867,84.2370673 99.7578112,83.7401856 102.22118,83.7401856 C113.190601,83.7401856 119.278197,78.4485847 119.634056,78.1306079 C120.915837,76.983007 121.019485,75.0195174 119.865536,73.7448631 C118.715043,72.4763898 116.752639,72.3692529 115.467403,73.5007146" id="Fill-27" fill="#FFFFFF"></path>
                            <path d="M85.7411373,32.4841114 C53.2336481,32.4841114 26.8793991,58.6756473 26.8793991,90.9849745 C26.8793991,103.766543 31.0080472,115.588687 38.0042918,125.212464 C32.9082618,116.294691 29.9750215,105.834079 29.9750215,94.6468585 C29.9750215,62.0130302 54.9403863,35.558116 85.7411373,35.558116 C116.538433,35.558116 141.507253,62.0130302 141.507253,94.6468585 C141.507253,105.834079 138.570558,116.295035 133.474528,125.213151 C140.470773,115.588687 144.599421,103.766543 144.599421,90.9849745 C144.599421,58.6756473 118.248627,32.4841114 85.7411373,32.4841114" id="Fill-28" fill="#00E676"></path>
                            <path d="M148.417124,33.8198886 L125.953133,39.9363063 L128.305944,14.963109 C128.368133,14.3024316 127.877532,13.7162691 127.214185,13.6544594 C126.554292,13.592993 125.960043,14.0781995 125.897854,14.738877 L123.382661,41.4427471 C123.344657,41.8355824 123.503584,42.2215499 123.807618,42.4753132 C124.028734,42.6593689 124.305129,42.7565476 124.584979,42.7565476 C124.692082,42.7565476 124.799185,42.7424687 124.902833,42.7139675 L149.056288,36.1380974 C149.702361,35.9629698 150.082403,35.3016056 149.902747,34.6615313 C149.726545,34.0214571 149.063197,33.6437309 148.417124,33.8198886" id="Fill-29" fill="#FFFFFF"></path>
                            <path d="M54.1699356,19.2200835 L86.2559227,29.6068677 C86.3768455,29.6467007 86.5046781,29.6659304 86.6290558,29.6659304 C86.8432618,29.6659304 87.0540129,29.6103016 87.2405794,29.5014478 C87.5377039,29.3283805 87.7484549,29.0365012 87.8175536,28.6999814 L93.2901717,1.50850116 C93.4214592,0.857438515 92.9965021,0.224575406 92.3400644,0.0940881671 C91.6870815,-0.0360556845 91.0479185,0.386310905 90.9166309,1.03703016 L85.7100429,26.9026914 L54.9196567,16.9344965 C54.2839485,16.7291508 53.6033262,17.0735684 53.39603,17.705058 C53.1887339,18.3362042 53.5376824,19.0143944 54.1699356,19.2200835" id="Fill-30" fill="#FFFFFF"></path>
                            <path d="M47.3222532,17.7575963 L50.445515,18.827935 C51.4509013,19.1723527 52.8363305,15.178413 51.8343991,14.8339954 L48.7111373,13.7633132 C47.6953863,13.4151183 44.7448712,13.391768 44.3959227,14.4009838 L44.3060944,14.6571508 C43.953691,15.66671 46.3099571,17.409058 47.3222532,17.7575963" id="Fill-31" fill="#FFFFFF"></path>
                            <path d="M159.960064,32.3299304 L159.890966,32.0675824 C159.624936,31.0332993 156.69515,30.8691601 155.655215,31.1352854 L152.455944,31.9532343 C151.426373,32.2162691 152.483584,36.3080742 153.513155,36.0450394 L156.712425,35.2270905 C157.752361,34.9609652 160.226094,33.3638701 159.960064,32.3299304" id="Fill-32" fill="#FFFFFF"></path>
                            <path d="M149.574528,64.3157865 L142.111867,60.6899582 L160.46794,43.4786914 C160.955086,43.023703 160.975815,42.2627564 160.519764,41.7799536 C160.063712,41.3002413 159.296717,41.275174 158.809571,41.7305058 L139.178627,60.1340139 C138.891867,60.4049466 138.75367,60.7991555 138.812403,61.1892436 C138.857318,61.4721949 138.99897,61.726645 139.209721,61.9110441 C139.292639,61.9807517 139.382468,62.0408445 139.479206,62.0885754 L148.513863,66.4763805 C149.111567,66.7672297 149.837103,66.5196473 150.130773,65.9228399 C150.420987,65.3263759 150.175687,64.6062923 149.574528,64.3157865" id="Fill-33" fill="#FFFFFF"></path>
                            <path d="M159.231073,70.7711276 L159.355451,70.5293828 C159.839142,69.576826 157.748906,67.5309234 156.791888,67.0477773 L153.844828,65.5629698 C152.898176,65.0849745 150.973777,68.8529652 151.920429,69.3309606 L154.867489,70.815768 C155.824506,71.2985708 158.743927,71.7229977 159.231073,70.7711276" id="Fill-34" fill="#FFFFFF"></path>
                            <path d="M29.4395064,64.4933179 C29.6606223,64.1660696 29.7055365,63.7512575 29.5604292,63.3834896 L20.4566738,40.196594 C20.2113734,39.5784965 19.5100215,39.2708213 18.888133,39.5129095 C18.2662446,39.7539675 17.9587554,40.448297 18.2006009,41.0663944 L26.672103,62.6283805 L1.43725322,62.9041206 C0.770450644,62.9120186 0.234935622,63.4343109 0.241845494,64.0980789 C0.2522103,64.7570394 0.791180258,65.2425893 1.45107296,65.2425893 L1.4648927,65.2425893 L28.4479399,64.9795545 C28.8452575,64.9747471 29.2149356,64.8202227 29.4395064,64.4933179" id="Fill-35" fill="#FFFFFF"></path>
                            <path d="M15.9134335,37.2774571 C16.2831116,38.2674432 20.2666524,36.7922506 19.8969742,35.8026079 L18.7430258,32.7261995 C18.3664378,31.7259118 16.5111373,29.447536 15.5022961,29.819768 L15.2500858,29.9145429 C14.2412446,30.2874617 14.382897,33.200761 14.759485,34.2010487 L15.9134335,37.2774571" id="Fill-36" fill="#FFFFFF"></path>
                        </g>
                    </g>
                </g>
            </g>
        </g>
    </g>
</svg>