<?xml version="1.0" encoding="UTF-8" standalone="no"?>
<svg width="280px" height="280px" viewBox="0 0 280 280" version="1.1" xmlns="http://www.w3.org/2000/svg" xmlns:xlink="http://www.w3.org/1999/xlink" xmlns:sketch="http://www.bohemiancoding.com/sketch/ns">
    <!-- Generator: Sketch 3.4 (15575) - http://www.bohemiancoding.com/sketch -->
    <title>logo-main-small</title>
    <desc>Created with Sketch.</desc>
    <defs></defs>
    <g id="Page-1" stroke="none" stroke-width="1" fill="none" fill-rule="evenodd" sketch:type="MSPage">
        <g id="Artboard-1-Copy" sketch:type="MSArtboardGroup" transform="translate(-281.000000, -440.000000)">
            <g id="Group-Copy" sketch:type="MSLayerGroup" transform="translate(281.000000, 440.000000)">
                <g id="logo-main-small" sketch:type="MSShapeGroup">
                    <rect id="Rectangle-8" fill="#455A64" x="0" y="0" width="280" height="280"></rect>
                    <g id="inner" transform="translate(53.000000, 59.000000)">
                        <g id="Group">
                            <path d="M87.6224478,25.6146961 C92.7784136,25.0402506 96.4931002,20.3959304 95.9184222,15.242051 C95.3433774,10.0878051 90.697177,6.37462181 85.5408443,6.94980046 C80.384145,7.52424594 76.6705586,12.1681995 77.2448699,17.3228121 C77.8202814,22.4774246 82.4661151,26.1895081 87.6224478,25.6146961" id="Fill-7" fill="#FFFFFF"></path>
                            <path d="M108.692631,12.2209884 C109.526959,6.51759165 108.113919,2.6035174 107.949987,2.17570766 C107.341203,0.587276102 105.559224,-0.207489559 103.969416,0.401048724 C102.379974,1.0099536 101.585987,2.79121114 102.194772,4.38000928 C102.237313,4.49291879 106.250158,15.510761 93.0699701,26.8266404 C90.4140554,28.9312297 84.3687505,29.7589884 80.8935437,27.4344455 C66.7231642,17.3440742 69.7124435,5.97027378 69.7454499,5.85369838 C70.205339,4.21614385 69.255855,2.51443619 67.6257058,2.05180046 C65.9951898,1.58879814 64.3008614,2.54156381 63.8409723,4.17875174 C63.7170149,4.61939211 62.6707122,8.6452761 64.013339,14.2496937 C65.2147719,19.2657355 69.5730832,29.396065 79.1552068,35.9693782 C79.5289126,39.3929559 80.158968,45.4680742 80.8124947,53.1506868 L71.2963838,50.3627749 C71.2963838,50.3627749 69.1333646,50.8983619 68.4512324,51.6982599 C67.7691002,52.4981578 67.5424563,53.590594 67.8494158,54.5954153 L76.509194,77.4452947 C76.928742,78.8192715 78.2218593,79.6866218 79.5945586,79.6246682 C79.8476077,79.6129374 80.1028571,79.5638144 80.3562729,79.486464 C81.983855,78.9897355 82.9006994,77.2616334 82.4037697,75.63471 L79.0019104,62.2571323 C79.0019104,62.2571323 84.145774,62.5969606 89.1920853,66.159109 C94.4254328,69.897587 94.5471898,89.6028631 94.0245885,102.194473 C93.9545416,103.893981 95.1027974,105.393332 96.7967591,105.556097 C96.9449211,105.570394 97.8250917,105.573694 97.9695864,105.567462 C99.4772452,105.498543 100.744324,104.330589 100.89322,102.785415 C102.754047,83.4734896 96.2525203,39.5747842 95.834806,35.6629095 C104.994448,28.2339768 107.940452,17.3693689 108.692631,12.2209884" id="Fill-9" fill="#FFFFFF"></path>
                            <path d="M94.4562388,111.631949 C94.464307,111.88123 95.206951,124.444613 89.3908571,155.32903 C89.1851173,156.423299 89.9050235,157.47761 91.0001023,157.683633 C91.1262601,157.707095 91.2516844,157.718826 91.3752751,157.718826 C92.3265928,157.718826 93.1733902,157.043202 93.3556588,156.075039 C99.2528017,124.760246 98.4962217,111.752923 98.4881535,111.499244 C98.4514797,110.386645 97.5291343,109.50903 96.4058166,109.550455 C96.4058166,109.550455 94.419565,110.518984 94.4562388,111.631949 Z" id="Fill-10" fill="#FFFFFF"></path>
                            <path d="M87.4368785,107.621828 C86.6267548,107.642357 85.9867974,108.315049 86.0073348,109.124478 C86.0110021,109.281012 86.3799403,112.475471 84.5836588,127.970835 C84.4905075,128.775132 85.0670192,129.503179 85.8716418,129.596292 C85.9295864,129.602891 85.9864307,129.60619 86.0425416,129.60619 C86.7771173,129.60619 87.4115736,129.055573 87.4981237,128.308464 C89.3189765,112.601578 88.9441706,109.208794 88.9405032,109.050427 C88.9199659,108.240998 88.2481023,107.597267 87.4368785,107.621828" id="Fill-11" fill="#FFFFFF"></path>
                            <path d="M150.035343,47.9363202 C148.382823,47.9363202 146.776512,48.1269466 145.230345,48.4770394 C142.332017,39.9149791 134.233714,33.7482135 124.689731,33.7482135 C115.797441,33.7482135 108.161595,39.1033503 104.817313,46.7603016 C105.199821,49.5339165 105.610934,52.6367285 106.016179,55.9415313 C107.720043,56.8627703 108.649723,57.704826 108.649723,57.704826 C108.649723,57.704826 108.715736,54.9495406 110.093936,50.4929142 C112.152068,44.4031323 117.90435,40.0128585 124.689731,40.0128585 C131.467778,40.0128585 137.213825,44.3906682 139.277458,50.4694524 C140.336964,53.8999954 140.336964,53.8999954 140.863966,56.9166589 C143.031019,55.6706218 143.842977,55.2358469 146.458917,54.6383063 C147.607906,54.364464 148.800171,54.200232 150.035343,54.200232 C158.55026,54.200232 165.452998,61.1119072 165.452998,69.6237448 C165.452998,78.1348492 158.55026,85.0476241 150.035343,85.0476241 L108.481757,85.0476241 C108.54667,87.1965708 108.571241,89.2846636 108.546303,91.2796427 L150.035343,91.2796427 C162.011164,91.2796427 171.719812,81.5789559 171.719812,69.6079814 C171.719812,57.6362738 162.011164,47.9363202 150.035343,47.9363202" id="Fill-13" fill="#00B0FF"></path>
                            <path d="M21.6844691,85.0476241 C13.1710192,85.0476241 6.26644776,78.2459258 6.26644776,69.7348213 C6.26644776,61.2233503 13.1710192,54.372529 21.6844691,54.372529 C22.9075394,54.372529 24.0899019,54.5550905 25.2315565,54.8245336 C28.8321876,56.040877 30.8771173,57.9126821 30.8771173,57.9126821 C30.8771173,57.9126821 30.9434968,55.1643619 32.3216972,50.7077355 C34.3794627,44.6183202 40.1321109,40.2309791 46.9174925,40.2309791 C52.0837271,40.2309791 56.6477783,42.776942 59.4415864,46.6785522 C60.9767505,45.0270673 63.0928273,44.0684362 64.8847079,43.5189188 C60.9881194,37.7587007 54.3974755,33.9703666 46.9174925,33.9703666 C37.3830448,33.9703666 29.2909765,40.1250348 26.3864136,48.6746311 C24.8710533,48.3395684 23.2999488,48.1581067 21.6844691,48.1581067 C9.70901493,48.1581067 0,57.7473503 0,69.7186914 C0,81.6900325 9.70901493,91.2796427 21.6844691,91.2796427 L72.2631045,91.2796427 C74.7026439,91.2796427 77.0453646,90.8756613 79.2336887,90.1406497 C77.3178507,89.5383434 71.0972452,86.0003898 69.7538849,85.0476241 L21.6844691,85.0476241" id="Fill-15" fill="#00B0FF"></path>
                        </g>
                    </g>
                </g>
            </g>
        </g>
    </g>
</svg>