<?xml version="1.0" encoding="UTF-8" standalone="no"?>
<svg width="280px" height="240px" viewBox="0 0 280 240" version="1.1" xmlns="http://www.w3.org/2000/svg" xmlns:xlink="http://www.w3.org/1999/xlink" xmlns:sketch="http://www.bohemiancoding.com/sketch/ns">
    <!-- Generator: Sketch 3.4 (15575) - http://www.bohemiancoding.com/sketch -->
    <title>logo-tools-small</title>
    <desc>Created with Sketch.</desc>
    <defs></defs>
    <g id="Page-1" stroke="none" stroke-width="1" fill="none" fill-rule="evenodd" sketch:type="MSPage">
        <g id="Artboard-1-Copy" sketch:type="MSArtboardGroup" transform="translate(-281.000000, -740.000000)">
            <g id="Group-Copy" sketch:type="MSLayerGroup" transform="translate(281.000000, 440.000000)">
                <g id="logo-tools-small" transform="translate(0.000000, 300.000000)" sketch:type="MSShapeGroup">
                    <rect id="Rectangle-8" fill="#455A64" x="0" y="0" width="280" height="240"></rect>
                    <g id="inner" transform="translate(85.000000, 38.000000)">
                        <g id="Group">
                            <path d="M53.9560607,36.0428315 C59.5632673,36.0428315 64.1094351,40.5870416 64.1094351,46.192547 C64.1094351,51.797733 59.5632673,56.3419431 53.9560607,56.3419431 C48.3482149,56.3419431 43.8030059,51.797733 43.8030059,46.192547 C43.8030059,40.5870416 48.3482149,36.0428315 53.9560607,36.0428315" id="Fill-98" fill="#FFFFFF"></path>
                            <path d="M29.3396407,61.9771597 C24.4003772,59.5223151 21.9133278,55.9518643 20.3828112,49.6936718 C19.3204941,45.348814 19.6269809,41.4751816 19.6404037,41.3122495 C19.8088276,39.2902932 21.5819129,37.7900394 23.6081136,37.9558468 C25.6311183,38.124849 27.1341501,39.9001707 26.9657261,41.9224464 C26.9631694,41.9505602 26.7541575,44.8041094 27.5230911,47.9490197 C28.4463866,51.7232954 30.3239779,54.1286214 33.1047305,55.098547 C39.347282,57.2754486 44.5233617,58.0172691 46.3728291,58.2294004 C49.5952551,58.7530197 55.3430813,59.790674 59.3315646,63.6716543 C62.1586577,66.6344639 63.9713722,68.7183982 68.0285673,71.3416061 C69.5031556,72.2952385 78.1026834,73.3910372 84.2442445,72.9571904 C86.2659709,72.8172604 88.0269118,74.3373217 88.1710469,76.3608753 C88.3148624,78.3850678 86.7900985,80.1424989 84.7651762,80.2862626 C83.6411782,80.3661313 81.6041115,80.4817812 79.2301969,80.4817812 C74.6840291,80.4817812 66.9870235,80.0578381 64.0365686,78.1505733 C62.5824341,77.2100394 61.2529397,76.4008096 60.0416935,75.6989234 C60.0142088,81.1069934 60.2858603,141.719037 60.2858603,141.719037 C60.3123863,143.747702 58.8486641,145.680525 56.6099361,145.680525 C54.3712081,145.680525 52.9624554,143.980919 52.9359294,141.968228 L50.3664258,102.210543 C50.1660428,102.222683 49.9650207,102.230989 49.7617615,102.230989 C49.6994414,102.230989 49.6364822,102.233864 49.573523,102.235462 L47.1829898,142.262144 C47.173402,144.28442 45.5856789,146 43.4907664,146 C41.395854,146 39.822832,144.297199 39.8324197,142.268534 C39.8324197,142.268534 40.2482063,72.1677681 40.238299,68.4615405 C36.8800472,66.2597199 32.7570166,63.675488 29.3396407,61.9771597" id="Fill-99" fill="#FFFFFF"></path>
                            <path d="M22.9468818,28.3565864 L19.2242975,20.0240438 L18.8992744,10.6979344 L22.5576212,6.63932604 L23.4064523,3.06695842 L23.7506507,2.75770678 L28.1411782,6.27640263 L26.0331625,9.99828446 L29.2137222,8.220407 L29.6323851,14.943116 L29.5192503,15.2070022 L26.215968,16.8551729 L29.0075867,16.4056718 L22.9468818,28.3565864 L22.9468818,28.3565864 Z M22.7404267,34.3499344 L31.8861338,15.1760131 L31.3377174,6.35978556 L23.6550933,0.202227571 L13.2291086,9.57817505 L22.7404267,34.3499344 L22.7404267,34.3499344 Z" id="Fill-100" fill="#00E676"></path>
                            <path d="M87.3081539,27.8693873 L84.3276575,24.0638031 L82.6079437,14.9511028 L84.7933001,10.7586346 L87.6766411,7.70253829 L87.9524473,7.40350985 L91.4676178,10.7988884 L89.69645,13.0610897 L92.3269953,12.6748446 L92.661606,19.1614617 L92.5714816,19.4157637 L88.5149257,17.7260613 L92.1614477,20.5725821 L87.3081539,27.8693873 L87.3081539,27.8693873 Z M87.143565,33.6518818 L94.4666504,19.3860525 L94.0275337,10.8790766 L87.8757457,4.93844201 L79.527096,13.9846915 L87.143565,33.6518818 L87.143565,33.6518818 Z" id="Fill-101" fill="#00E676"></path>
                            <path d="M91.9907866,59.415291 L89.5340982,50.5479475 L91.8428164,44.612105 L95.7846395,40.1793917 L96.8875446,32.8800306 L103.151828,38.9305646 L99.9952378,42.961698 L104.682664,42.2729103 L105.279339,53.8324683 L105.119224,54.2858031 L97.5091472,59.1418206 L102.161419,59.6957899 L95.7402165,69.3496805 L91.9907866,59.415291 L91.9907866,59.415291 Z M84.9451054,45.5967265 L95.4458741,79.6540219 L108.496332,54.2324508 L107.713336,39.0736893 L96.7507601,28.4859737 L84.9451054,45.5967265 L84.9451054,45.5967265 Z" id="Fill-102" fill="#00E676"></path>
                            <path d="M105.402061,75.5065996 L106.840217,74.3842845 L108.278372,75.5065996 L108.278372,79.1256105 L106.840217,80.2476061 L105.402061,79.1256105 L105.402061,75.5065996 L105.402061,75.5065996 Z M106.840217,71.5326521 L103.164931,74.4248578 L103.164931,80.2076718 L106.840217,83.0992385 L110.515502,80.2076718 L110.515502,74.4248578 L106.840217,71.5326521 L106.840217,71.5326521 Z" id="Fill-103" fill="#00E676"></path>
                            <path d="M74.0822412,37.1792035 L75.5203962,36.0565689 L76.9585512,37.1792035 L76.9585512,40.797895 L75.5203962,41.9202101 L74.0822412,40.797895 L74.0822412,37.1792035 L74.0822412,37.1792035 Z M75.5203962,33.2049365 L71.8451111,36.0971422 L71.8451111,41.8802757 L75.5203962,44.771523 L79.1956812,41.8802757 L79.1956812,36.0971422 L75.5203962,33.2049365 L75.5203962,33.2049365 Z" id="Fill-104" fill="#00E676"></path>
                            <path d="M20.3911206,70.3950022 L21.8292756,69.2726871 L23.2674306,70.3950022 L23.2674306,74.0136937 L21.8292756,75.1360088 L20.3911206,74.0136937 L20.3911206,70.3950022 L20.3911206,70.3950022 Z M21.8292756,66.4210547 L18.1539906,69.3132604 L18.1539906,75.0960744 L21.8292756,77.9876411 L25.5045606,75.0960744 L25.5045606,69.3132604 L21.8292756,66.4210547 L21.8292756,66.4210547 Z" id="Fill-105" fill="#00E676"></path>
                            <path d="M4.0920304,51.9073129 L7.60752044,49.1457724 L11.1230105,51.9073129 L11.1230105,58.8028578 L7.60752044,61.5640788 L4.0920304,58.8028578 L4.0920304,51.9073129 L4.0920304,51.9073129 Z M7.60752044,46.29414 L1.85490038,50.8249322 L1.85490038,59.885558 L7.60752044,64.4157112 L13.3601405,59.885558 L13.3601405,50.8249322 L7.60752044,46.29414 L7.60752044,46.29414 Z" id="Fill-106" fill="#00E676"></path>
                            <path d="M2.49408039,22.7363851 L4.89100541,20.9556324 L7.28793044,22.7363851 L7.28793044,27.6709934 L4.89100541,29.4511072 L2.49408039,27.6709934 L2.49408039,22.7363851 L2.49408039,22.7363851 Z M0.256950363,21.6540044 L0.256950363,28.7533742 L4.89100541,32.3027396 L9.52506046,28.7533742 L9.52506046,21.6540044 L4.89100541,18.1043195 L0.256950363,21.6540044 L0.256950363,21.6540044 Z" id="Fill-107" fill="#00E676"></path>
                            <path d="M36.3706208,32.1624902 L34.9324657,33.2848053 L33.4943107,32.1624902 L33.4943107,28.5437987 L34.9324657,27.4214836 L36.3706208,28.5437987 L36.3706208,32.1624902 L36.3706208,32.1624902 Z M34.9324657,36.1364376 L38.6077508,33.2448709 L38.6077508,27.4620569 L34.9324657,24.5698512 L31.2571807,27.4620569 L31.2571807,33.2448709 L34.9324657,36.1364376 L34.9324657,36.1364376 Z" id="Fill-108" fill="#00E676"></path>
                        </g>
                    </g>
                </g>
            </g>
        </g>
    </g>
</svg>