<?xml version="1.0" encoding="UTF-8" standalone="no"?>
<svg width="280px" height="280px" viewBox="0 0 280 280" version="1.1" xmlns="http://www.w3.org/2000/svg" xmlns:xlink="http://www.w3.org/1999/xlink" xmlns:sketch="http://www.bohemiancoding.com/sketch/ns">
    <!-- Generator: Sketch 3.4 (15575) - http://www.bohemiancoding.com/sketch -->
    <title>logo-main</title>
    <desc>Created with Sketch.</desc>
    <defs>
        <linearGradient x1="0%" y1="0%" x2="100%" y2="100%" id="linearGradient-1">
            <stop stop-color="#455A64" offset="0%"></stop>
            <stop stop-color="#3B4C55" offset="100%"></stop>
        </linearGradient>
    </defs>
    <g id="Page-1" stroke="none" stroke-width="1" fill="none" fill-rule="evenodd" sketch:type="MSPage">
        <g id="Artboard-1-Copy" sketch:type="MSArtboardGroup" transform="translate(-281.000000, -1906.000000)">
            <g id="Group" sketch:type="MSLayerGroup" transform="translate(281.000000, 1906.000000)">
                <g id="logo-main" sketch:type="MSShapeGroup">
                    <rect id="Rectangle-8" fill="url(#linearGradient-1)" x="0" y="0" width="280" height="280"></rect>
                    <g id="inner" transform="translate(55.000000, 50.000000)">
                        <g id="Group" transform="translate(3.000000, 0.000000)">
                            <path d="M81.5092537,23.9935128 C86.3055011,23.4554246 89.7610235,19.1050487 89.2264392,14.2773643 C88.6915139,9.44933643 84.369467,5.97116473 79.5728785,6.50993968 C74.7759488,7.04802784 71.3214499,11.3980603 71.855693,16.2264316 C72.3909595,21.0548028 76.7126652,24.5319443 81.5092537,23.9935128" id="Fill-7" fill="#FFFFFF"></path>
                            <path d="M101.109424,11.4475081 C101.885544,6.10508585 100.571087,2.43873782 100.418593,2.03800464 C99.8522814,0.550106729 98.1946269,-0.194357309 96.7157356,0.375665893 C95.2371855,0.946032483 94.4985928,2.6145522 95.0649041,4.1027935 C95.1044776,4.20855684 98.8373561,14.5290673 86.5767164,25.1287517 C84.1060981,27.1001392 78.4825586,27.8755081 75.2498081,25.6980882 C62.0680597,16.246348 64.8487846,5.59240835 64.8794883,5.48321114 C65.3072921,3.9492993 64.4240512,2.35529466 62.9076333,1.92193968 C61.3908742,1.4882413 59.8147548,2.38070534 59.386951,3.91427378 C59.2716418,4.32702552 58.2983369,8.09810673 59.5472921,13.3478144 C60.6649041,18.0463852 64.7191471,27.5355545 73.6327505,33.6928353 C73.9803838,36.8997309 74.5664819,42.590348 75.1744136,49.7867193 L66.3222175,47.1752575 C66.3222175,47.1752575 64.3101066,47.6769466 63.675565,48.4262181 C63.0410235,49.1754896 62.8301919,50.1987842 63.1157356,51.1400093 L71.1713433,72.5436937 C71.5616205,73.83071 72.7645203,74.6431647 74.0414499,74.5851323 C74.2768443,74.5741439 74.5142857,74.5281299 74.7500213,74.4556752 C76.2640512,73.9903852 77.1169296,72.3716566 76.6546695,70.847703 L73.4901493,58.3168074 C73.4901493,58.3168074 78.2751386,58.6351276 82.9693817,61.9718237 C87.8376119,65.4736891 87.9508742,83.9317958 87.4647335,95.7264687 C87.3995736,97.318413 88.4677186,98.7228677 90.0434968,98.8753318 C90.181322,98.8887239 91.0000853,98.8918144 91.1344989,98.8859768 C92.5369723,98.82142 93.7156503,97.7273875 93.8541578,96.2800093 C95.5851599,78.1903573 89.5372281,37.070051 89.1486567,33.4057633 C97.6692537,26.4470162 100.409723,16.2700418 101.109424,11.4475081" id="Fill-9" fill="#FFFFFF"></path>
                            <path d="M87.8662687,104.566636 C87.873774,104.800139 88.5646055,116.568371 83.1542857,145.498079 C82.9628998,146.52309 83.63258,147.510673 84.651258,147.703657 C84.7686141,147.725633 84.8852878,147.736622 85.0002559,147.736622 C85.8852026,147.736622 86.6729211,147.103759 86.8424733,146.196872 C92.3281876,116.864028 91.6243923,104.679954 91.616887,104.442329 C91.5827719,103.400148 90.7247761,102.578079 89.6798294,102.616882 C89.6798294,102.616882 87.8321535,103.524111 87.8662687,104.566636 Z" id="Fill-10" fill="#FFFFFF"></path>
                            <path d="M81.3366311,100.81032 C80.5830277,100.82955 79.9877186,101.459666 80.006823,102.217865 C80.0102345,102.364492 80.3534328,105.35677 78.6824733,119.871415 C78.5958209,120.624807 79.1321109,121.306775 79.880597,121.393995 C79.9344989,121.400176 79.9873774,121.403267 80.0395736,121.403267 C80.7228998,121.403267 81.3130917,120.887499 81.3936034,120.187675 C83.08742,105.474896 82.7387633,102.296845 82.7353518,102.148501 C82.7162473,101.390302 82.091258,100.787313 81.3366311,100.81032" id="Fill-11" fill="#FFFFFF"></path>
                            <path d="M139.567761,44.9023759 C138.030533,44.9023759 136.53629,45.0809374 135.097996,45.4088724 C132.401876,37.3887146 124.868571,31.6122506 115.990448,31.6122506 C107.71855,31.6122506 100.615437,36.6284548 97.5044776,43.8007889 C97.8602985,46.3988585 98.2427292,49.30529 98.6197015,52.4009281 C100.204691,53.2638608 101.06951,54.0526218 101.06951,54.0526218 C101.06951,54.0526218 101.130917,51.4717216 102.412964,47.2971601 C104.327505,41.5928074 109.678465,37.4803991 115.990448,37.4803991 C122.295608,37.4803991 127.640768,41.5811323 129.560426,47.2751833 C130.546013,50.4886032 130.546013,50.4886032 131.036247,53.3143387 C133.052111,52.1471647 133.80742,51.7399072 136.240853,51.1801856 C137.30968,50.9236752 138.418763,50.7698376 139.567761,50.7698376 C147.488614,50.7698376 153.909765,57.244065 153.909765,65.2171787 C153.909765,73.1896056 147.488614,79.6648631 139.567761,79.6648631 L100.913262,79.6648631 C100.973646,81.6778005 100.996503,83.6337355 100.973305,85.5024501 L139.567761,85.5024501 C150.70806,85.5024501 159.73936,76.4157309 159.73936,65.202413 C159.73936,53.9884084 150.70806,44.9023759 139.567761,44.9023759" id="Fill-13" fill="#00B0FF"></path>
                            <path d="M20.1715991,79.6648631 C12.2521109,79.6648631 5.82925373,73.293652 5.82925373,65.3212251 C5.82925373,57.3484548 12.2521109,50.9312297 20.1715991,50.9312297 C21.309339,50.9312297 22.4092111,51.1022367 23.4712154,51.3546265 C26.8206397,52.4939861 28.7228998,54.2473225 28.7228998,54.2473225 C28.7228998,54.2473225 28.7846482,51.6729466 30.0666951,47.4983852 C31.9808955,41.7943759 37.3321962,37.6847146 43.6441791,37.6847146 C48.4499787,37.6847146 52.6956077,40.0695406 55.2944989,43.7242135 C56.7225586,42.1772529 58.6910021,41.2792947 60.3578678,40.7645568 C56.7331343,35.3689095 50.6023028,31.8203434 43.6441791,31.8203434 C34.7749254,31.8203434 27.24742,37.5854756 24.5455011,45.5939582 C23.1358635,45.2801021 21.674371,45.1101253 20.1715991,45.1101253 C9.03164179,45.1101253 0,54.0924548 0,65.306116 C0,76.5197773 9.03164179,85.5024501 20.1715991,85.5024501 L67.2214925,85.5024501 C69.4908316,85.5024501 71.6701066,85.1240371 73.7057569,84.4355452 C71.9235821,83.8713596 66.1369723,80.5573271 64.8873348,79.6648631 L20.1715991,79.6648631" id="Fill-15" fill="#00B0FF"></path>
                        </g>
                        <path d="M10.065,164.06 C9.9916663,164.180001 9.9150004,164.268333 9.835,164.325 C9.7549996,164.381667 9.6550006,164.41 9.535,164.41 C9.4083327,164.41 9.26666745,164.356667 9.11,164.25 C8.95333255,164.143333 8.76000115,164.025001 8.53,163.895 C8.29999885,163.764999 8.0283349,163.645001 7.715,163.535 C7.4016651,163.424999 7.0283355,163.37 6.595,163.37 C6.194998,163.37 5.84333485,163.42 5.54,163.52 C5.23666515,163.620001 4.9816677,163.759999 4.775,163.94 C4.5683323,164.120001 4.41333385,164.331665 4.31,164.575 C4.20666615,164.818335 4.155,165.083332 4.155,165.37 C4.155,165.736669 4.2516657,166.041665 4.445,166.285 C4.6383343,166.528335 4.89333175,166.736666 5.21,166.91 C5.52666825,167.083334 5.8883313,167.234999 6.295,167.365 C6.7016687,167.495001 7.11666455,167.633333 7.54,167.78 C7.96333545,167.926667 8.3783313,168.093332 8.785,168.28 C9.1916687,168.466668 9.55333175,168.703332 9.87,168.99 C10.1866683,169.276668 10.4416657,169.626665 10.635,170.04 C10.8283343,170.453335 10.925,170.956664 10.925,171.55 C10.925,172.190003 10.8150011,172.789997 10.595,173.35 C10.3749989,173.910003 10.0566687,174.398331 9.64,174.815 C9.22333125,175.231669 8.71000305,175.559999 8.1,175.8 C7.48999695,176.040001 6.7950039,176.16 6.015,176.16 C5.5549977,176.16 5.10666885,176.115 4.67,176.025 C4.23333115,175.935 3.81666865,175.808334 3.42,175.645 C3.02333135,175.481666 2.6516684,175.283335 2.305,175.05 C1.9583316,174.816666 1.6483347,174.556668 1.375,174.27 L2.055,173.15 C2.1150003,173.056666 2.1916662,172.983334 2.285,172.93 C2.3783338,172.876666 2.4816661,172.85 2.595,172.85 C2.7483341,172.85 2.9183324,172.921666 3.105,173.065 C3.2916676,173.208334 3.51666535,173.364999 3.78,173.535 C4.04333465,173.705001 4.3616648,173.861666 4.735,174.005 C5.1083352,174.148334 5.5549974,174.22 6.075,174.22 C6.9216709,174.22 7.57666435,174.013335 8.04,173.6 C8.50333565,173.186665 8.735,172.61667 8.735,171.89 C8.735,171.483331 8.6383343,171.151668 8.445,170.895 C8.2516657,170.638332 7.99666825,170.423334 7.68,170.25 C7.36333175,170.076666 7.0016687,169.930001 6.595,169.81 C6.1883313,169.689999 5.7750021,169.561667 5.355,169.425 C4.9349979,169.288333 4.5216687,169.128334 4.115,168.945 C3.7083313,168.761666 3.34666825,168.521668 3.03,168.225 C2.71333175,167.928332 2.4583343,167.561669 2.265,167.125 C2.0716657,166.688331 1.975,166.143337 1.975,165.49 C1.975,164.969997 2.07666565,164.466669 2.28,163.98 C2.48333435,163.493331 2.77999805,163.061669 3.17,162.685 C3.56000195,162.308331 4.0416638,162.006668 4.615,161.78 C5.1883362,161.553332 5.841663,161.44 6.575,161.44 C7.4016708,161.44 8.15999655,161.569999 8.85,161.83 C9.54000345,162.090001 10.1349975,162.459998 10.635,162.94 L10.065,164.06 Z M22.125,174.11 C22.6783361,174.11 23.1733312,174.016668 23.61,173.83 C24.0466689,173.643332 24.4166652,173.383335 24.72,173.05 C25.0233349,172.716665 25.2549992,172.315002 25.415,171.845 C25.5750008,171.374998 25.655,170.853336 25.655,170.28 L25.655,161.6 L27.985,161.6 L27.985,170.28 C27.985,171.126671 27.8500014,171.909996 27.58,172.63 C27.3099987,173.350004 26.9216692,173.971664 26.415,174.495 C25.9083308,175.018336 25.293337,175.428332 24.57,175.725 C23.8466631,176.021668 23.0316712,176.17 22.125,176.17 C21.2183288,176.17 20.403337,176.021668 19.68,175.725 C18.9566631,175.428332 18.3416692,175.018336 17.835,174.495 C17.3283308,173.971664 16.9400014,173.350004 16.67,172.63 C16.3999987,171.909996 16.265,171.126671 16.265,170.28 L16.265,161.6 L18.605,161.6 L18.605,170.27 C18.605,170.843336 18.6849992,171.364998 18.845,171.835 C19.0050008,172.305002 19.2349985,172.708332 19.535,173.045 C19.8350015,173.381668 20.2033312,173.643332 20.64,173.83 C21.0766688,174.016668 21.5716639,174.11 22.125,174.11 L22.125,174.11 Z M36.575,170.79 L36.575,176 L34.235,176 L34.235,161.6 L38.715,161.6 C39.6550047,161.6 40.4699966,161.709999 41.16,161.93 C41.8500035,162.150001 42.4199978,162.458331 42.87,162.855 C43.3200023,163.251669 43.6549989,163.728331 43.875,164.285 C44.0950011,164.841669 44.205,165.456663 44.205,166.13 C44.205,166.81667 44.0883345,167.444997 43.855,168.015 C43.6216655,168.585003 43.2750023,169.074998 42.815,169.485 C42.3549977,169.895002 41.7833368,170.214999 41.1,170.445 C40.4166633,170.675001 39.6216712,170.79 38.715,170.79 L36.575,170.79 Z M36.575,168.94 L38.715,168.94 C39.2350026,168.94 39.6933314,168.873334 40.09,168.74 C40.4866686,168.606666 40.8166654,168.418335 41.08,168.175 C41.3433347,167.931665 41.541666,167.636668 41.675,167.29 C41.808334,166.943332 41.875,166.556669 41.875,166.13 C41.875,165.709998 41.8100007,165.333335 41.68,165 C41.5499994,164.666665 41.3550013,164.383335 41.095,164.15 C40.8349987,163.916666 40.5066687,163.738334 40.11,163.615 C39.7133314,163.491666 39.248336,163.43 38.715,163.43 L36.575,163.43 L36.575,168.94 Z M58.425,161.6 L58.425,163.49 L51.795,163.49 L51.795,167.83 L57.095,167.83 L57.095,169.66 L51.795,169.66 L51.795,174.11 L58.435,174.11 L58.425,176 L49.445,176 L49.445,161.6 L58.425,161.6 Z M66.305,170.2 L66.305,176 L63.965,176 L63.965,161.6 L68.205,161.6 C69.1516714,161.6 69.9666633,161.696666 70.65,161.89 C71.3333368,162.083334 71.8949978,162.358332 72.335,162.715 C72.7750022,163.071668 73.0999989,163.499998 73.31,164 C73.520001,164.500003 73.625,165.056664 73.625,165.67 C73.625,166.170003 73.5500008,166.636665 73.4,167.07 C73.2499993,167.503336 73.0333347,167.896665 72.75,168.25 C72.4666653,168.603335 72.1166688,168.909999 71.7,169.17 C71.2833313,169.430001 70.8116693,169.633333 70.285,169.78 C70.5783348,169.953334 70.8283323,170.196665 71.035,170.51 L74.925,176 L72.835,176 C72.4216646,176 72.1216676,175.840002 71.935,175.52 L68.575,170.67 C68.4616661,170.503333 68.338334,170.383334 68.205,170.31 C68.071666,170.236666 67.871668,170.2 67.605,170.2 L66.305,170.2 Z M66.305,168.5 L68.145,168.5 C68.678336,168.5 69.144998,168.435001 69.545,168.305 C69.945002,168.174999 70.278332,167.993335 70.545,167.76 C70.811668,167.526666 71.011666,167.248335 71.145,166.925 C71.278334,166.601665 71.345,166.243335 71.345,165.85 C71.345,165.063329 71.0850026,164.463335 70.565,164.05 C70.0449974,163.636665 69.2583386,163.43 68.205,163.43 L66.305,163.43 L66.305,168.5 Z M91.585,176 L89.245,176 L89.245,169.59 L82.015,169.59 L82.015,176 L79.665,176 L79.665,161.6 L82.015,161.6 L82.015,167.9 L89.245,167.9 L89.245,161.6 L91.585,161.6 L91.585,176 Z M106.995,161.6 L106.995,163.49 L100.365,163.49 L100.365,167.83 L105.665,167.83 L105.665,169.66 L100.365,169.66 L100.365,174.11 L107.005,174.11 L106.995,176 L98.015,176 L98.015,161.6 L106.995,161.6 Z M114.875,170.2 L114.875,176 L112.535,176 L112.535,161.6 L116.775,161.6 C117.721671,161.6 118.536663,161.696666 119.22,161.89 C119.903337,162.083334 120.464998,162.358332 120.905,162.715 C121.345002,163.071668 121.669999,163.499998 121.88,164 C122.090001,164.500003 122.195,165.056664 122.195,165.67 C122.195,166.170003 122.120001,166.636665 121.97,167.07 C121.819999,167.503336 121.603335,167.896665 121.32,168.25 C121.036665,168.603335 120.686669,168.909999 120.27,169.17 C119.853331,169.430001 119.381669,169.633333 118.855,169.78 C119.148335,169.953334 119.398332,170.196665 119.605,170.51 L123.495,176 L121.405,176 C120.991665,176 120.691668,175.840002 120.505,175.52 L117.145,170.67 C117.031666,170.503333 116.908334,170.383334 116.775,170.31 C116.641666,170.236666 116.441668,170.2 116.175,170.2 L114.875,170.2 Z M114.875,168.5 L116.715,168.5 C117.248336,168.5 117.714998,168.435001 118.115,168.305 C118.515002,168.174999 118.848332,167.993335 119.115,167.76 C119.381668,167.526666 119.581666,167.248335 119.715,166.925 C119.848334,166.601665 119.915,166.243335 119.915,165.85 C119.915,165.063329 119.655003,164.463335 119.135,164.05 C118.614997,163.636665 117.828339,163.43 116.775,163.43 L114.875,163.43 L114.875,168.5 Z M141.565,168.8 C141.565,169.866672 141.391668,170.849996 141.045,171.75 C140.698332,172.650005 140.210003,173.424997 139.58,174.075 C138.949997,174.725003 138.193338,175.233332 137.31,175.6 C136.426662,175.966669 135.445005,176.15 134.365,176.15 C133.291661,176.15 132.313338,175.966669 131.43,175.6 C130.546662,175.233332 129.788336,174.725003 129.155,174.075 C128.521663,173.424997 128.031668,172.650005 127.685,171.75 C127.338332,170.849996 127.165,169.866672 127.165,168.8 C127.165,167.733328 127.338332,166.750005 127.685,165.85 C128.031668,164.949996 128.521663,164.173337 129.155,163.52 C129.788336,162.866663 130.546662,162.356669 131.43,161.99 C132.313338,161.623332 133.291661,161.44 134.365,161.44 C135.445005,161.44 136.426662,161.623332 137.31,161.99 C138.193338,162.356669 138.949997,162.866663 139.58,163.52 C140.210003,164.173337 140.698332,164.949996 141.045,165.85 C141.391668,166.750005 141.565,167.733328 141.565,168.8 L141.565,168.8 Z M139.175,168.8 C139.175,167.973329 139.063334,167.230003 138.84,166.57 C138.616666,165.909997 138.296669,165.350002 137.88,164.89 C137.463331,164.429998 136.958336,164.076668 136.365,163.83 C135.771664,163.583332 135.105004,163.46 134.365,163.46 C133.631663,163.46 132.968336,163.583332 132.375,163.83 C131.781664,164.076668 131.275002,164.429998 130.855,164.89 C130.434998,165.350002 130.111668,165.909997 129.885,166.57 C129.658332,167.230003 129.545,167.973329 129.545,168.8 C129.545,169.633338 129.658332,170.379997 129.885,171.04 C130.111668,171.700003 130.434998,172.258331 130.855,172.715 C131.275002,173.171669 131.781664,173.521665 132.375,173.765 C132.968336,174.008335 133.631663,174.13 134.365,174.13 C135.105004,174.13 135.771664,174.008335 136.365,173.765 C136.958336,173.521665 137.463331,173.171669 137.88,172.715 C138.296669,172.258331 138.616666,171.700003 138.84,171.04 C139.063334,170.379997 139.175,169.633338 139.175,168.8 L139.175,168.8 Z M151.695,170.94 C151.695,171.746671 151.596668,172.471663 151.4,173.115 C151.203332,173.758337 150.910002,174.304998 150.52,174.755 C150.129998,175.205002 149.64667,175.551665 149.07,175.795 C148.49333,176.038335 147.825004,176.16 147.065,176.16 C146.718332,176.16 146.375002,176.138334 146.035,176.095 C145.694998,176.051666 145.341668,175.983334 144.975,175.89 L145.095,174.49 C145.115,174.356666 145.166666,174.25 145.25,174.17 C145.333334,174.09 145.454999,174.05 145.615,174.05 C145.735001,174.05 145.889999,174.075 146.08,174.125 C146.270001,174.175 146.518332,174.2 146.825,174.2 C147.231669,174.2 147.593332,174.140001 147.91,174.02 C148.226668,173.899999 148.493332,173.711668 148.71,173.455 C148.926668,173.198332 149.089999,172.868335 149.2,172.465 C149.310001,172.061665 149.365,171.573336 149.365,171 L149.365,161.6 L151.695,161.6 L151.695,170.94 Z M165.505,164.06 C165.431666,164.180001 165.355,164.268333 165.275,164.325 C165.195,164.381667 165.095001,164.41 164.975,164.41 C164.848333,164.41 164.706667,164.356667 164.55,164.25 C164.393333,164.143333 164.200001,164.025001 163.97,163.895 C163.739999,163.764999 163.468335,163.645001 163.155,163.535 C162.841665,163.424999 162.468336,163.37 162.035,163.37 C161.634998,163.37 161.283335,163.42 160.98,163.52 C160.676665,163.620001 160.421668,163.759999 160.215,163.94 C160.008332,164.120001 159.853334,164.331665 159.75,164.575 C159.646666,164.818335 159.595,165.083332 159.595,165.37 C159.595,165.736669 159.691666,166.041665 159.885,166.285 C160.078334,166.528335 160.333332,166.736666 160.65,166.91 C160.966668,167.083334 161.328331,167.234999 161.735,167.365 C162.141669,167.495001 162.556665,167.633333 162.98,167.78 C163.403335,167.926667 163.818331,168.093332 164.225,168.28 C164.631669,168.466668 164.993332,168.703332 165.31,168.99 C165.626668,169.276668 165.881666,169.626665 166.075,170.04 C166.268334,170.453335 166.365,170.956664 166.365,171.55 C166.365,172.190003 166.255001,172.789997 166.035,173.35 C165.814999,173.910003 165.496669,174.398331 165.08,174.815 C164.663331,175.231669 164.150003,175.559999 163.54,175.8 C162.929997,176.040001 162.235004,176.16 161.455,176.16 C160.994998,176.16 160.546669,176.115 160.11,176.025 C159.673331,175.935 159.256669,175.808334 158.86,175.645 C158.463331,175.481666 158.091668,175.283335 157.745,175.05 C157.398332,174.816666 157.088335,174.556668 156.815,174.27 L157.495,173.15 C157.555,173.056666 157.631666,172.983334 157.725,172.93 C157.818334,172.876666 157.921666,172.85 158.035,172.85 C158.188334,172.85 158.358332,172.921666 158.545,173.065 C158.731668,173.208334 158.956665,173.364999 159.22,173.535 C159.483335,173.705001 159.801665,173.861666 160.175,174.005 C160.548335,174.148334 160.994997,174.22 161.515,174.22 C162.361671,174.22 163.016664,174.013335 163.48,173.6 C163.943336,173.186665 164.175,172.61667 164.175,171.89 C164.175,171.483331 164.078334,171.151668 163.885,170.895 C163.691666,170.638332 163.436668,170.423334 163.12,170.25 C162.803332,170.076666 162.441669,169.930001 162.035,169.81 C161.628331,169.689999 161.215002,169.561667 160.795,169.425 C160.374998,169.288333 159.961669,169.128334 159.555,168.945 C159.148331,168.761666 158.786668,168.521668 158.47,168.225 C158.153332,167.928332 157.898334,167.561669 157.705,167.125 C157.511666,166.688331 157.415,166.143337 157.415,165.49 C157.415,164.969997 157.516666,164.466669 157.72,163.98 C157.923334,163.493331 158.219998,163.061669 158.61,162.685 C159.000002,162.308331 159.481664,162.006668 160.055,161.78 C160.628336,161.553332 161.281663,161.44 162.015,161.44 C162.841671,161.44 163.599997,161.569999 164.29,161.83 C164.980003,162.090001 165.574998,162.459998 166.075,162.94 L165.505,164.06 Z" id="SUPERHEROJS" fill="#FFFFFF"></path>
                    </g>
                </g>
            </g>
        </g>
    </g>
</svg>