<?xml version="1.0" encoding="UTF-8" standalone="no"?>
<svg width="280px" height="240px" viewBox="0 0 280 240" version="1.1" xmlns="http://www.w3.org/2000/svg" xmlns:xlink="http://www.w3.org/1999/xlink" xmlns:sketch="http://www.bohemiancoding.com/sketch/ns">
    <!-- Generator: Sketch 3.4 (15575) - http://www.bohemiancoding.com/sketch -->
    <title>logo-future-small</title>
    <desc>Created with Sketch.</desc>
    <defs></defs>
    <g id="Page-1" stroke="none" stroke-width="1" fill="none" fill-rule="evenodd" sketch:type="MSPage">
        <g id="Artboard-1-Copy" sketch:type="MSArtboardGroup" transform="translate(-881.000000, -740.000000)">
            <g id="Group-Copy" sketch:type="MSLayerGroup" transform="translate(281.000000, 440.000000)">
                <g id="logo-future-small" transform="translate(600.000000, 300.000000)" sketch:type="MSShapeGroup">
                    <rect id="Rectangle-8" fill="#455A64" x="0" y="0" width="280" height="240"></rect>
                    <g id="inner" transform="translate(64.000000, 53.000000)">
                        <g id="Group">
                            <path d="M76.7196141,24.8924409 C83.6182258,24.8924409 89.2096271,19.3299213 89.2096271,12.4710236 C89.2096271,5.61212598 83.6182258,0.0529133858 76.7196141,0.0529133858 C69.8210023,0.0529133858 64.2262748,5.61212598 64.2262748,12.4710236 C64.2262748,19.3299213 69.8210023,24.8924409 76.7196141,24.8924409" id="Fill-37" fill="#FFFFFF"></path>
                            <path d="M87.2471484,31.9299213 C84.9986134,28.6096063 78.9282342,27.4885039 76.3603807,27.4885039 C73.7925271,27.4885039 69.0326846,28.1829921 65.2075142,33.3056693 C60.4576503,39.1592126 55.8508146,50.5818898 45.290018,64.3261417 C42.9450222,67.3818898 44.850955,70.4508661 47.2159082,71.2412598 C47.694886,71.4 48.1805164,71.476063 48.6594942,71.476063 C50.5454696,71.476063 51.7029994,69.9614173 52.9436851,68.4137008 C57.5072798,62.7188976 61.4156061,56.471811 64.1963387,52.7116535 C64.129814,58.0988976 63.7672543,121.386614 63.7672543,121.386614 C63.7572756,123.866929 65.6266198,126 68.2876079,126 C70.9519223,126 72.7979828,123.949606 72.8112877,121.475906 L75.8947077,79.4692913 C75.9279701,79.4692913 77.0356064,79.4626772 77.3582512,79.4362205 L79.8895162,121.072441 C79.9194523,123.53622 80.9605639,125.609764 84.4065435,125.609764 C87.8558494,125.609764 88.9634857,123.238583 88.9302233,120.754961 C88.9302233,120.754961 88.5210964,57.4606299 88.5776424,52.6984252 C88.7805428,52.959685 89.0200317,53.1977953 89.1763647,53.4855118 C92.5524934,59.6929134 101.633115,69.0089764 101.989023,69.3959055 C102.88378,70.368189 104.104508,70.864252 105.331889,70.864252 C106.419568,70.864252 107.510573,70.4740157 108.37872,69.6902362 C110.224781,68.0168504 110.164909,65.5266142 108.671429,63.3373228 C98.8889714,54.295748 89.4956833,35.2502362 87.2471484,31.9299213" id="Fill-38" fill="#FFFFFF"></path>
                            <path d="M118.640156,37.3303937 L120.84545,12.295748 L114.994602,28.6426772 L110.903333,25.4083465 L107.723452,48.8688189 L114.415837,33.9902362 L118.640156,37.3303937" id="Fill-39" fill="#FFEA00"></path>
                            <path d="M130.105688,54.5702362 L147.97755,36.7979528 L132.929662,45.5815748 L131.885224,40.4919685 L114.282788,56.432126 L129.027988,49.3119685 L130.105688,54.5702362" id="Fill-40" fill="#FFEA00"></path>
                            <path d="M154.560169,70.1333858 L137.453342,66.7138583 L140.084394,62.2228346 L116.278529,62.4510236 L132.044884,66.9089764 L129.324023,71.5422047 L154.560169,70.1333858" id="Fill-41" fill="#FFEA00"></path>
                            <path d="M40.4503458,33.9902362 L47.142731,48.8688189 L43.9628502,25.4083465 L39.8715809,28.6426772 L34.0207333,12.295748 L36.2260272,37.3303937 L40.4503458,33.9902362" id="Fill-42" fill="#FFEA00"></path>
                            <path d="M21.9365209,45.5815748 L6.88863302,36.7979528 L24.7604946,54.5702362 L25.8381948,49.3119685 L40.5833952,56.432126 L22.9809587,40.4919685 L21.9365209,45.5815748" id="Fill-43" fill="#FFEA00"></path>
                            <path d="M14.7817891,62.2228346 L17.4128411,66.7138583 L0.306013635,70.1333858 L25.5421598,71.5422047 L22.8212995,66.9089764 L38.5876541,62.4510236 L14.7817891,62.2228346" id="Fill-44" fill="#FFEA00"></path>
                        </g>
                    </g>
                </g>
            </g>
        </g>
    </g>
</svg>