<?xml version="1.0" encoding="UTF-8" standalone="no"?>
<svg width="280px" height="280px" viewBox="0 0 280 280" version="1.1" xmlns="http://www.w3.org/2000/svg" xmlns:xlink="http://www.w3.org/1999/xlink" xmlns:sketch="http://www.bohemiancoding.com/sketch/ns">
    <!-- Generator: Sketch 3.4 (15575) - http://www.bohemiancoding.com/sketch -->
    <title>logo-understand-small</title>
    <desc>Created with Sketch.</desc>
    <defs></defs>
    <g id="Page-1" stroke="none" stroke-width="1" fill="none" fill-rule="evenodd" sketch:type="MSPage">
        <g id="Artboard-1-Copy" sketch:type="MSArtboardGroup" transform="translate(-581.000000, -440.000000)">
            <g id="Group-Copy" sketch:type="MSLayerGroup" transform="translate(281.000000, 440.000000)">
                <g id="logo-understand-small" transform="translate(300.000000, 0.000000)" sketch:type="MSShapeGroup">
                    <rect id="Rectangle-8" fill="#455A64" x="0" y="0" width="280" height="280"></rect>
                    <g id="inner" transform="translate(77.000000, 67.000000)">
                        <g id="Group">
                            <path d="M63.9748148,27.9439291 C71.6608466,27.4382057 77.4803175,20.7862506 76.9784127,13.0870307 C76.4732275,5.38748227 69.8303704,-0.443945626 62.1443386,0.0624349882 C54.4583069,0.568158392 48.638836,7.21978487 49.1440212,14.9190047 C49.6492063,22.6182246 56.2887831,28.4503097 63.9748148,27.9439291" id="Fill-67" fill="#FFFFFF"></path>
                            <path d="M123.307831,51.7214728 C123.307831,51.7214728 123.353757,54.1518369 121.352698,55.9102033 C121.352698,55.9102033 122.864974,50.1596123 121.805397,47.3188203 C120.74254,44.478357 119.860106,41.3539787 121.52328,41.3782955 C121.52328,41.3782955 118.679153,41.0776217 118.364233,44.075487 C118.364233,44.075487 115.139577,31.6095201 109.58582,31.173461 C112.174074,39.6317589 107.460106,41.9106359 107.460106,41.9106359 C107.460106,41.9106359 108.221164,36.9404823 104.032063,36.4971939 C104.032063,36.4971939 105.796931,40.7158274 100.581058,43.4067754 C95.4603175,46.0484326 92.442328,53.1558345 95.2602116,58.0007896 C95.2602116,58.0007896 93.8824339,58.1575343 92.7244444,56.2164634 C92.7244444,56.2164634 92.6850794,63.877565 105.79037,66.278026 C103.700741,65.1778558 99.9151323,62.3883262 98.8719577,58.7868132 C97.8353439,55.2017305 98.58,50.8125508 104.051746,47.915896 C109.270899,45.1552837 114.024233,42.6683995 113.269735,41.0891229 C113.269735,41.0891229 116.842116,46.1476714 115.648042,50.7731182 C115.648042,50.7731182 118.062434,49.7774444 119.023598,48.293792 C119.023598,48.293792 120.768783,55.9253191 116.350053,59.5711939 C116.350053,59.5711939 119.171217,59.4594681 120.119259,59.2133428 C120.119259,59.2133428 117.068466,65.9241182 109.907302,66.7968936 C124.85619,67.6962861 124.452698,53.4699811 123.307831,51.7214728" id="Fill-68" fill="#FFEA00"></path>
                            <path d="M4.27767196,60.3079267 C5.23883598,60.4922742 8.06328042,60.4216241 8.06328042,60.4216241 C3.41820106,57.0685366 4.66804233,49.3403995 4.66804233,49.3403995 C5.72433862,50.7586596 8.19777778,51.5966028 8.19777778,51.5966028 C6.70518519,47.0579078 9.94624339,41.7788652 9.94624339,41.7788652 C9.29343915,43.403818 14.197672,45.5781986 19.584127,47.9964043 C25.2330159,50.5332364 26.2597884,54.8655674 25.4528042,58.5101277 C24.6458201,62.1714468 21.0471958,65.1995437 19.0330159,66.4324704 C31.9546032,63.1904515 31.4231746,55.5480804 31.4231746,55.5480804 C30.3931217,57.5598014 29.0087831,57.4924374 29.0087831,57.4924374 C31.5084656,52.4756217 28.0377778,45.5775414 22.7595767,43.2723759 C17.3796825,40.9238345 18.8689947,36.6003759 18.8689947,36.6003759 C14.7159788,37.312792 15.7985185,42.2234681 15.7985185,42.2234681 C15.7985185,42.2234681 10.9467725,40.2541371 12.9839153,31.6459953 C7.46952381,32.4395768 5.05513228,45.0879196 5.05513228,45.0879196 C4.54666667,42.1166714 1.72878307,42.6003783 1.72878307,42.6003783 C3.38539683,42.4692648 2.70634921,45.6439196 1.83047619,48.5471466 C0.954603175,51.4500449 2.83428571,57.0912104 2.83428571,57.0912104 C0.724973545,55.4656005 0.613439153,53.0378652 0.613439153,53.0378652 C-0.416613757,54.8560378 0.0984126984,69.0790567 14.9554497,67.2161939 C7.75492063,66.8077376 4.27767196,60.3079267 4.27767196,60.3079267" id="Fill-69" fill="#FFEA00"></path>
                            <path d="M90.0213757,56.6429929 L88.0104762,55.6584917 L73.973545,34.5781395 C69.5908995,29.5090757 55.0159788,29.5761111 51.5944974,34.5781395 L37.5608466,55.6584917 L34.6019048,57.1043546 C32.6926984,64.2331158 25.5118519,69.5348322 16.9368254,69.5348322 C16.6284656,69.5348322 16.3233862,69.5276028 16.0183069,69.51413 C16.0675132,69.7592695 16.1364021,70.0034232 16.2315344,70.2436336 C16.8646561,71.8242246 18.3769312,72.7857234 19.9810582,72.7857234 C20.4796825,72.7857234 20.9848677,72.6923995 21.4769312,72.4958936 L42.5306878,65.3750189 C43.3540741,65.0447707 44.0462434,64.4513097 44.4989418,63.6866454 L48.9504762,55.8040638 C47.6809524,76.9481655 46.0112169,115.938487 48.701164,134.859574 C49.0259259,137.143381 50.8334392,139.134728 53.8743915,138.760118 C56.9153439,138.388794 58.7031746,136.104988 58.4177778,133.591158 C56.6299471,117.841111 58.9459259,96.4380686 61.4980952,89.1193735 C62.0754497,87.466818 65.3722751,87.5765721 65.9627513,89.1180591 C69.7713228,99.9764894 70.8210582,115.218842 69.8598942,133.56487 C69.7286772,136.09513 71.4246561,138.319787 74.4,138.75026 C77.3753439,139.180733 79.2484656,137.143381 79.5765079,134.859574 C82.2434921,116.069929 78.9991534,77.6326501 76.6339683,55.8221371 L81.0691005,63.6866454 C81.5217989,64.4513097 82.2139683,65.0447707 83.0406349,65.3750189 L104.091111,72.4958936 C104.583175,72.6927281 105.08836,72.7857234 105.586984,72.7857234 C107.187831,72.7857234 108.703386,71.8242246 109.336508,70.2436336 C109.438201,69.9850213 109.513651,69.7218085 109.562857,69.4579385 C108.982222,69.5075579 108.398307,69.5348322 107.80455,69.5348322 C99.0491005,69.5348322 91.7403175,64.004078 90.0213757,56.6429929" id="Fill-70" fill="#FFFFFF"></path>
                            <path d="M20.3419048,19.5878274 C20.9815873,19.5878274 21.4966138,18.4784563 21.4966138,17.1101442 C21.4966138,15.7415035 20.9815873,14.6321324 20.3419048,14.6321324 C19.7022222,14.6321324 19.1839153,15.7415035 19.1839153,17.1101442 C19.1839153,18.4784563 19.7022222,19.5878274 20.3419048,19.5878274" id="Fill-71" fill="#FFEA00"></path>
                            <path d="M33.9261376,21.1026974 C34.5625397,21.1026974 35.0808466,19.9929976 35.0808466,18.6246856 C35.0808466,17.2563735 34.5625397,16.1470024 33.9261376,16.1470024 C33.286455,16.1470024 32.7681481,17.2563735 32.7681481,18.6246856 C32.7681481,19.9929976 33.286455,21.1026974 33.9261376,21.1026974" id="Fill-72" fill="#FFEA00"></path>
                            <path d="M23.1991534,13.5723806 C23.6157672,13.5723806 23.9536508,13.0600851 23.9536508,12.4285059 C23.9536508,11.7972553 23.6157672,11.2849598 23.1991534,11.2849598 C22.7825397,11.2849598 22.4479365,11.7972553 22.4479365,12.4285059 C22.4479365,13.0600851 22.7825397,13.5723806 23.1991534,13.5723806" id="Fill-73" fill="#FFEA00"></path>
                            <path d="M38.4892063,47.7404208 L40.5394709,45.2673381 C35.789418,38.3423121 40.2343915,31.756078 41.0151323,33.4520095 C41.9238095,35.4219976 41.7729101,38.565435 44.9483598,34.0195106 C48.1238095,29.4735863 46.1489947,18.5451631 46.6180952,18.8616099 C46.0341799,17.3184799 45.4797884,12.4357352 45.4863492,12.2057116 C43.5508995,10.5094515 38.7155556,10.0806217 38.7155556,10.0806217 C45.8242328,19.1721418 42.6651852,33.2679905 41.9074074,29.6313168 C41.1529101,25.994643 37.2262434,23.4246217 37.2262434,23.4246217 C37.2262434,23.4246217 39.5028571,27.2255981 35.7205291,34.4992742 C33.0699471,39.5965981 36.3110053,44.9758652 38.4892063,47.7404208" id="Fill-74" fill="#FFEA00"></path>
                            <path d="M102.700212,31.0890095 C103.297249,31.0890095 103.779471,29.9796383 103.779471,28.6113262 C103.779471,27.2426856 103.297249,26.1333144 102.700212,26.1333144 C102.103175,26.1333144 101.620952,27.2426856 101.620952,28.6113262 C101.620952,29.9796383 102.103175,31.0890095 102.700212,31.0890095" id="Fill-75" fill="#FFEA00"></path>
                            <path d="M90.3002116,21.1026974 C90.8972487,21.1026974 91.3794709,19.9929976 91.3794709,18.6246856 C91.3794709,17.2563735 90.8972487,16.1470024 90.3002116,16.1470024 C89.706455,16.1470024 89.2242328,17.2563735 89.2242328,18.6246856 C89.2242328,19.9929976 89.706455,21.1026974 90.3002116,21.1026974" id="Fill-76" fill="#FFEA00"></path>
                            <path d="M100.036508,25.0735626 C100.423598,25.0735626 100.735238,24.5612671 100.735238,23.9296879 C100.735238,23.2984374 100.423598,22.7861418 100.036508,22.7861418 C99.6461376,22.7861418 99.3344974,23.2984374 99.3344974,23.9296879 C99.3344974,24.5612671 99.6461376,25.0735626 100.036508,25.0735626" id="Fill-77" fill="#FFEA00"></path>
                            <path d="M77.1916402,33.4447801 C77.6312169,32.7675248 78.3037037,31.8250851 78.7859259,31.5710733 C79.5633862,31.1629456 80.1079365,30.3213877 80.1079365,30.3213877 C80.1079365,30.3213877 80.5737566,37.5303286 83.250582,39.7799598 C85.924127,42.0299196 85.3139683,40.1384681 85.5403175,38.7882293 C85.753545,37.5326288 89.4866667,43.4419362 86.5802116,49.1258203 C87.1313228,49.5569504 87.6561905,49.9575201 88.1449735,50.341331 C88.66,49.4166359 91.9699471,42.9772884 88.9257143,38.5578771 C85.9897354,34.3001395 86.1865608,32.0544515 86.1865608,32.0544515 C86.1865608,32.0544515 83.8640212,33.5078723 84.0017989,35.8491844 C84.1428571,38.1901678 81.561164,23.8370213 81.1642328,22.1210449 C80.770582,20.40474 79.917672,25.4803759 78.1331217,28.3251111 C76.8603175,30.3572057 76.2107937,31.1806903 76.0467725,31.3801537 C76.3912169,31.9811726 76.7750265,32.6732151 77.1916402,33.4447801" id="Fill-78" fill="#FFEA00"></path>
                        </g>
                    </g>
                </g>
            </g>
        </g>
    </g>
</svg>