<?xml version="1.0" encoding="UTF-8" standalone="no"?>
<svg width="280px" height="280px" viewBox="0 0 280 280" version="1.1" xmlns="http://www.w3.org/2000/svg" xmlns:xlink="http://www.w3.org/1999/xlink" xmlns:sketch="http://www.bohemiancoding.com/sketch/ns">
    <!-- Generator: Sketch 3.4 (15575) - http://www.bohemiancoding.com/sketch -->
    <title>logo-future</title>
    <desc>Created with Sketch.</desc>
    <defs>
        <linearGradient x1="0%" y1="0%" x2="100%" y2="100%" id="linearGradient-1">
            <stop stop-color="#455A64" offset="0%"></stop>
            <stop stop-color="#3B4C55" offset="100%"></stop>
        </linearGradient>
    </defs>
    <g id="Page-1" stroke="none" stroke-width="1" fill="none" fill-rule="evenodd" sketch:type="MSPage">
        <g id="Artboard-1-Copy" sketch:type="MSArtboardGroup" transform="translate(-881.000000, -1327.000000)">
            <g id="logo-future" sketch:type="MSLayerGroup" transform="translate(881.000000, 1327.000000)">
                <rect id="Rectangle-8" fill="url(#linearGradient-1)" sketch:type="MSShapeGroup" x="0" y="0" width="280" height="280"></rect>
                <g id="inner" transform="translate(61.000000, 56.000000)" sketch:type="MSShapeGroup">
                    <g id="Group">
                        <path d="M78.6994751,25.6826772 C85.7761155,25.6826772 91.511811,19.9435696 91.511811,12.8669291 C91.511811,5.79028871 85.7761155,0.0545931759 78.6994751,0.0545931759 C71.6228346,0.0545931759 65.883727,5.79028871 65.883727,12.8669291 C65.883727,19.9435696 71.6228346,25.6826772 78.6994751,25.6826772" id="Fill-37" fill="#FFFFFF"></path>
                        <path d="M89.4986877,32.9435696 C87.192126,29.5178478 80.9650919,28.3611549 78.3309711,28.3611549 C75.6968504,28.3611549 70.8141732,29.0776903 66.8902887,34.3629921 C62.0178478,40.4023622 57.292126,52.187664 46.4587927,66.3682415 C44.0532808,69.5209974 46.008399,72.6874016 48.4343832,73.5028871 C48.9257218,73.6666667 49.4238845,73.7451444 49.9152231,73.7451444 C51.8498688,73.7451444 53.0372703,72.1824147 54.3099738,70.5855643 C58.9913386,64.7099738 63.0005249,58.2645669 65.8530184,54.3850394 C65.7847769,59.9433071 65.4128609,125.240157 65.4128609,125.240157 C65.4026247,127.799213 67.32021,130 70.0498688,130 C72.7829396,130 74.6766404,127.884514 74.6902887,125.332283 L77.8532808,81.992126 C77.8874016,81.992126 79.023622,81.9853018 79.3545932,81.9580052 L81.9511811,124.91601 C81.9818898,127.458005 83.0498688,129.597375 86.5847769,129.597375 C90.1230971,129.597375 91.2593176,127.150919 91.2251969,124.588451 C91.2251969,124.588451 90.8055118,59.2847769 90.8635171,54.3713911 C91.0716535,54.6409449 91.3173228,54.8866142 91.4776903,55.1834646 C94.9409449,61.5879265 104.255906,71.1997375 104.620997,71.5989501 C105.538845,72.6020997 106.791076,73.1139108 108.050131,73.1139108 C109.165879,73.1139108 110.285039,72.7112861 111.175591,71.9026247 C113.069291,70.1761155 113.007874,67.6068241 111.475853,65.3480315 C101.440945,56.0194226 91.8052493,36.3692913 89.4986877,32.9435696" id="Fill-38" fill="#FFFFFF"></path>
                        <path d="M121.701837,38.5154856 L123.964042,12.6860892 L117.962205,29.5519685 L113.765354,26.2149606 L110.503412,50.42021 L117.368504,35.0692913 L121.701837,38.5154856" id="Fill-39" fill="#FFEA00"></path>
                        <path d="M133.463255,56.3026247 L151.796325,37.9661417 L136.360105,47.0286089 L135.288714,41.7774278 L117.232021,58.223622 L132.357743,50.8774278 L133.463255,56.3026247" id="Fill-40" fill="#FFEA00"></path>
                        <path d="M158.548819,72.3598425 L141.000525,68.8317585 L143.699475,64.1981627 L119.279265,64.4335958 L135.452493,69.0330709 L132.661417,73.8133858 L158.548819,72.3598425" id="Fill-41" fill="#FFEA00"></path>
                        <path d="M41.4942257,35.0692913 L48.3593176,50.42021 L45.0973753,26.2149606 L40.9005249,29.5519685 L34.8986877,12.6860892 L37.1608924,38.5154856 L41.4942257,35.0692913" id="Fill-42" fill="#FFEA00"></path>
                        <path d="M22.5026247,47.0286089 L7.0664042,37.9661417 L25.3994751,56.3026247 L26.5049869,50.8774278 L41.6307087,58.223622 L23.5740157,41.7774278 L22.5026247,47.0286089" id="Fill-43" fill="#FFEA00"></path>
                        <path d="M15.1632546,64.1981627 L17.8622047,68.8317585 L0.313910761,72.3598425 L26.2013123,73.8133858 L23.4102362,69.0330709 L39.5834646,64.4335958 L15.1632546,64.1981627" id="Fill-44" fill="#FFEA00"></path>
                    </g>
                    <path d="M17.73,155.6 L17.73,157.55 L13.24,157.55 L13.24,170 L10.91,170 L10.91,157.55 L6.41,157.55 L6.41,155.6 L17.73,155.6 Z M34.65,170 L32.31,170 L32.31,163.59 L25.08,163.59 L25.08,170 L22.73,170 L22.73,155.6 L25.08,155.6 L25.08,161.9 L32.31,161.9 L32.31,155.6 L34.65,155.6 L34.65,170 Z M50.06,155.6 L50.06,157.49 L43.43,157.49 L43.43,161.83 L48.73,161.83 L48.73,163.66 L43.43,163.66 L43.43,168.11 L50.07,168.11 L50.06,170 L41.08,170 L41.08,155.6 L50.06,155.6 Z M72.56,155.6 L72.56,157.49 L65.93,157.49 L65.93,162.1 L71.56,162.1 L71.56,163.99 L65.93,163.99 L65.93,170 L63.58,170 L63.58,155.6 L72.56,155.6 Z M83.57,168.11 C84.1233361,168.11 84.6183311,168.016668 85.055,167.83 C85.4916688,167.643332 85.8616651,167.383335 86.165,167.05 C86.4683348,166.716665 86.6999992,166.315002 86.86,165.845 C87.0200008,165.374998 87.1,164.853336 87.1,164.28 L87.1,155.6 L89.43,155.6 L89.43,164.28 C89.43,165.126671 89.2950013,165.909996 89.025,166.63 C88.7549986,167.350004 88.3666692,167.971664 87.86,168.495 C87.3533308,169.018336 86.7383369,169.428332 86.015,169.725 C85.291663,170.021668 84.4766712,170.17 83.57,170.17 C82.6633288,170.17 81.8483369,170.021668 81.125,169.725 C80.401663,169.428332 79.7866692,169.018336 79.28,168.495 C78.7733308,167.971664 78.3850013,167.350004 78.115,166.63 C77.8449986,165.909996 77.71,165.126671 77.71,164.28 L77.71,155.6 L80.05,155.6 L80.05,164.27 C80.05,164.843336 80.1299992,165.364998 80.29,165.835 C80.4500008,166.305002 80.6799985,166.708332 80.98,167.045 C81.2800015,167.381668 81.6483311,167.643332 82.085,167.83 C82.5216688,168.016668 83.0166639,168.11 83.57,168.11 L83.57,168.11 Z M105.59,155.6 L105.59,157.55 L101.1,157.55 L101.1,170 L98.77,170 L98.77,157.55 L94.27,157.55 L94.27,155.6 L105.59,155.6 Z M116.27,168.11 C116.823336,168.11 117.318331,168.016668 117.755,167.83 C118.191669,167.643332 118.561665,167.383335 118.865,167.05 C119.168335,166.716665 119.399999,166.315002 119.56,165.845 C119.720001,165.374998 119.8,164.853336 119.8,164.28 L119.8,155.6 L122.13,155.6 L122.13,164.28 C122.13,165.126671 121.995001,165.909996 121.725,166.63 C121.454999,167.350004 121.066669,167.971664 120.56,168.495 C120.053331,169.018336 119.438337,169.428332 118.715,169.725 C117.991663,170.021668 117.176671,170.17 116.27,170.17 C115.363329,170.17 114.548337,170.021668 113.825,169.725 C113.101663,169.428332 112.486669,169.018336 111.98,168.495 C111.473331,167.971664 111.085001,167.350004 110.815,166.63 C110.544999,165.909996 110.41,165.126671 110.41,164.28 L110.41,155.6 L112.75,155.6 L112.75,164.27 C112.75,164.843336 112.829999,165.364998 112.99,165.835 C113.150001,166.305002 113.379998,166.708332 113.68,167.045 C113.980001,167.381668 114.348331,167.643332 114.785,167.83 C115.221669,168.016668 115.716664,168.11 116.27,168.11 L116.27,168.11 Z M130.72,164.2 L130.72,170 L128.38,170 L128.38,155.6 L132.62,155.6 C133.566671,155.6 134.381663,155.696666 135.065,155.89 C135.748337,156.083334 136.309998,156.358332 136.75,156.715 C137.190002,157.071668 137.514999,157.499997 137.725,158 C137.935001,158.500002 138.04,159.056664 138.04,159.67 C138.04,160.170002 137.965001,160.636664 137.815,161.07 C137.664999,161.503335 137.448335,161.896665 137.165,162.25 C136.881665,162.603335 136.531669,162.909999 136.115,163.17 C135.698331,163.430001 135.226669,163.633333 134.7,163.78 C134.993335,163.953334 135.243332,164.196665 135.45,164.51 L139.34,170 L137.25,170 C136.836665,170 136.536668,169.840002 136.35,169.52 L132.99,164.67 C132.876666,164.503332 132.753334,164.383334 132.62,164.31 C132.486666,164.236666 132.286668,164.2 132.02,164.2 L130.72,164.2 Z M130.72,162.5 L132.56,162.5 C133.093336,162.5 133.559998,162.435001 133.96,162.305 C134.360002,162.174999 134.693332,161.993334 134.96,161.76 C135.226668,161.526665 135.426666,161.248335 135.56,160.925 C135.693334,160.601665 135.76,160.243335 135.76,159.85 C135.76,159.063329 135.500003,158.463335 134.98,158.05 C134.459997,157.636665 133.673339,157.43 132.62,157.43 L130.72,157.43 L130.72,162.5 Z M153.06,155.6 L153.06,157.49 L146.43,157.49 L146.43,161.83 L151.73,161.83 L151.73,163.66 L146.43,163.66 L146.43,168.11 L153.07,168.11 L153.06,170 L144.08,170 L144.08,155.6 L153.06,155.6 Z" id="THE-FUTURE" fill="#FFFFFF"></path>
                </g>
            </g>
        </g>
    </g>
</svg>