<?xml version="1.0" encoding="UTF-8" standalone="no"?>
<svg width="280px" height="240px" viewBox="0 0 280 240" version="1.1" xmlns="http://www.w3.org/2000/svg" xmlns:xlink="http://www.w3.org/1999/xlink" xmlns:sketch="http://www.bohemiancoding.com/sketch/ns">
    <!-- Generator: Sketch 3.4 (15575) - http://www.bohemiancoding.com/sketch -->
    <title>logo-perform-small</title>
    <desc>Created with Sketch.</desc>
    <defs></defs>
    <g id="Page-1" stroke="none" stroke-width="1" fill="none" fill-rule="evenodd" sketch:type="MSPage">
        <g id="Artboard-1-Copy" sketch:type="MSArtboardGroup" transform="translate(-1481.000000, -440.000000)">
            <g id="Group-Copy" sketch:type="MSLayerGroup" transform="translate(281.000000, 440.000000)">
                <g id="logo-perform-small" transform="translate(1200.000000, 0.000000)" sketch:type="MSShapeGroup">
                    <rect id="Rectangle-8" fill="#455A64" x="0" y="0" width="280" height="240"></rect>
                    <g id="inner" transform="translate(75.000000, 66.000000)">
                        <g id="Group">
                            <path d="M18.6990698,46.9151452 C22.6956977,42.5479548 22.3848837,35.7776677 18.002093,31.7928452 C13.6224419,27.8083355 6.82848837,28.1187355 2.83186047,32.4862387 C-1.16790698,36.853429 -0.857093023,43.624029 3.52569767,47.6085387 C7.90848837,51.5933613 14.6993023,51.2826484 18.6990698,46.9151452" id="Fill-17" fill="#FFFFFF"></path>
                            <path d="M68.5737209,86.0452581 L51.9404651,82.4525032 L56.4676744,75.0958355 L56.4488372,75.0958355 L56.4488372,75.0833194 L57.3247674,73.7049806 C58.455,71.6404452 60.2351163,67.4056129 59.5193023,62.2048484 C58.4361628,61.2783419 57.3687209,60.3893839 56.3263953,59.4506742 L112.508372,59.4506742 C113.374884,59.4506742 114.075,58.6174129 114.075,57.5732548 C114.075,56.5287839 113.374884,55.6958355 112.508372,55.6958355 L51.9498837,55.6958355 C45.6205814,50.3764806 40.8265116,46.1482194 40.0416279,45.4360516 C44.4997674,44.2733032 51.347093,44.7054226 60.297907,51.8111419 C61.7106977,52.9338387 63.7733721,52.7439065 64.9004651,51.3345903 C65.07,51.1186871 65.2081395,51.0022871 65.3180233,50.6893839 L100.179419,50.6893839 C101.042791,50.6893839 101.746047,49.8561226 101.746047,48.8119645 C101.746047,47.7674935 101.042791,46.9345452 100.179419,46.9345452 L64.5456977,46.9345452 C64.4923256,46.9345452 64.435814,46.7389806 64.3793023,46.6932968 C61.7734884,44.6243806 59.2461628,42.8668032 56.8287209,41.6151903 L89.2193023,41.6151903 C90.085814,41.6151903 90.7859302,40.7822419 90.7859302,39.737771 C90.7859302,38.6933 90.085814,37.8603516 89.2193023,37.8603516 L46.2013953,37.8603516 C43.3067442,37.5474484 40.7480233,37.3459387 38.6225581,37.5095871 C33.9163953,37.8725548 29.4425581,40.1489258 27.1726744,41.4869 C26.6452326,41.7481742 26.142907,42.0832935 25.6751163,42.4622194 C25.6656977,42.4691032 25.6531395,42.4856871 25.6468605,42.4910065 C25.4522093,42.6455806 25.2952326,42.7879516 25.1727907,42.9124871 C25.0534884,43.0245065 24.9404651,43.1415323 24.8274419,43.2616871 C22.4256977,45.8490839 21.9893023,49.686529 23.2953488,52.8568645 C24.0927907,54.4310806 24.8902326,55.4940129 25.5118605,56.0650613 C25.5338372,56.0860258 26.0487209,56.5613258 26.9717442,57.4020968 C28.0234884,60.2226065 29.119186,63.6964581 27.2511628,67.0755 C26.6044186,68.2488871 21.1133721,70.9664516 17.7132558,69.7724129 C16.0084884,69.1735161 14.1404651,70.0652903 13.5376744,71.7643548 C12.9380233,73.4640452 13.8327907,75.3273839 15.5375581,75.9262806 C20.6267442,77.7145226 31.4236047,75.1412065 33.979186,69.206371 C34.6353488,67.6803419 34.7797674,66.1033097 35.0780233,64.6996258 C35.0780233,64.6996258 35.7875581,57.4337 33.7625581,49.3592323 C33.7625581,49.3592323 38.2395349,57.6614935 37.6869767,66.884629 C39.7998837,68.5596 41.7966279,69.9601548 44.8576744,72.5960516 L40.9866279,84.3718516 C40.3618605,86.5243129 40.5816279,87.3538194 41.8594186,88.7152613 C42.5846512,89.485629 44.7069767,89.8679968 45.9973256,89.847971 L67.5345349,92.4876226 C69.3209302,92.7726774 71.0005814,91.5620548 71.2862791,89.7832 C71.3396512,89.4480806 71.3396512,89.1179677 71.2925581,88.7994323 C71.0947674,87.4242226 70.0210465,86.2768065 68.5737209,86.0452581" id="Fill-19" fill="#FFFFFF"></path>
                            <path d="M113.877209,76.6603516 L76.8306977,76.6603516 C72.3725581,72.5926097 67.3524419,68.4926387 62.5112791,64.3451065 C62.5803488,66.6430677 62.3919767,70.7367806 60.6840698,75.1380774 C67.2739535,79.8291226 88.5034884,95.8541484 88.5034884,95.8541484 C90.0826744,97.0988774 92.1704651,97.0506903 93.3666279,95.6992613 C94.5376744,94.3788097 95.1027907,91.9926097 91.2066279,88.8635774 L102.917093,88.8635774 C103.783605,88.8635774 104.48686,88.0303161 104.48686,86.9861581 C104.48686,85.9416871 103.783605,85.1087387 102.917093,85.1087387 L86.805,85.1087387 C85.2572093,83.8571258 83.3577907,82.2926097 81.2197674,80.4151903 L113.877209,80.4151903 C114.743721,80.4151903 115.446977,79.5822419 115.446977,78.537771 C115.446977,77.4933 114.743721,76.6603516 113.877209,76.6603516" id="Fill-20" fill="#FFFFFF"></path>
                            <path d="M57.9809302,21.6466452 C58.0531395,21.6679226 59.0012791,21.6832548 60.5710465,21.6932677 C60.797093,19.6916258 60.9195349,17.5016161 60.9195349,15.2061581 C60.9195349,12.7307806 60.7751163,10.3777484 60.5176744,8.25157097 C59.0766279,8.25970645 58.2132558,8.27128387 58.1504651,8.28755484 C50.8196512,8.98626774 41.5611628,11.8033355 41.5611628,14.9511419 C41.5611628,18.0745419 50.6783721,20.9232129 57.9809302,21.6466452" id="Fill-21" fill="#FF5722"></path>
                            <path d="M110.954302,0.311964516 L93.8595349,0.311964516 C90.2396512,0.311964516 83.517907,6.88293226 83.517907,6.88293226 L104.860465,6.88293226 C104.860465,6.88293226 113.356047,0.311964516 110.954302,0.311964516" id="Fill-22" fill="#FF5722"></path>
                            <path d="M93.8595349,30.037771 L110.954302,30.037771 C113.356047,30.037771 104.860465,23.7797065 104.860465,23.7797065 L83.517907,23.7797065 C83.517907,23.7797065 90.2396512,30.037771 93.8595349,30.037771" id="Fill-23" fill="#FF5722"></path>
                            <path d="M62.8880233,21.7039065 C74.1746512,21.7395774 100.901512,21.6466452 100.901512,21.6466452 C101.871628,21.6466452 102.769535,21.3960097 103.551279,20.9601355 C104.954651,19.3145774 105.805465,17.1705645 105.805465,14.8256677 C105.805465,12.7379774 105.130465,10.8104935 103.990814,9.25160968 C103.118023,8.64770645 102.06314,8.28755484 100.907791,8.28755484 C100.907791,8.28755484 73.9234884,8.21308387 62.8032558,8.24218387 C63.0638372,10.3711774 63.227093,12.7270258 63.227093,15.2061581 C63.227093,17.5056839 63.1109302,19.6991355 62.8880233,21.7039065" id="Fill-24" fill="#FF5722"></path>
                            <path d="M134.952907,14.9855613 C134.952907,14.5862968 120.909767,13.2843065 111.657558,12.7886677 C115.638488,12.4253871 119.305465,11.9128516 119.305465,11.3449323 C119.305465,10.5536 112.194419,9.87021935 107.026744,9.54730323 C108.037674,11.0517419 108.631047,12.8684581 108.631047,14.8256677 C108.631047,16.8911419 107.968605,18.7995387 106.85407,20.3499742 C112.034302,20.0314387 119.305465,19.3414871 119.305465,18.5417065 C119.305465,17.9759774 115.673023,17.4656323 111.71093,17.1023516 C120.96314,16.6254871 134.952907,15.3838871 134.952907,14.9855613" id="Fill-25" fill="#FF5722"></path>
                        </g>
                    </g>
                </g>
            </g>
        </g>
    </g>
</svg>