<?xml version="1.0" encoding="UTF-8" standalone="no"?>
<svg width="280px" height="240px" viewBox="0 0 280 240" version="1.1" xmlns="http://www.w3.org/2000/svg" xmlns:xlink="http://www.w3.org/1999/xlink" xmlns:sketch="http://www.bohemiancoding.com/sketch/ns">
    <!-- Generator: Sketch 3.4 (15575) - http://www.bohemiancoding.com/sketch -->
    <title>logo-secure-small</title>
    <desc>Created with Sketch.</desc>
    <defs></defs>
    <g id="Page-1" stroke="none" stroke-width="1" fill="none" fill-rule="evenodd" sketch:type="MSPage">
        <g id="Artboard-1-Copy" sketch:type="MSArtboardGroup" transform="translate(-881.000000, -440.000000)">
            <g id="Group-Copy" sketch:type="MSLayerGroup" transform="translate(281.000000, 440.000000)">
                <g id="logo-secure-small" transform="translate(600.000000, 0.000000)" sketch:type="MSShapeGroup">
                    <rect id="Rectangle-8" fill="#455A64" x="0" y="0" width="280" height="240"></rect>
                    <g id="inner" transform="translate(56.000000, 37.000000)">
                        <g id="Group">
                            <path d="M84.267897,70.6341717 C89.3855579,70.3010673 93.2633906,65.9155824 92.9264807,60.8394988 C92.5895708,55.7634153 88.1659442,51.9188492 83.0482833,52.2526218 C77.9306223,52.5863944 74.0527897,56.9715452 74.3896996,62.0476288 C74.7266094,67.1233782 79.1502361,70.9682784 84.267897,70.6341717" id="Fill-26" fill="#FFFFFF"></path>
                            <path d="M112.598648,71.5142088 C112.214571,71.8473132 104.061352,78.6360278 89.0250644,73.5449095 C84.4902575,72.6237773 80.5383047,73.1817355 76.8221888,74.0360464 C62.7764163,78.1709513 55.1689914,71.8356195 54.7983906,71.5142088 C53.5450858,70.4133271 51.6314378,70.5175684 50.5095279,71.7517587 C49.3842489,72.9919629 49.4853219,74.9023852 50.7352575,76.0189698 C51.0822747,76.3283527 57.0186266,81.4769374 67.715515,81.4769374 C69.8818455,81.4769374 72.2435837,81.8695128 74.7973605,81.9921299 C74.1538627,90.9605568 71.8595064,125.529244 74.096588,141.120668 C74.3122103,142.628158 75.5149785,143.939527 77.543176,143.693958 C79.5680043,143.44839 80.3664807,141.936557 80.1272747,140.284733 C78.3888197,128.172028 80.0902146,118.139137 82.6204077,110.9662 C83.0011159,109.876677 85.1977682,109.949179 85.5919528,110.965197 C88.125515,118.123768 90.3659657,128.136613 88.6241416,140.268696 C88.3849356,141.920854 89.2272103,143.402617 91.2116094,143.68594 C93.1926395,143.969262 94.439206,142.628158 94.6581974,141.120668 C96.8413734,125.893086 93.0713519,92.7206311 91.7607725,82.0228677 C94.6346137,81.9603898 97.2793562,81.4769374 99.6815236,81.4769374 C110.378412,81.4769374 116.314764,76.3283527 116.661781,76.0189698 C117.911717,74.9023852 118.01279,72.9919629 116.887511,71.7517587 C115.765601,70.5175684 113.851953,70.4133271 112.598648,71.5142088" id="Fill-27" fill="#FFFFFF"></path>
                            <path d="M83.6109227,31.6061624 C51.911073,31.6061624 26.211588,57.089819 26.211588,88.5259211 C26.211588,100.962042 30.2376609,112.464668 37.0600858,121.828343 C32.0906652,113.151592 29.2303004,102.973698 29.2303004,92.0888353 C29.2303004,60.3370023 53.5754077,34.5970858 83.6109227,34.5970858 C113.643069,34.5970858 137.991545,60.3370023 137.991545,92.0888353 C137.991545,102.973698 135.127811,113.151926 130.158391,121.829012 C136.980815,112.464668 141.006888,100.962042 141.006888,88.5259211 C141.006888,57.089819 115.310773,31.6061624 83.6109227,31.6061624" id="Fill-28" fill="#00E676"></path>
                            <path d="M144.729742,32.9058376 L122.823863,38.8569466 L125.118219,14.5587007 C125.178863,13.9158794 124.700451,13.3455592 124.053584,13.28542 C123.410086,13.2256148 122.830601,13.6977077 122.769957,14.340529 L120.317253,40.3226729 C120.280193,40.704891 120.435172,41.0804269 120.731652,41.3273318 C120.947275,41.506413 121.216803,41.6009652 121.4897,41.6009652 C121.594142,41.6009652 121.698584,41.5872668 121.799657,41.559536 L145.353026,35.1613921 C145.983047,34.9909977 146.353648,34.3475081 146.178455,33.7247332 C146.006631,33.1019582 145.359764,32.7344408 144.729742,32.9058376" id="Fill-29" fill="#FFFFFF"></path>
                            <path d="M52.8240987,18.7006218 L84.1129185,28.8066821 C84.2308369,28.8454385 84.3554936,28.8641485 84.4767811,28.8641485 C84.6856652,28.8641485 84.8911803,28.8100232 85.0731116,28.7041114 C85.3628541,28.5357216 85.5683691,28.2517309 85.6357511,27.9243063 L90.9724034,1.46773086 C91.1004292,0.834264501 90.68603,0.2185058 90.0459013,0.0915452436 C89.4091416,-0.0350812065 88.7858584,0.37587007 88.6578326,1.00900232 L83.5806009,26.1755916 L53.5551931,16.4768074 C52.935279,16.2770116 52.2715665,16.6121206 52.0694206,17.2265429 C51.8672747,17.8406311 52.2075536,18.5004919 52.8240987,18.7006218" id="Fill-30" fill="#FFFFFF"></path>
                            <path d="M46.1465451,17.2776613 L49.1922103,18.3190719 C50.172618,18.654181 51.5236266,14.7681856 50.546588,14.4330766 L47.5009227,13.3913318 C46.5104077,13.0525476 43.6331974,13.0298283 43.2929185,14.011768 L43.2053219,14.2610116 C42.8616738,15.2432854 45.1593991,16.9385429 46.1465451,17.2776613" id="Fill-31" fill="#FFFFFF"></path>
                            <path d="M155.985901,31.4561485 L155.918519,31.200891 C155.659099,30.1945615 152.802103,30.0348585 151.788004,30.2937912 L148.668219,31.0896334 C147.664227,31.3455592 148.695172,35.3267749 149.699163,35.0708492 L152.818948,34.275007 C153.833047,34.0160742 156.245322,32.4621439 155.985901,31.4561485" id="Fill-32" fill="#FFFFFF"></path>
                            <path d="M145.858391,62.577522 L138.581137,59.0496891 L156.481159,42.3035916 C156.956202,41.8609002 156.976416,41.1205197 156.531695,40.6507657 C156.086974,40.1840186 155.339034,40.1596288 154.863991,40.6026543 L135.720773,58.5087703 C135.441137,58.7723805 135.306373,59.155935 135.363648,59.5354803 C135.407446,59.8107842 135.545579,60.0583573 135.751094,60.2377726 C135.831953,60.3055963 135.919549,60.364065 136.013884,60.4105058 L144.824077,64.6797216 C145.406931,64.96271 146.114442,64.721819 146.400815,64.1411415 C146.68382,63.5607981 146.444614,62.8601763 145.858391,62.577522" id="Fill-33" fill="#FFFFFF"></path>
                            <path d="M155.275021,68.8583944 L155.396309,68.6231833 C155.867983,67.6963712 153.829678,65.7057633 152.896438,65.2356752 L150.022597,63.7909977 C149.099464,63.3259211 147.222876,66.9920742 148.146009,67.4571508 L151.01985,68.9018283 C151.95309,69.3715824 154.799979,69.7845383 155.275021,68.8583944" id="Fill-34" fill="#FFFFFF"></path>
                            <path d="M28.7080901,62.7502552 C28.9237124,62.4318515 28.9675107,62.0282506 28.8260086,61.6704223 L19.9484335,39.1101995 C19.7092275,38.5088074 19.0253004,38.2094478 18.4188627,38.444993 C17.8124249,38.679536 17.5125751,39.3550998 17.748412,39.9564919 L26.0094421,60.9357216 L1.40154506,61.2040093 C0.751309013,61.2116937 0.229098712,61.7198701 0.23583691,62.3656984 C0.245944206,63.0068492 0.771523605,63.4792761 1.41502146,63.4792761 L1.42849785,63.4792761 L27.7411588,63.2233503 C28.1286052,63.2186729 28.4890987,63.0683248 28.7080901,62.7502552" id="Fill-35" fill="#FFFFFF"></path>
                            <path d="M15.5180687,36.2699582 C15.8785622,37.2331879 19.763133,35.7978654 19.4026395,34.8349698 L18.2773605,31.8417077 C17.9101288,30.8684548 16.1009227,28.6516566 15.1171459,29.0138283 L14.8712017,29.1060418 C13.8874249,29.4688817 14.0255579,32.3034432 14.3927897,33.2766961 L15.5180687,36.2699582" id="Fill-36" fill="#FFFFFF"></path>
                        </g>
                    </g>
                </g>
            </g>
        </g>
    </g>
</svg>