<?xml version="1.0" encoding="UTF-8" standalone="no"?>
<svg width="280px" height="240px" viewBox="0 0 280 240" version="1.1" xmlns="http://www.w3.org/2000/svg" xmlns:xlink="http://www.w3.org/1999/xlink" xmlns:sketch="http://www.bohemiancoding.com/sketch/ns">
    <!-- Generator: Sketch 3.4 (15575) - http://www.bohemiancoding.com/sketch -->
    <title>logo-main-small</title>
    <desc>Created with Sketch.</desc>
    <defs></defs>
    <g id="Page-1" stroke="none" stroke-width="1" fill="none" fill-rule="evenodd" sketch:type="MSPage">
        <g id="Artboard-1-Copy" sketch:type="MSArtboardGroup" transform="translate(-281.000000, -440.000000)">
            <g id="Group-Copy" sketch:type="MSLayerGroup" transform="translate(281.000000, 440.000000)">
                <g id="logo-main-small" sketch:type="MSShapeGroup">
                    <rect id="Rectangle-8" fill="#455A64" x="0" y="0" width="280" height="240"></rect>
                    <g id="inner" transform="translate(61.000000, 46.000000)">
                        <g id="Group">
                            <path d="M79.4715224,23.3450394 C84.1478635,22.8214942 87.5169979,18.5886961 86.9957783,13.8914896 C86.474226,9.19394896 82.2602303,5.8097819 77.5835565,6.33399536 C72.9065501,6.8575406 69.5384136,11.0900046 70.0593006,15.7878794 C70.5811855,20.4857541 74.7948486,23.8689188 79.4715224,23.3450394" id="Fill-7" fill="#FFFFFF"></path>
                            <path d="M98.5816887,11.138116 C99.3384051,5.94008353 98.0568102,2.37282599 97.9081279,1.98292343 C97.3559744,0.535238979 95.7397612,-0.189104408 94.2978422,0.365512761 C92.8562559,0.920464037 92.1361279,2.54388863 92.6882814,3.99190719 C92.7268657,4.09481206 96.3664222,14.1363898 84.4122985,24.4495963 C82.0034456,26.367703 76.5204947,27.122116 73.3685629,25.0035452 C60.5163582,15.8072575 63.227565,5.44126218 63.2575011,5.33501624 C63.6746098,3.84256148 62.8134499,2.29163805 61.3349424,1.86999536 C59.8561023,1.44801856 58.3193859,2.31636195 57.9022772,3.8084826 C57.7898507,4.21007889 56.8408785,7.87923898 58.0586098,12.9870626 C59.1482814,17.558645 63.1011684,26.7913503 71.7919318,32.7822181 C72.1308742,35.9024408 72.7023198,41.4392575 73.2950533,48.4411323 L64.664162,45.9002506 C64.664162,45.9002506 62.7023539,46.3883805 62.0836759,47.1174014 C61.4649979,47.8464223 61.2594371,48.8420603 61.5378422,49.7578469 L69.3920597,70.5830534 C69.77258,71.8352854 70.9454072,72.6257819 72.1904136,72.5693179 C72.4199232,72.5586265 72.6514286,72.5138561 72.8812708,72.4433596 C74.3574499,71.990645 75.1890064,70.4156659 74.7383028,68.9329002 L71.6528955,56.7406775 C71.6528955,56.7406775 76.3182601,57.0503944 80.8951471,60.2969095 C85.6416716,63.7041299 85.7521023,81.6633689 85.2781151,93.1392668 C85.2145842,94.6881856 86.2560256,96.0546821 87.7924094,96.2030255 C87.9267889,96.2160557 88.7250832,96.2190626 88.8561365,96.2133828 C90.223548,96.1505708 91.3727591,95.0861067 91.5078038,93.6778469 C93.1955309,76.0771044 87.2987974,36.0681578 86.9199403,32.5029049 C95.2275224,25.732232 97.8994797,15.8303109 98.5816887,11.138116" id="Fill-9" fill="#FFFFFF"></path>
                            <path d="M85.6696119,101.74051 C85.6769296,101.967703 86.3504904,113.417875 81.0754286,141.565698 C80.8888273,142.563007 81.5417655,143.523898 82.5349765,143.711666 C82.6493987,143.733049 82.7631557,143.74374 82.8752495,143.74374 C83.7380725,143.74374 84.5060981,143.127981 84.6714115,142.245606 C90.0199829,113.705541 89.3337825,101.850766 89.3264648,101.619564 C89.2932026,100.60555 88.4566567,99.8056984 87.4378337,99.8434524 C87.4378337,99.8434524 85.6363497,100.726162 85.6696119,101.74051 Z" id="Fill-10" fill="#FFFFFF"></path>
                            <path d="M79.3032154,98.0857169 C78.568452,98.1044269 77.9880256,98.7175128 78.0066525,99.4552204 C78.0099787,99.597884 78.344597,102.50929 76.7154115,116.631647 C76.6309254,117.364677 77.1538081,118.028213 77.8835821,118.113077 C77.9361365,118.11909 77.987693,118.122097 78.0385842,118.122097 C78.7048273,118.122097 79.2802644,117.620269 79.3587633,116.93936 C81.0102345,102.624223 80.6702942,99.532065 80.666968,99.3877309 C80.6483412,98.6500232 80.0389765,98.0633318 79.3032154,98.0857169" id="Fill-11" fill="#FFFFFF"></path>
                            <path d="M136.078567,43.6887981 C134.57977,43.6887981 133.122883,43.8625336 131.720546,44.1816056 C129.091829,36.3782088 121.746857,30.7578654 113.090687,30.7578654 C105.025586,30.7578654 98.1000512,35.6384965 95.0668657,42.6169838 C95.413791,45.1448353 95.786661,47.9727146 96.154209,50.9846868 C97.6995736,51.824297 98.5427719,52.5917401 98.5427719,52.5917401 C98.5427719,52.5917401 98.6026439,50.080594 99.8526397,46.0188585 C101.719318,40.4686775 106.936503,36.4674153 113.090687,36.4674153 C119.238217,36.4674153 124.449748,40.4573179 126.321416,45.9974756 C127.282362,49.1240464 127.282362,49.1240464 127.760341,51.8734107 C129.725808,50.7377819 130.462235,50.3415313 132.834832,49.7969374 C133.876938,49.5473596 134.958294,49.3976798 136.078567,49.3976798 C143.801399,49.3976798 150.062021,55.6969281 150.062021,63.4545522 C150.062021,71.2115081 143.801399,77.5117587 136.078567,77.5117587 L98.3904307,77.5117587 C98.4493049,79.4702923 98.4715906,81.3733643 98.4489723,83.1915731 L136.078567,83.1915731 C146.940358,83.1915731 155.745876,74.3504408 155.745876,63.4401856 C155.745876,52.5292622 146.940358,43.6887981 136.078567,43.6887981" id="Fill-13" fill="#00B0FF"></path>
                            <path d="M19.6673092,77.5117587 C11.9458081,77.5117587 5.68352239,71.3127425 5.68352239,63.5557865 C5.68352239,55.7984965 11.9458081,49.55471 19.6673092,49.55471 C20.7766055,49.55471 21.8489808,49.7210951 22.884435,49.9666636 C26.1501237,51.0752297 28.0048273,52.7811787 28.0048273,52.7811787 C28.0048273,52.7811787 28.065032,50.2763805 29.3150277,46.214645 C31.1813731,40.6647981 36.3988913,36.6662088 42.5530746,36.6662088 C47.2387292,36.6662088 51.3782175,38.98658 53.9121365,42.542478 C55.3044947,41.0373271 57.2237271,40.1636381 58.8489211,39.6628121 C55.314806,34.412993 49.3372452,30.9603341 42.5530746,30.9603341 C33.9055522,30.9603341 26.5662345,36.569652 23.9318635,44.3616891 C22.557467,44.0563155 21.1325117,43.8909327 19.6673092,43.8909327 C8.80585075,43.8909327 0,52.6304965 0,63.5410858 C0,74.4516752 8.80585075,83.1915731 19.6673092,83.1915731 L65.5409552,83.1915731 C67.7535608,83.1915731 69.8783539,82.8233875 71.863113,82.1535035 C70.1254925,81.6045661 64.483548,78.3801021 63.2651514,77.5117587 L19.6673092,77.5117587" id="Fill-15" fill="#00B0FF"></path>
                        </g>
                    </g>
                </g>
            </g>
        </g>
    </g>
</svg>