<?xml version="1.0" encoding="UTF-8" standalone="no"?>
<svg width="280px" height="280px" viewBox="0 0 280 280" version="1.1" xmlns="http://www.w3.org/2000/svg" xmlns:xlink="http://www.w3.org/1999/xlink" xmlns:sketch="http://www.bohemiancoding.com/sketch/ns">
    <!-- Generator: Sketch 3.4 (15575) - http://www.bohemiancoding.com/sketch -->
    <title>logo-future-small</title>
    <desc>Created with Sketch.</desc>
    <defs></defs>
    <g id="Page-1" stroke="none" stroke-width="1" fill="none" fill-rule="evenodd" sketch:type="MSPage">
        <g id="Artboard-1-Copy" sketch:type="MSArtboardGroup" transform="translate(-881.000000, -740.000000)">
            <g id="Group-Copy" sketch:type="MSLayerGroup" transform="translate(281.000000, 440.000000)">
                <g id="logo-future-small" transform="translate(600.000000, 300.000000)" sketch:type="MSShapeGroup">
                    <rect id="Rectangle-8" fill="#455A64" x="0" y="0" width="280" height="280"></rect>
                    <g id="inner" transform="translate(56.000000, 67.000000)">
                        <g id="Group">
                            <path d="M84.6390581,27.4607087 C92.2497846,27.4607087 98.4183628,21.3242782 98.4183628,13.7577165 C98.4183628,6.19115486 92.2497846,0.0583727034 84.6390581,0.0583727034 C77.0283316,0.0583727034 70.8560838,6.19115486 70.8560838,13.7577165 C70.8560838,21.3242782 77.0283316,27.4607087 84.6390581,27.4607087" id="Fill-37" fill="#FFFFFF"></path>
                            <path d="M96.2533056,35.2242782 C93.7726638,31.5613911 87.0756648,30.3246194 84.2427425,30.3246194 C81.4098202,30.3246194 76.1586391,31.0907612 71.9386124,36.7419685 C66.6984401,43.1994488 61.61606,55.8006562 49.9651166,70.9629659 C47.3780568,74.3339895 49.4807309,77.7196063 52.0898083,78.5915486 C52.6182291,78.7666667 53.153989,78.8505774 53.6824097,78.8505774 C55.7630664,78.8505774 57.0400832,77.1796588 58.4088397,75.4722572 C63.4435151,69.189895 67.7552815,62.2982677 70.8230575,58.1501575 C70.7496657,64.0932283 70.3496806,133.91063 70.3496806,133.91063 C70.3386718,136.64685 72.4009805,139 75.3366513,139 C78.2759917,139 80.3126133,136.738058 80.3272916,134.009134 L83.7290001,87.6685039 C83.765696,87.6685039 84.987669,87.6612073 85.3436191,87.632021 L88.1361759,133.564042 C88.1692022,136.282021 89.3177834,138.569501 93.119477,138.569501 C96.9248403,138.569501 98.1468133,135.953675 98.1101174,133.213806 C98.1101174,133.213806 97.658758,63.3891076 97.721141,58.1355643 C97.9449859,58.4237795 98.2091963,58.6864567 98.3816669,59.0038583 C102.106299,65.851706 112.124276,76.1289501 112.516922,76.5558005 C113.504041,77.628399 114.85078,78.175643 116.204858,78.175643 C117.404814,78.175643 118.608439,77.7451444 119.566201,76.8804987 C121.602823,75.0344619 121.53677,72.2872966 119.889125,69.872126 C109.096865,59.8976903 98.7339474,38.8871654 96.2533056,35.2242782" id="Fill-38" fill="#FFFFFF"></path>
                            <path d="M130.886882,41.1819423 L133.319819,13.564357 L126.865013,31.597874 L122.351419,28.0298425 L118.843292,53.9108399 L126.226504,37.4971654 L130.886882,41.1819423" id="Fill-39" fill="#FFEA00"></path>
                            <path d="M143.535953,60.2004987 L163.252652,40.5945669 L146.651434,50.2844357 L145.499183,44.6697113 L126.079721,62.2544882 L142.347006,54.3997113 L143.535953,60.2004987" id="Fill-40" fill="#FFEA00"></path>
                            <path d="M170.514767,77.3693701 L151.642074,73.5970341 L154.544718,68.6426509 L128.281474,68.8943832 L145.675323,73.8122835 L142.6736,78.9235433 L170.514767,77.3693701" id="Fill-41" fill="#FFEA00"></path>
                            <path d="M44.6258654,37.4971654 L52.0090774,53.9108399 L48.5009508,28.0298425 L43.987357,31.597874 L37.5325509,13.564357 L39.965488,41.1819423 L44.6258654,37.4971654" id="Fill-42" fill="#FFEA00"></path>
                            <path d="M24.200936,50.2844357 L7.59971772,40.5945669 L27.3164166,60.2004987 L28.5053632,54.3997113 L44.7726489,62.2544882 L25.3531867,44.6697113 L24.200936,50.2844357" id="Fill-43" fill="#FFEA00"></path>
                            <path d="M16.3076512,68.6426509 L19.2102956,73.5970341 L0.337602139,77.3693701 L28.1787699,78.9235433 L25.1770465,73.8122835 L42.5708959,68.8943832 L16.3076512,68.6426509" id="Fill-44" fill="#FFEA00"></path>
                        </g>
                    </g>
                </g>
            </g>
        </g>
    </g>
</svg>