<?xml version="1.0" encoding="UTF-8" standalone="no"?>
<svg width="280px" height="280px" viewBox="0 0 280 280" version="1.1" xmlns="http://www.w3.org/2000/svg" xmlns:xlink="http://www.w3.org/1999/xlink" xmlns:sketch="http://www.bohemiancoding.com/sketch/ns">
    <!-- Generator: Sketch 3.4 (15575) - http://www.bohemiancoding.com/sketch -->
    <title>logo-resources-small</title>
    <desc>Created with Sketch.</desc>
    <defs></defs>
    <g id="Page-1" stroke="none" stroke-width="1" fill="none" fill-rule="evenodd" sketch:type="MSPage">
        <g id="Artboard-1-Copy" sketch:type="MSArtboardGroup" transform="translate(-1181.000000, -740.000000)">
            <g id="Group-Copy" sketch:type="MSLayerGroup" transform="translate(281.000000, 440.000000)">
                <g id="logo-resources-small" transform="translate(900.000000, 300.000000)" sketch:type="MSShapeGroup">
                    <rect id="Rectangle-8" fill="#455A64" x="0" y="0" width="280" height="280"></rect>
                    <g id="inner" transform="translate(60.000000, 61.000000)">
                        <g id="Group">
                            <path d="M59.8373877,83.9362115 C65.4709692,87.4907489 72.9372555,85.8340088 76.5140088,80.2350661 C80.0904075,74.6361233 78.4233128,67.2162115 72.7897313,63.6620264 C67.1561498,60.107489 59.6895088,61.7649339 56.1127555,67.3635242 C52.5363568,72.9617621 54.2041608,80.3820264 59.8373877,83.9362115" id="Fill-93" fill="#FFFFFF"></path>
                            <path d="M75.5735419,139.954185 C76.4363458,139.954185 77.3080154,139.700441 78.0697511,139.171806 C80.0521079,137.800881 80.5393634,135.090749 79.1588062,133.124229 L66.9869934,115.756476 L58.7806035,102.06837 C58.9947974,101.862203 59.1767203,101.619383 59.3366564,101.334978 L70.3623194,117.847753 L80.5375903,130.960352 C81.0542797,130.780617 81.5461454,130.502203 81.9819802,130.121586 C83.7944714,128.535683 83.9685925,125.786784 82.3717137,123.986256 L70.3201189,110.396476 L60.4239383,91.3000881 C59.2880727,87.0354185 55.766641,83.5901322 51.108989,82.7587665 C44.3785507,81.5573568 34.5586145,82.5240529 27.1898502,88.8419383 C22.7304339,92.6646696 17.4986432,99.9182379 17.8951145,112.764405 C18.034837,117.328987 19.1441057,120.777093 24.4368921,132.292511 L4.86262555,131.337445 C2.45223568,131.154185 0.350015419,132.940969 0.162773128,135.333921 C-0.024469163,137.726872 1.77561013,139.81674 4.18387225,140.003524 L32.7326476,142.445815 C32.8464824,142.452863 32.9596079,142.459912 33.0727335,142.459912 C34.4610925,142.459912 35.5657511,141.878414 36.3930925,140.754185 C37.2874581,139.538326 37.3005793,138.086344 37.1243304,136.475771 L36.2586894,123.543965 L45.2626322,119.029427 L47.014837,139.073128 C47.1020749,141.41674 49.0418767,143.259912 51.3831145,143.259912 C51.4373722,143.259912 51.4919846,143.256388 51.5469515,143.256388 C53.9608877,143.168282 55.8457225,141.152423 55.7567115,138.752423 L54.7318436,111.192247 C54.6804229,109.811806 53.9715264,108.537093 52.822185,107.76 C51.6731982,106.981498 50.2199427,106.793656 48.9092467,107.252511 L41.5227511,109.836476 C41.6943899,108.003524 42.1603678,106.954714 42.5926564,106.583965 C43.3164471,105.964053 47.802815,104.610044 50.9699758,103.945374 L51.3412687,103.971454 C52.652674,103.512247 53.954859,104.335859 55.1045551,105.114009 C56.2538965,105.891101 57.338696,107.151013 57.3897621,108.531454 L57.9110617,116.634361 L71.981185,138.089868 C72.8312225,139.305727 74.1912115,139.954185 75.5735419,139.954185" id="Fill-95" fill="#FFFFFF"></path>
                            <path d="M153.497896,125.568282 L144.745738,139.559471 L122.749379,139.559471 L154.04402,95.7568282 C151.973007,104.49022 150.092782,112.14696 149.551623,113.857974 C149.006919,114.956828 148.943795,116.237533 149.426795,117.414626 C149.853055,118.452863 151.026156,120.189604 154.093313,120.189604 C154.348289,120.189604 154.644756,120.200529 154.969593,120.184317 L153.497896,125.568282 L153.497896,125.568282 Z M114.6703,115.760352 L114.789808,115.65533 L114.832718,115.67859 L114.81676,115.631718 L146.991936,87.2662555 L146.941579,87.2098678 L155.439117,79.6771806 L156.156879,85.2986784 L120.743262,134.812335 L114.6703,115.760352 L114.6703,115.760352 Z M99.6529714,139.559471 L97.5769934,128.521586 L92.8618921,103.714537 L109.083174,112.598767 L117.666176,139.559471 L99.6529714,139.559471 L99.6529714,139.559471 Z M88.9400881,139.559471 L91.5316916,134.526872 L95.0226256,139.559471 L88.9400881,139.559471 L88.9400881,139.559471 Z M93.8112247,82.2977974 L97.9660176,84.3686344 L99.5487115,85.1598238 L107.010742,106.480705 L92.0476718,98.317533 L93.8112247,82.2977974 L93.8112247,82.2977974 Z M103.960253,82.1092511 L110.784313,65.18837 L134.507698,92.4965639 L113.271656,111.217621 L103.491438,83.2725991 L103.960253,82.1092511 L103.960253,82.1092511 Z M112.956394,51.6225551 L121.22839,54.7386784 L131.543029,82.4715419 L112.147139,60.1451982 C112.114513,60.107489 112.075504,60.08 112.040751,60.0451101 L112.956394,51.6225551 L112.956394,51.6225551 Z M125.344529,50.3918943 L126.776152,33.1876652 L134.164066,33.094978 L134.981833,79.2535683 L125.144165,52.8038767 L125.344529,50.3918943 L125.344529,50.3918943 Z M138.551493,30.7203524 L144.435086,19.1806167 L152.257416,51.8622026 L141.923273,85.9587665 L139.486996,88.1067841 L138.473476,30.873304 L138.551493,30.7203524 L138.551493,30.7203524 Z M154.093313,115.887225 C153.620597,115.887225 153.36633,115.832599 153.475555,115.726167 C154.002883,115.21304 160.685093,86.4454626 160.685093,86.4454626 L158.712665,70.9881938 L148.170002,80.3323348 L156.757969,51.9947137 L145.919194,6.70942731 L134.925802,28.2710132 C134.74778,28.4126872 134.591744,28.5800881 134.466562,28.7696916 L122.768529,28.9162996 L121.011359,50.0355947 L109.238145,45.6 L107.480621,61.7638767 L99.9242599,80.4986784 L90.171348,75.6088106 L87.5790352,99.1326872 L91.9732004,122.192423 L84.582804,116.607225 L87.6737203,132.246696 L83.739859,139.982379 L66.8745771,143.788546 L147.149035,143.788546 L157.517222,127.284581 L160.855667,115.298678 C160.855667,115.298678 155.894811,115.887225 154.093313,115.887225 L154.093313,115.887225 Z" id="Fill-96" fill="#FFFFFF"></path>
                            <path d="M55.7428811,22.8972687 L67.9856189,21.0699559 L75.1111101,25.1918943 L75.1111101,27.7511894 L68.8604802,31.5573568 L55.8659361,30.2822907 L55.4868414,33.8879295 L63.6989053,34.6970925 L57.4922489,38.5226432 L59.4125463,41.6014097 L65.1606718,38.0556828 L62.6045308,45.3920705 L66.0497181,46.5772687 L70.0736542,35.0248458 L76.9789229,30.7837885 L78.6573656,31.762467 L78.6573656,39.2849339 L70.8478018,49.3772687 L73.7525396,51.5820264 L78.6573656,45.2394714 L78.6573656,52.5099559 L82.5582467,52.5099559 L82.5582467,45.430837 L87.4673282,51.6218502 L90.37313,49.3374449 L82.5582467,39.6831718 L82.5582467,31.762467 L84.3561982,30.6019383 L90.7713744,34.4010573 L95.533641,46.1899559 L98.8933634,44.8306608 L95.8662797,37.4223789 L101.87009,40.9377974 L103.717335,37.814978 L97.8734604,34.3968282 L105.807143,33.2045815 L105.262438,29.6218502 L92.9952313,31.4808811 L86.1045022,27.3867841 L86.1045022,25.2694273 L92.6476982,21.1675771 L105.329108,22.4204405 L105.661392,18.8151542 L97.6450815,18.027489 L103.562718,14.3735683 L101.636747,11.2948018 L95.8740815,14.8479295 L98.4983106,7.31136564 L95.0524141,6.1261674 L90.9589714,17.8787665 L84.31187,22.0750661 L82.5582467,20.9406167 L82.5582467,13.744141 L90.329511,3.47735683 L87.5113018,1.27259912 L82.5582467,7.78889868 L82.5582467,0.351365639 L78.6573656,0.351365639 L78.6573656,7.25920705 L73.70963,1.23277533 L70.8907115,3.51718062 L78.6573656,13.0068722 L78.6573656,20.9406167 L76.7782048,22.0384141 L70.4098392,18.3214097 L65.5181344,6.329163 L62.1353612,7.68845815 L65.23337,15.3000881 L58.9416035,11.6200881 L57.0908128,14.7425551 L62.9222753,18.1543612 L55.197467,19.3145374 L55.7428811,22.8972687" id="Fill-97" fill="#00B0FF"></path>
                        </g>
                    </g>
                </g>
            </g>
        </g>
    </g>
</svg>