<?xml version="1.0" encoding="UTF-8" standalone="no"?>
<svg width="280px" height="240px" viewBox="0 0 280 240" version="1.1" xmlns="http://www.w3.org/2000/svg" xmlns:xlink="http://www.w3.org/1999/xlink" xmlns:sketch="http://www.bohemiancoding.com/sketch/ns">
    <!-- Generator: Sketch 3.4 (15575) - http://www.bohemiancoding.com/sketch -->
    <title>logo-understand-small</title>
    <desc>Created with Sketch.</desc>
    <defs></defs>
    <g id="Page-1" stroke="none" stroke-width="1" fill="none" fill-rule="evenodd" sketch:type="MSPage">
        <g id="Artboard-1-Copy" sketch:type="MSArtboardGroup" transform="translate(-581.000000, -440.000000)">
            <g id="Group-Copy" sketch:type="MSLayerGroup" transform="translate(281.000000, 440.000000)">
                <g id="logo-understand-small" transform="translate(300.000000, 0.000000)" sketch:type="MSShapeGroup">
                    <rect id="Rectangle-8" fill="#455A64" x="0" y="0" width="280" height="240"></rect>
                    <g id="inner" transform="translate(83.000000, 53.000000)">
                        <g id="Group">
                            <path d="M58.2996296,25.3304681 C65.303836,24.8720426 70.6070635,18.8422128 70.1496825,11.8630638 C69.6893122,4.88361702 63.6357407,-0.402425532 56.6315344,0.0565957447 C49.627328,0.515021277 44.3241005,6.54455319 44.7844709,13.5237021 C45.2448413,20.5028511 51.2954233,25.7894894 58.2996296,25.3304681" id="Fill-67" fill="#FFFFFF"></path>
                            <path d="M112.369233,46.8842128 C112.369233,46.8842128 112.411085,49.0872766 110.58754,50.6811915 C110.58754,50.6811915 111.965661,45.4684255 111.000079,42.8933191 C110.031508,40.3185106 109.227354,37.4863404 110.742989,37.508383 C110.742989,37.508383 108.151164,37.2358298 107.86418,39.9533191 C107.86418,39.9533191 104.925582,28.653234 99.8644974,28.2579574 C102.223148,35.9251915 97.9273545,37.9909362 97.9273545,37.9909362 C97.9273545,37.9909362 98.6208995,33.485617 94.8034127,33.0837872 C94.8034127,33.0837872 96.4117196,36.9078723 91.658545,39.3471489 C86.9920635,41.7417447 84.2417989,48.1844255 86.809709,52.5762553 C86.809709,52.5762553 85.5541534,52.7183404 84.4988889,50.9588085 C84.4988889,50.9588085 84.4630159,57.9034043 96.4057407,60.0793617 C94.5014815,59.0820851 91.0516931,56.5534468 90.1010582,53.288766 C89.1564021,50.0389787 89.835,46.0602979 94.8213492,43.4345532 C99.5775132,40.9321277 103.90918,38.6778298 103.221614,37.2462553 C103.221614,37.2462553 106.47709,41.8317021 105.388942,46.0245532 C105.388942,46.0245532 107.589153,45.122 108.465053,43.7771064 C108.465053,43.7771064 110.055423,50.6948936 106.028677,53.9997872 C106.028677,53.9997872 108.599577,53.8985106 109.463519,53.6754043 C109.463519,53.6754043 106.68336,59.7585532 100.15746,60.5497021 C113.780238,61.3649787 113.41254,48.4691915 112.369233,46.8842128" id="Fill-68" fill="#FFEA00"></path>
                            <path d="M3.89820106,54.667617 C4.77410053,54.8347234 7.34798942,54.7706809 7.34798942,54.7706809 C3.11497354,51.7311915 4.2539418,44.7258298 4.2539418,44.7258298 C5.21653439,46.0114468 7.47055556,46.7710213 7.47055556,46.7710213 C6.11037037,42.6568085 9.06391534,37.8714894 9.06391534,37.8714894 C8.46902116,39.3444681 12.9382011,41.3154894 17.8468254,43.5075319 C22.9946032,45.8071064 23.930291,49.7342553 23.1948942,53.0379574 C22.4594974,56.3568511 19.1801058,59.1017447 17.3446032,60.2193617 C29.1199206,57.2805532 28.6356349,50.3529362 28.6356349,50.3529362 C27.6969577,52.1765106 26.4354233,52.1154468 26.4354233,52.1154468 C28.7133598,47.5678298 25.5505556,41.3148936 20.740582,39.2253191 C15.8379365,37.0964255 17.1951323,33.1773191 17.1951323,33.1773191 C13.4105291,33.8231064 14.397037,38.2745106 14.397037,38.2745106 C14.397037,38.2745106 9.97568783,36.4893617 11.8321164,28.6862979 C6.80690476,29.4056596 4.60669312,40.8710638 4.60669312,40.8710638 C4.14333333,38.1777021 1.57542328,38.6161702 1.57542328,38.6161702 C3.08507937,38.4973191 2.46626984,41.3750638 1.66809524,44.006766 C0.869920635,46.6381702 2.58285714,51.7517447 2.58285714,51.7517447 C0.660661376,50.2781702 0.559021164,48.0774894 0.559021164,48.0774894 C-0.379656085,49.725617 0.0896825397,62.6184255 13.6287566,60.9297872 C7.06698413,60.5595319 3.89820106,54.667617 3.89820106,54.667617" id="Fill-69" fill="#FFEA00"></path>
                            <path d="M82.0356085,51.3454468 L80.2030952,50.4530213 L67.4113757,31.3442128 C63.4175132,26.749234 50.1355291,26.81 47.0175661,31.3442128 L34.228836,50.4530213 L31.532381,51.7636596 C29.7925397,58.2257021 23.2487037,63.0315745 15.4343651,63.0315745 C15.1533598,63.0315745 14.8753439,63.0250213 14.597328,63.0128085 C14.6421693,63.2350213 14.7049471,63.4563404 14.7916402,63.6740851 C15.3685979,65.1068511 16.7467196,65.9784255 18.208545,65.9784255 C18.6629365,65.9784255 19.1233069,65.8938298 19.5717196,65.7157021 L38.7578042,59.2608085 C39.5081481,58.9614468 40.1389153,58.4234894 40.551455,57.7303404 L44.6080952,50.5849787 C43.4511905,69.7515745 41.9295767,105.095319 44.3808995,122.246809 C44.6768519,124.317021 46.3240212,126.122128 49.0952116,125.782553 C51.8664021,125.445957 53.4956349,123.375745 53.2355556,121.097021 C51.6063228,106.82 53.7168519,87.4186809 56.042619,80.7844681 C56.5687566,79.2864681 59.5731217,79.3859574 60.1112169,80.7832766 C63.5819312,90.6261702 64.538545,104.442979 63.6626455,121.073191 C63.5430688,123.366809 65.0885979,125.383404 67.8,125.773617 C70.5114021,126.16383 72.2183598,124.317021 72.5173016,122.246809 C74.9476984,105.214468 71.991164,70.3720426 69.8357937,50.6013617 L73.8774868,57.7303404 C74.2900265,58.4234894 74.9207937,58.9614468 75.674127,59.2608085 L94.8572222,65.7157021 C95.3056349,65.8941277 95.7660053,65.9784255 96.2203968,65.9784255 C97.6792328,65.9784255 99.0603439,65.1068511 99.6373016,63.6740851 C99.7299735,63.4396596 99.7987302,63.2010638 99.8435714,62.9618723 C99.3144444,63.0068511 98.782328,63.0315745 98.2412434,63.0315745 C90.2624868,63.0315745 83.6020635,58.0180851 82.0356085,51.3454468" id="Fill-70" fill="#FFFFFF"></path>
                            <path d="M18.537381,17.7558723 C19.1203175,17.7558723 19.5896561,16.7502553 19.5896561,15.5099149 C19.5896561,14.2692766 19.1203175,13.2636596 18.537381,13.2636596 C17.9544444,13.2636596 17.4821164,14.2692766 17.4821164,15.5099149 C17.4821164,16.7502553 17.9544444,17.7558723 18.537381,17.7558723" id="Fill-71" fill="#FFEA00"></path>
                            <path d="M30.9165608,19.1290638 C31.4965079,19.1290638 31.968836,18.1231489 31.968836,16.8828085 C31.968836,15.6424681 31.4965079,14.6368511 30.9165608,14.6368511 C30.3336243,14.6368511 29.8612963,15.6424681 29.8612963,16.8828085 C29.8612963,18.1231489 30.3336243,19.1290638 30.9165608,19.1290638" id="Fill-72" fill="#FFEA00"></path>
                            <path d="M21.141164,12.3030213 C21.5208201,12.3030213 21.8287302,11.8386383 21.8287302,11.2661277 C21.8287302,10.6939149 21.5208201,10.2295319 21.141164,10.2295319 C20.7615079,10.2295319 20.4565873,10.6939149 20.4565873,11.2661277 C20.4565873,11.8386383 20.7615079,12.3030213 21.141164,12.3030213" id="Fill-73" fill="#FFEA00"></path>
                            <path d="M35.0748413,43.2754894 L36.9432275,41.0337021 C32.6145503,34.7563404 36.6652116,28.7860851 37.3766931,30.3234043 C38.2047619,32.1091489 38.0672487,34.9585957 40.9610053,30.8378298 C43.8547619,26.7170638 42.0551323,16.8107234 42.482619,17.0975745 C41.9505026,15.698766 41.445291,11.2726809 41.4512698,11.0641702 C39.6875132,9.52655319 35.2811111,9.13782979 35.2811111,9.13782979 C41.7591799,17.3790638 38.8803704,30.1565957 38.1898148,26.8600426 C37.5022487,23.5634894 33.9239153,21.2338298 33.9239153,21.2338298 C33.9239153,21.2338298 35.9985714,24.6793191 32.5517725,31.2727234 C30.1363228,35.8933191 33.0898677,40.7694894 35.0748413,43.2754894" id="Fill-74" fill="#FFEA00"></path>
                            <path d="M93.589709,28.1814043 C94.1337831,28.1814043 94.5732275,27.1757872 94.5732275,25.9354468 C94.5732275,24.6948085 94.1337831,23.6891915 93.589709,23.6891915 C93.0456349,23.6891915 92.6061905,24.6948085 92.6061905,25.9354468 C92.6061905,27.1757872 93.0456349,28.1814043 93.589709,28.1814043" id="Fill-75" fill="#FFEA00"></path>
                            <path d="M82.289709,19.1290638 C82.8337831,19.1290638 83.2732275,18.1231489 83.2732275,16.8828085 C83.2732275,15.6424681 82.8337831,14.6368511 82.289709,14.6368511 C81.7486243,14.6368511 81.3091799,15.6424681 81.3091799,16.8828085 C81.3091799,18.1231489 81.7486243,19.1290638 82.289709,19.1290638" id="Fill-76" fill="#FFEA00"></path>
                            <path d="M91.1623016,22.7285532 C91.5150529,22.7285532 91.7990476,22.2641702 91.7990476,21.6916596 C91.7990476,21.1194468 91.5150529,20.6550638 91.1623016,20.6550638 C90.8065608,20.6550638 90.5225661,21.1194468 90.5225661,21.6916596 C90.5225661,22.2641702 90.8065608,22.7285532 91.1623016,22.7285532" id="Fill-77" fill="#FFEA00"></path>
                            <path d="M70.3439947,30.3168511 C70.7445767,29.7029362 71.3574074,28.8486383 71.7968519,28.618383 C72.5053439,28.2484255 73.0015873,27.4855745 73.0015873,27.4855745 C73.0015873,27.4855745 73.4260847,34.0202979 75.8654497,36.0595319 C78.3018254,38.0990638 77.7457937,36.3845106 77.9520635,35.1605532 C78.1463757,34.022383 81.5483333,39.3790213 78.899709,44.5313191 C79.4019312,44.9221277 79.8802381,45.285234 80.3256614,45.6331489 C80.795,44.7949362 83.8113228,38.9578298 81.0371429,34.9517447 C78.3616138,31.0922128 78.5409788,29.0565532 78.5409788,29.0565532 C78.5409788,29.0565532 76.4244709,30.3740426 76.5500265,32.496383 C76.6785714,34.6184255 74.3258995,21.6076596 73.9641799,20.0521702 C73.6054497,18.496383 72.8282011,23.0973191 71.2019577,25.676 C70.0420635,27.5180426 69.4501587,28.2645106 69.3006878,28.4453191 C69.6145767,28.9901277 69.9643386,29.6174468 70.3439947,30.3168511" id="Fill-78" fill="#FFEA00"></path>
                        </g>
                    </g>
                </g>
            </g>
        </g>
    </g>
</svg>