<?xml version="1.0" encoding="UTF-8" standalone="no"?>
<svg width="280px" height="280px" viewBox="0 0 280 280" version="1.1" xmlns="http://www.w3.org/2000/svg" xmlns:xlink="http://www.w3.org/1999/xlink" xmlns:sketch="http://www.bohemiancoding.com/sketch/ns">
    <!-- Generator: Sketch 3.4 (15575) - http://www.bohemiancoding.com/sketch -->
    <title>logo-organize-small</title>
    <desc>Created with Sketch.</desc>
    <defs></defs>
    <g id="Page-1" stroke="none" stroke-width="1" fill="none" fill-rule="evenodd" sketch:type="MSPage">
        <g id="Artboard-1-Copy" sketch:type="MSArtboardGroup" transform="translate(-1181.000000, -440.000000)">
            <g id="Group-Copy" sketch:type="MSLayerGroup" transform="translate(281.000000, 440.000000)">
                <g id="logo-organize-small" transform="translate(900.000000, 0.000000)" sketch:type="MSShapeGroup">
                    <rect id="Rectangle-8" fill="#455A64" x="0" y="0" width="280" height="280"></rect>
                    <g id="inner" transform="translate(66.000000, 76.000000)">
                        <g id="Group">
                            <path d="M112.919709,25.4126138 C119.870503,25.4126138 125.509392,19.7377725 125.509392,12.7377844 C125.509392,5.73741018 119.870503,0.0625688623 112.919709,0.0625688623 C105.965079,0.0625688623 100.330026,5.73741018 100.330026,12.7377844 C100.330026,19.7377725 105.965079,25.4126138 112.919709,25.4126138" id="Fill-45" fill="#FFFFFF"></path>
                            <path d="M144.92328,62.6866617 C143.830026,46.2461138 136.507143,37.7039192 130.55754,33.433015 C125.916005,30.0998713 121.435582,28.8067814 119.034259,28.3197485 C117.120106,27.7543114 109.451984,27.9080299 106.394709,28.9122216 C103.859127,29.7194371 95.7613757,32.2055838 87.9781746,33.5871198 C84.3723545,34.227485 79.3318783,33.5342066 75.1353175,32.9158563 C74.2223545,32.6424072 73.3592593,32.4419551 72.7723545,32.4419551 L60.8846561,32.4419551 C60.8846561,32.4419551 60.0982804,32.6014671 60.1289683,33.3916886 C60.1558201,34.1822964 60.9997354,34.2796257 60.9997354,34.2796257 L67.8623016,35.0992006 C67.6628307,35.5155539 67.5208995,35.9697575 67.4556878,36.4525419 C67.1027778,38.9618623 68.8404762,41.2827036 71.3300265,41.6361018 C71.9322751,41.7210719 72.5498677,41.8126078 73.1866402,41.9064611 C76.6466931,42.4185988 80.7013228,43.0176377 84.6140212,43.0176377 C86.3095238,43.0176377 87.9781746,42.9048593 89.5624339,42.6236856 C92.8728836,42.0362335 96.6589947,41.7454042 100.249471,41.6025 L100.610053,124.072509 C100.579365,126.606548 101.918122,128.998841 105.109656,128.998841 C108.30119,128.998841 109.689815,126.577967 109.724339,124.064012 L112.290608,81.1066257 L114.488624,81.1066257 L116.855423,124.064012 C116.870767,126.591099 118.97672,128.994593 121.412566,128.994593 C123.848413,128.994593 125.981217,126.604231 125.969709,124.070578 L125.467196,43.7460629 C125.467196,43.5317066 125.467196,43.3254611 125.46336,43.1246228 C130.135582,45.5775539 135.014947,51.0639162 135.832011,63.3015359 C135.993122,65.7251138 137.995503,67.5820958 140.37381,67.5820958 C140.477381,67.5820958 140.580952,67.579006 140.684524,67.5720539 C143.193254,67.4021138 145.092063,65.2152934 144.92328,62.6866617" id="Fill-46" fill="#FFFFFF"></path>
                            <path d="M36.2691799,18.9483234 L21.5198413,12.1534222 L19.6095238,13.4426497 L18.4165344,14.249479 L12.8121693,18.0333503 L22.294709,28.3865659 L36.2691799,18.9483234" id="Fill-47" fill="#FF5722"></path>
                            <path d="M9.18333333,20.4843503 L0.299206349,26.484009 L1.00119048,42.7662036 L14.8797619,33.394006 L9.18333333,20.4843503" id="Fill-48" fill="#FF5722"></path>
                            <path d="M37.6347884,21.1046317 L23.7830688,30.4594491 L27.9412698,36.705521 L20.4227513,41.7840269 L16.2607143,35.5379551 L2.40899471,44.8927725 L14.2621693,62.6866617 C14.8874339,63.6267395 16.0957672,63.7711886 17.031746,63.1408653 L48.9892857,41.560015 C49.9214286,40.9300778 50.1132275,39.838985 49.487963,38.898521 L37.6347884,21.1046317" id="Fill-49" fill="#FF5722"></path>
                            <path d="M23.7677249,121.285105 C12.3902116,121.285105 3.16468254,122.654281 3.16468254,124.343641 C3.16468254,126.033 12.3902116,127.402563 23.7677249,127.402563 C35.1490741,127.402563 44.3746032,126.033 44.3746032,124.343641 C44.3746032,122.654281 35.1490741,121.285105 23.7677249,121.285105" id="Fill-50" fill="#FFFFFF"></path>
                            <path d="M39.0502646,78.7293952 L39.0502646,59.5790749 C39.0502646,57.9267934 37.8150794,56.5869701 36.1732804,56.5869701 C34.5314815,56.5869701 33.2962963,57.9267934 33.2962963,59.5790749 L33.2962963,78.7293952 C33.2962963,80.3820629 34.5314815,81.7215 36.1732804,81.7215 C37.8150794,81.7215 39.0502646,80.3820629 39.0502646,78.7293952" id="Fill-51" fill="#FFFFFF"></path>
                            <path d="M27.542328,105.85879 L27.542328,67.5585359 C27.542328,65.9058683 26.3071429,64.5664311 24.6653439,64.5664311 C23.023545,64.5664311 21.7883598,65.9058683 21.7883598,67.5585359 L21.7883598,105.85879 C21.7883598,107.511458 23.023545,108.851281 24.6653439,108.851281 C26.3071429,108.851281 27.542328,107.511458 27.542328,105.85879" id="Fill-52" fill="#FFFFFF"></path>
                        </g>
                    </g>
                </g>
            </g>
        </g>
    </g>
</svg>