<?xml version="1.0" encoding="UTF-8" standalone="no"?>
<svg width="280px" height="280px" viewBox="0 0 280 280" version="1.1" xmlns="http://www.w3.org/2000/svg" xmlns:xlink="http://www.w3.org/1999/xlink" xmlns:sketch="http://www.bohemiancoding.com/sketch/ns">
    <!-- Generator: Sketch 3.4 (15575) - http://www.bohemiancoding.com/sketch -->
    <title>logo-secure</title>
    <desc>Created with Sketch.</desc>
    <defs>
        <linearGradient x1="0%" y1="0%" x2="100%" y2="100%" id="linearGradient-1">
            <stop stop-color="#455A64" offset="0%"></stop>
            <stop stop-color="#3B4C55" offset="100%"></stop>
        </linearGradient>
    </defs>
    <g id="Page-1" stroke="none" stroke-width="1" fill="none" fill-rule="evenodd" sketch:type="MSPage">
        <g id="Artboard-1-Copy" sketch:type="MSArtboardGroup" transform="translate(-881.000000, -1906.000000)">
            <g id="Group" sketch:type="MSLayerGroup" transform="translate(281.000000, 1906.000000)">
                <g id="logo-secure" transform="translate(600.000000, 0.000000)" sketch:type="MSShapeGroup">
                    <rect id="Rectangle-8" fill="url(#linearGradient-1)" x="0" y="0" width="280" height="280"></rect>
                    <g id="inner" transform="translate(54.000000, 39.000000)">
                        <path d="M37.085,175.06 C37.0116663,175.180001 36.9350004,175.268333 36.855,175.325 C36.7749996,175.381667 36.6750006,175.41 36.555,175.41 C36.4283327,175.41 36.2866674,175.356667 36.13,175.25 C35.9733325,175.143333 35.7800011,175.025001 35.55,174.895 C35.3199988,174.764999 35.0483349,174.645001 34.735,174.535 C34.4216651,174.424999 34.0483355,174.37 33.615,174.37 C33.214998,174.37 32.8633348,174.42 32.56,174.52 C32.2566651,174.620001 32.0016677,174.759999 31.795,174.94 C31.5883323,175.120001 31.4333338,175.331665 31.33,175.575 C31.2266661,175.818335 31.175,176.083332 31.175,176.37 C31.175,176.736669 31.2716657,177.041665 31.465,177.285 C31.6583343,177.528335 31.9133317,177.736666 32.23,177.91 C32.5466682,178.083334 32.9083313,178.234999 33.315,178.365 C33.7216687,178.495001 34.1366645,178.633333 34.56,178.78 C34.9833354,178.926667 35.3983313,179.093332 35.805,179.28 C36.2116687,179.466668 36.5733317,179.703332 36.89,179.99 C37.2066682,180.276668 37.4616657,180.626665 37.655,181.04 C37.8483343,181.453335 37.945,181.956664 37.945,182.55 C37.945,183.190003 37.8350011,183.789997 37.615,184.35 C37.3949989,184.910003 37.0766687,185.398331 36.66,185.815 C36.2433312,186.231669 35.730003,186.559999 35.12,186.8 C34.5099969,187.040001 33.8150039,187.16 33.035,187.16 C32.5749977,187.16 32.1266688,187.115 31.69,187.025 C31.2533311,186.935 30.8366686,186.808334 30.44,186.645 C30.0433313,186.481666 29.6716684,186.283335 29.325,186.05 C28.9783316,185.816666 28.6683347,185.556668 28.395,185.27 L29.075,184.15 C29.1350003,184.056666 29.2116662,183.983334 29.305,183.93 C29.3983338,183.876666 29.5016661,183.85 29.615,183.85 C29.7683341,183.85 29.9383324,183.921666 30.125,184.065 C30.3116676,184.208334 30.5366653,184.364999 30.8,184.535 C31.0633346,184.705001 31.3816648,184.861666 31.755,185.005 C32.1283352,185.148334 32.5749974,185.22 33.095,185.22 C33.9416709,185.22 34.5966643,185.013335 35.06,184.6 C35.5233356,184.186665 35.755,183.61667 35.755,182.89 C35.755,182.483331 35.6583343,182.151668 35.465,181.895 C35.2716657,181.638332 35.0166682,181.423334 34.7,181.25 C34.3833317,181.076666 34.0216687,180.930001 33.615,180.81 C33.2083313,180.689999 32.7950021,180.561667 32.375,180.425 C31.9549979,180.288333 31.5416687,180.128334 31.135,179.945 C30.7283313,179.761666 30.3666682,179.521668 30.05,179.225 C29.7333317,178.928332 29.4783343,178.561669 29.285,178.125 C29.0916657,177.688331 28.995,177.143337 28.995,176.49 C28.995,175.969997 29.0966656,175.466669 29.3,174.98 C29.5033343,174.493331 29.799998,174.061669 30.19,173.685 C30.5800019,173.308331 31.0616638,173.006668 31.635,172.78 C32.2083362,172.553332 32.861663,172.44 33.595,172.44 C34.4216708,172.44 35.1799965,172.569999 35.87,172.83 C36.5600034,173.090001 37.1549975,173.459998 37.655,173.94 L37.085,175.06 Z M52.445,172.6 L52.445,174.49 L45.815,174.49 L45.815,178.83 L51.115,178.83 L51.115,180.66 L45.815,180.66 L45.815,185.11 L52.455,185.11 L52.445,187 L43.465,187 L43.465,172.6 L52.445,172.6 Z M67.675,183.79 C67.8016673,183.79 67.9116662,183.84 68.005,183.94 L68.935,184.95 C68.3483304,185.65667 67.6283376,186.201665 66.775,186.585 C65.9216624,186.968335 64.9016726,187.16 63.715,187.16 C62.6616614,187.16 61.7100042,186.978335 60.86,186.615 C60.0099957,186.251665 59.285003,185.745003 58.685,185.095 C58.084997,184.444997 57.6233349,183.670005 57.3,182.77 C56.976665,181.869996 56.815,180.880005 56.815,179.8 C56.815,178.719995 56.9866649,177.728338 57.33,176.825 C57.673335,175.921662 58.1566635,175.145003 58.78,174.495 C59.4033364,173.844997 60.1499956,173.340002 61.02,172.98 C61.8900043,172.619998 62.8483281,172.44 63.895,172.44 C64.9350052,172.44 65.8533293,172.608332 66.65,172.945 C67.4466706,173.281668 68.1383304,173.729997 68.725,174.29 L67.955,175.38 C67.9016664,175.453334 67.8383337,175.516666 67.765,175.57 C67.6916663,175.623334 67.5916673,175.65 67.465,175.65 C67.331666,175.65 67.1800008,175.588334 67.01,175.465 C66.8399991,175.341666 66.6233346,175.205001 66.36,175.055 C66.0966653,174.904999 65.7666686,174.768334 65.37,174.645 C64.9733313,174.521666 64.4783363,174.46 63.885,174.46 C63.1983299,174.46 62.5683362,174.579999 61.995,174.82 C61.4216638,175.060001 60.9283354,175.409998 60.515,175.87 C60.1016646,176.330002 59.7800011,176.889997 59.55,177.55 C59.3199988,178.210003 59.205,178.959996 59.205,179.8 C59.205,180.646671 59.3249988,181.401663 59.565,182.065 C59.8050012,182.728337 60.1349979,183.288331 60.555,183.745 C60.9750021,184.201669 61.4683305,184.549999 62.035,184.79 C62.6016695,185.030001 63.2116634,185.15 63.865,185.15 C64.265002,185.15 64.6233317,185.128334 64.94,185.085 C65.2566682,185.041666 65.548332,184.971667 65.815,184.875 C66.081668,184.778333 66.3333321,184.656667 66.57,184.51 C66.8066678,184.363333 67.0416655,184.183334 67.275,183.97 C67.408334,183.849999 67.541666,183.79 67.675,183.79 L67.675,183.79 Z M79.645,185.11 C80.1983361,185.11 80.6933311,185.016668 81.13,184.83 C81.5666688,184.643332 81.9366651,184.383335 82.24,184.05 C82.5433348,183.716665 82.7749992,183.315002 82.935,182.845 C83.0950008,182.374998 83.175,181.853336 83.175,181.28 L83.175,172.6 L85.505,172.6 L85.505,181.28 C85.505,182.126671 85.3700013,182.909996 85.1,183.63 C84.8299986,184.350004 84.4416692,184.971664 83.935,185.495 C83.4283308,186.018336 82.8133369,186.428332 82.09,186.725 C81.366663,187.021668 80.5516712,187.17 79.645,187.17 C78.7383288,187.17 77.9233369,187.021668 77.2,186.725 C76.476663,186.428332 75.8616692,186.018336 75.355,185.495 C74.8483308,184.971664 74.4600013,184.350004 74.19,183.63 C73.9199986,182.909996 73.785,182.126671 73.785,181.28 L73.785,172.6 L76.125,172.6 L76.125,181.27 C76.125,181.843336 76.2049992,182.364998 76.365,182.835 C76.5250008,183.305002 76.7549985,183.708332 77.055,184.045 C77.3550015,184.381668 77.7233311,184.643332 78.16,184.83 C78.5966688,185.016668 79.0916639,185.11 79.645,185.11 L79.645,185.11 Z M94.095,181.2 L94.095,187 L91.755,187 L91.755,172.6 L95.995,172.6 C96.9416714,172.6 97.7566632,172.696666 98.44,172.89 C99.1233367,173.083334 99.6849978,173.358332 100.125,173.715 C100.565002,174.071668 100.889999,174.499998 101.1,175 C101.310001,175.500003 101.415,176.056664 101.415,176.67 C101.415,177.170003 101.340001,177.636665 101.19,178.07 C101.039999,178.503336 100.823335,178.896665 100.54,179.25 C100.256665,179.603335 99.9066687,179.909999 99.49,180.17 C99.0733312,180.430001 98.6016693,180.633333 98.075,180.78 C98.3683348,180.953334 98.6183323,181.196665 98.825,181.51 L102.715,187 L100.625,187 C100.211665,187 99.9116676,186.840002 99.725,186.52 L96.365,181.67 C96.2516661,181.503333 96.128334,181.383334 95.995,181.31 C95.861666,181.236666 95.661668,181.2 95.395,181.2 L94.095,181.2 Z M94.095,179.5 L95.935,179.5 C96.468336,179.5 96.934998,179.435001 97.335,179.305 C97.735002,179.174999 98.068332,178.993335 98.335,178.76 C98.601668,178.526666 98.801666,178.248335 98.935,177.925 C99.068334,177.601665 99.135,177.243335 99.135,176.85 C99.135,176.063329 98.8750026,175.463335 98.355,175.05 C97.8349974,174.636665 97.0483386,174.43 95.995,174.43 L94.095,174.43 L94.095,179.5 Z M109.805,187 L107.455,187 L107.455,172.6 L109.805,172.6 L109.805,187 Z M126.135,172.6 L126.135,174.55 L121.645,174.55 L121.645,187 L119.315,187 L119.315,174.55 L114.815,174.55 L114.815,172.6 L126.135,172.6 Z M136.955,181.36 L136.955,187 L134.625,187 L134.625,181.36 L129.365,172.6 L131.415,172.6 C131.621668,172.6 131.784999,172.65 131.905,172.75 C132.025001,172.850001 132.125,172.976666 132.205,173.13 L135.155,178.29 C135.288334,178.550001 135.409999,178.796666 135.52,179.03 C135.630001,179.263335 135.725,179.493332 135.805,179.72 C135.885,179.486666 135.978333,179.255001 136.085,179.025 C136.191667,178.794999 136.311666,178.550001 136.445,178.29 L139.375,173.13 C139.441667,172.996666 139.538333,172.875001 139.665,172.765 C139.791667,172.654999 139.954999,172.6 140.155,172.6 L142.215,172.6 L136.955,181.36 Z" id="SECURITY" fill="#FFFFFF"></path>
                        <g id="Group">
                            <path d="M86.4148498,72.596232 C91.662897,72.2538747 95.6395279,67.7465708 95.2940343,62.5294849 C94.9485408,57.3123991 90.4122103,53.3610394 85.1641631,53.7040835 C79.9161159,54.0471276 75.939485,58.5540882 76.2849785,63.771174 C76.6304721,68.9879165 81.1668026,72.9396195 86.4148498,72.596232" id="Fill-26" fill="#FFFFFF"></path>
                            <path d="M115.467403,73.5007146 C115.073541,73.8430719 106.712597,80.8203619 91.2932189,75.5878237 C86.6428755,74.6411044 82.5902361,75.2145615 78.7794421,76.0926032 C64.3758155,80.3423666 56.5745708,73.8310534 56.1945279,73.5007146 C54.9092918,72.3692529 52.9468884,72.4763898 51.7963948,73.7448631 C50.6424464,75.0195174 50.7460944,76.983007 52.0278755,78.1306079 C52.3837339,78.4485847 58.4713305,83.7401856 69.4407511,83.7401856 C71.6622747,83.7401856 74.0841845,84.1436659 76.7030258,84.2696891 C76.043133,93.487239 73.6903219,129.016167 75.9843991,145.040687 C76.205515,146.590051 77.438927,147.937847 79.5187983,147.685457 C81.5952146,147.433067 82.4140343,145.879239 82.1687339,144.181531 C80.3859871,131.732362 82.1307296,121.42078 84.7253863,114.048594 C85.115794,112.928807 87.368412,113.003323 87.7726395,114.047564 C90.3707511,121.404984 92.6682833,131.695963 90.8820815,144.165049 C90.6367811,145.8631 91.500515,147.386023 93.5354721,147.677216 C95.5669742,147.968408 96.8453004,146.590051 97.0698712,145.040687 C99.3086695,129.390116 95.4425966,95.2962042 94.0986266,84.3012807 C97.0456867,84.2370673 99.7578112,83.7401856 102.22118,83.7401856 C113.190601,83.7401856 119.278197,78.4485847 119.634056,78.1306079 C120.915837,76.983007 121.019485,75.0195174 119.865536,73.7448631 C118.715043,72.4763898 116.752639,72.3692529 115.467403,73.5007146" id="Fill-27" fill="#FFFFFF"></path>
                            <path d="M85.7411373,32.4841114 C53.2336481,32.4841114 26.8793991,58.6756473 26.8793991,90.9849745 C26.8793991,103.766543 31.0080472,115.588687 38.0042918,125.212464 C32.9082618,116.294691 29.9750215,105.834079 29.9750215,94.6468585 C29.9750215,62.0130302 54.9403863,35.558116 85.7411373,35.558116 C116.538433,35.558116 141.507253,62.0130302 141.507253,94.6468585 C141.507253,105.834079 138.570558,116.295035 133.474528,125.213151 C140.470773,115.588687 144.599421,103.766543 144.599421,90.9849745 C144.599421,58.6756473 118.248627,32.4841114 85.7411373,32.4841114" id="Fill-28" fill="#00E676"></path>
                            <path d="M148.417124,33.8198886 L125.953133,39.9363063 L128.305944,14.963109 C128.368133,14.3024316 127.877532,13.7162691 127.214185,13.6544594 C126.554292,13.592993 125.960043,14.0781995 125.897854,14.738877 L123.382661,41.4427471 C123.344657,41.8355824 123.503584,42.2215499 123.807618,42.4753132 C124.028734,42.6593689 124.305129,42.7565476 124.584979,42.7565476 C124.692082,42.7565476 124.799185,42.7424687 124.902833,42.7139675 L149.056288,36.1380974 C149.702361,35.9629698 150.082403,35.3016056 149.902747,34.6615313 C149.726545,34.0214571 149.063197,33.6437309 148.417124,33.8198886" id="Fill-29" fill="#FFFFFF"></path>
                            <path d="M54.1699356,19.2200835 L86.2559227,29.6068677 C86.3768455,29.6467007 86.5046781,29.6659304 86.6290558,29.6659304 C86.8432618,29.6659304 87.0540129,29.6103016 87.2405794,29.5014478 C87.5377039,29.3283805 87.7484549,29.0365012 87.8175536,28.6999814 L93.2901717,1.50850116 C93.4214592,0.857438515 92.9965021,0.224575406 92.3400644,0.0940881671 C91.6870815,-0.0360556845 91.0479185,0.386310905 90.9166309,1.03703016 L85.7100429,26.9026914 L54.9196567,16.9344965 C54.2839485,16.7291508 53.6033262,17.0735684 53.39603,17.705058 C53.1887339,18.3362042 53.5376824,19.0143944 54.1699356,19.2200835" id="Fill-30" fill="#FFFFFF"></path>
                            <path d="M47.3222532,17.7575963 L50.445515,18.827935 C51.4509013,19.1723527 52.8363305,15.178413 51.8343991,14.8339954 L48.7111373,13.7633132 C47.6953863,13.4151183 44.7448712,13.391768 44.3959227,14.4009838 L44.3060944,14.6571508 C43.953691,15.66671 46.3099571,17.409058 47.3222532,17.7575963" id="Fill-31" fill="#FFFFFF"></path>
                            <path d="M159.960064,32.3299304 L159.890966,32.0675824 C159.624936,31.0332993 156.69515,30.8691601 155.655215,31.1352854 L152.455944,31.9532343 C151.426373,32.2162691 152.483584,36.3080742 153.513155,36.0450394 L156.712425,35.2270905 C157.752361,34.9609652 160.226094,33.3638701 159.960064,32.3299304" id="Fill-32" fill="#FFFFFF"></path>
                            <path d="M149.574528,64.3157865 L142.111867,60.6899582 L160.46794,43.4786914 C160.955086,43.023703 160.975815,42.2627564 160.519764,41.7799536 C160.063712,41.3002413 159.296717,41.275174 158.809571,41.7305058 L139.178627,60.1340139 C138.891867,60.4049466 138.75367,60.7991555 138.812403,61.1892436 C138.857318,61.4721949 138.99897,61.726645 139.209721,61.9110441 C139.292639,61.9807517 139.382468,62.0408445 139.479206,62.0885754 L148.513863,66.4763805 C149.111567,66.7672297 149.837103,66.5196473 150.130773,65.9228399 C150.420987,65.3263759 150.175687,64.6062923 149.574528,64.3157865" id="Fill-33" fill="#FFFFFF"></path>
                            <path d="M159.231073,70.7711276 L159.355451,70.5293828 C159.839142,69.576826 157.748906,67.5309234 156.791888,67.0477773 L153.844828,65.5629698 C152.898176,65.0849745 150.973777,68.8529652 151.920429,69.3309606 L154.867489,70.815768 C155.824506,71.2985708 158.743927,71.7229977 159.231073,70.7711276" id="Fill-34" fill="#FFFFFF"></path>
                            <path d="M29.4395064,64.4933179 C29.6606223,64.1660696 29.7055365,63.7512575 29.5604292,63.3834896 L20.4566738,40.196594 C20.2113734,39.5784965 19.5100215,39.2708213 18.888133,39.5129095 C18.2662446,39.7539675 17.9587554,40.448297 18.2006009,41.0663944 L26.672103,62.6283805 L1.43725322,62.9041206 C0.770450644,62.9120186 0.234935622,63.4343109 0.241845494,64.0980789 C0.2522103,64.7570394 0.791180258,65.2425893 1.45107296,65.2425893 L1.4648927,65.2425893 L28.4479399,64.9795545 C28.8452575,64.9747471 29.2149356,64.8202227 29.4395064,64.4933179" id="Fill-35" fill="#FFFFFF"></path>
                            <path d="M15.9134335,37.2774571 C16.2831116,38.2674432 20.2666524,36.7922506 19.8969742,35.8026079 L18.7430258,32.7261995 C18.3664378,31.7259118 16.5111373,29.447536 15.5022961,29.819768 L15.2500858,29.9145429 C14.2412446,30.2874617 14.382897,33.200761 14.759485,34.2010487 L15.9134335,37.2774571" id="Fill-36" fill="#FFFFFF"></path>
                        </g>
                    </g>
                </g>
            </g>
        </g>
    </g>
</svg>