<?xml version="1.0" encoding="UTF-8" standalone="no"?>
<svg width="280px" height="280px" viewBox="0 0 280 280" version="1.1" xmlns="http://www.w3.org/2000/svg" xmlns:xlink="http://www.w3.org/1999/xlink" xmlns:sketch="http://www.bohemiancoding.com/sketch/ns">
    <!-- Generator: Sketch 3.4 (15575) - http://www.bohemiancoding.com/sketch -->
    <title>logo-tools</title>
    <desc>Created with Sketch.</desc>
    <defs>
        <linearGradient x1="0%" y1="0%" x2="100%" y2="100%" id="linearGradient-1">
            <stop stop-color="#455A64" offset="0%"></stop>
            <stop stop-color="#3B4C55" offset="100%"></stop>
        </linearGradient>
    </defs>
    <g id="Page-1" stroke="none" stroke-width="1" fill="none" fill-rule="evenodd" sketch:type="MSPage">
        <g id="Artboard-1-Copy" sketch:type="MSArtboardGroup" transform="translate(-281.000000, -2206.000000)">
            <g id="Group" sketch:type="MSLayerGroup" transform="translate(281.000000, 1906.000000)">
                <g id="logo-tools" transform="translate(0.000000, 300.000000)" sketch:type="MSShapeGroup">
                    <rect id="Rectangle-8" fill="url(#linearGradient-1)" x="0" y="0" width="280" height="280"></rect>
                    <g id="inner" transform="translate(83.000000, 41.000000)">
                        <g id="Group">
                            <path d="M55.4143326,37.0303063 C61.1730853,37.0303063 65.8421225,41.6990153 65.8421225,47.4580963 C65.8421225,53.216849 61.1730853,57.885558 55.4143326,57.885558 C49.6549234,57.885558 44.9868709,53.216849 44.9868709,47.4580963 C44.9868709,41.6990153 49.6549234,37.0303063 55.4143326,37.0303063" id="Fill-98" fill="#FFFFFF"></path>
                            <path d="M30.1326039,63.6751641 C25.0598468,61.1530635 22.5055799,57.4847921 20.933698,51.0551422 C19.8426696,46.5912473 20.1574398,42.611488 20.1712254,42.4440919 C20.3442013,40.3667396 22.1652079,38.8253829 24.2461707,38.995733 C26.3238512,39.1693654 27.8675055,40.993326 27.6945295,43.0710066 C27.6919037,43.0998906 27.4772429,46.0316193 28.2669584,49.2626915 C29.2152079,53.140372 31.1435449,55.6115974 33.999453,56.6080963 C40.4107221,58.8446389 45.7266958,59.6067834 47.6261488,59.8247265 C50.9356674,60.3626915 56.8388403,61.4287746 60.9351204,65.4160832 C63.8386214,68.4600656 65.7003282,70.6010941 69.8671772,73.2961707 C71.3816193,74.27593 80.2135667,75.4017505 86.521116,74.9560175 C88.5974836,74.8122538 90.4060175,76.3739606 90.5540481,78.452954 C90.7017505,80.5326039 89.1357768,82.3381838 87.0561269,82.4858862 C85.9017505,82.5679431 83.809628,82.6867615 81.3715536,82.6867615 C76.7025164,82.6867615 68.7974836,82.2512035 65.7672867,80.2916849 C64.2738512,79.3253829 62.9084245,78.4939825 61.664442,77.7728665 C61.6362144,83.3291028 61.9152079,145.601751 61.9152079,145.601751 C61.9424508,147.685996 60.4391685,149.671772 58.1399344,149.671772 C55.8407002,149.671772 54.3938731,147.925602 54.3666302,145.857768 L51.7276805,105.010832 C51.5218818,105.023304 51.3154267,105.031838 51.106674,105.031838 C51.0426696,105.031838 50.9780088,105.034792 50.9133479,105.036433 L48.4582057,146.159737 C48.4483589,148.237418 46.8177243,150 44.6661926,150 C42.5146608,150 40.8991247,148.250547 40.9089716,146.166302 C40.9089716,146.166302 41.3359956,74.1449672 41.3258206,70.3371991 C37.8768053,68.0750547 33.6423414,65.4200219 30.1326039,63.6751641" id="Fill-99" fill="#FFFFFF"></path>
                            <path d="M23.5670678,29.1334792 L19.7438731,20.5726477 L19.4100656,10.9910284 L23.1672867,6.82122538 L24.0390591,3.15098468 L24.3925602,2.83326039 L28.9017505,6.44835886 L26.7367615,10.2722101 L30.0032823,8.44562363 L30.4332604,15.3525164 L30.3170678,15.6236324 L26.9245077,17.3169584 L29.7915755,16.8551422 L23.5670678,29.1334792 L23.5670678,29.1334792 Z M23.3550328,35.2910284 L32.7479212,15.5917943 L32.1846827,6.53402626 L24.2944201,0.207768053 L13.5866521,9.84059081 L23.3550328,35.2910284 L23.3550328,35.2910284 Z" id="Fill-100" fill="#00E676"></path>
                            <path d="M89.6678337,28.6329322 L86.6067834,24.7230853 L84.8405908,15.3607221 L87.0850109,11.0533917 L90.0462801,7.91356674 L90.3295405,7.60634573 L93.9397155,11.0947484 L92.1206783,13.4189278 L94.8223195,13.0221007 L95.1659737,19.6864333 L95.0734136,19.9477024 L90.907221,18.2117068 L94.6522976,21.1362144 L89.6678337,28.6329322 L89.6678337,28.6329322 Z M89.4987965,34.5738512 L97.0198031,19.9171772 L96.5688184,11.1771335 L90.2507659,5.07374179 L81.676477,14.3678337 L89.4987965,34.5738512 L89.4987965,34.5738512 Z" id="Fill-101" fill="#00E676"></path>
                            <path d="M94.4770241,61.0431072 L91.9539387,51.9328228 L94.3250547,45.8343545 L98.3734136,41.2801969 L99.5061269,33.7808534 L105.939716,39.9971554 L102.697812,44.1387309 L107.511926,43.4310722 L108.124726,55.3073304 L107.960284,55.7730853 L100.14453,60.7621444 L104.922538,61.331291 L98.3277899,71.2496718 L94.4770241,61.0431072 L94.4770241,61.0431072 Z M87.240919,46.8459519 L98.0254923,81.8363239 L111.428665,55.7182713 L110.624508,40.1442013 L99.3656455,29.2664114 L87.240919,46.8459519 L87.240919,46.8459519 Z" id="Fill-102" fill="#00E676"></path>
                            <path d="M108.250766,77.5752735 L109.72779,76.4222101 L111.204814,77.5752735 L111.204814,81.2934354 L109.72779,82.4461707 L108.250766,81.2934354 L108.250766,77.5752735 L108.250766,77.5752735 Z M109.72779,73.4924508 L105.953173,76.463895 L105.953173,82.4051422 L109.72779,85.37593 L113.502407,82.4051422 L113.502407,76.463895 L109.72779,73.4924508 L109.72779,73.4924508 Z" id="Fill-103" fill="#00E676"></path>
                            <path d="M76.0844639,38.1978118 L77.561488,37.0444201 L79.038512,38.1978118 L79.038512,41.9156455 L77.561488,43.068709 L76.0844639,41.9156455 L76.0844639,38.1978118 L76.0844639,38.1978118 Z M77.561488,34.1146608 L73.7868709,37.086105 L73.7868709,43.0276805 L77.561488,45.99814 L81.336105,43.0276805 L81.336105,37.086105 L77.561488,34.1146608 L77.561488,34.1146608 Z" id="Fill-104" fill="#00E676"></path>
                            <path d="M20.9422319,72.3236324 L22.419256,71.1705689 L23.8962801,72.3236324 L23.8962801,76.0414661 L22.419256,77.1945295 L20.9422319,76.0414661 L20.9422319,72.3236324 L20.9422319,72.3236324 Z M22.419256,68.2408096 L18.6446389,71.2122538 L18.6446389,77.1535011 L22.419256,80.1242888 L26.1938731,77.1535011 L26.1938731,71.2122538 L22.419256,68.2408096 L22.419256,68.2408096 Z" id="Fill-105" fill="#00E676"></path>
                            <path d="M4.20262582,53.3294311 L7.8131291,50.4922319 L11.4236324,53.3294311 L11.4236324,60.413895 L7.8131291,63.2507659 L4.20262582,60.413895 L4.20262582,53.3294311 L4.20262582,53.3294311 Z M7.8131291,47.5624726 L1.90503282,52.2173961 L1.90503282,61.5262582 L7.8131291,66.1805252 L13.7212254,61.5262582 L13.7212254,52.2173961 L7.8131291,47.5624726 L7.8131291,47.5624726 Z" id="Fill-106" fill="#00E676"></path>
                            <path d="M2.56148796,23.3592998 L5.02319475,21.5297593 L7.48490153,23.3592998 L7.48490153,28.4291028 L5.02319475,30.2579869 L2.56148796,28.4291028 L2.56148796,23.3592998 L2.56148796,23.3592998 Z M0.263894967,22.2472648 L0.263894967,29.5411379 L5.02319475,33.1877462 L9.78249453,29.5411379 L9.78249453,22.2472648 L5.02319475,18.6003282 L0.263894967,22.2472648 L0.263894967,22.2472648 Z" id="Fill-107" fill="#00E676"></path>
                            <path d="M37.3536105,33.0436543 L35.8765864,34.1967177 L34.3995624,33.0436543 L34.3995624,29.3258206 L35.8765864,28.1727571 L37.3536105,29.3258206 L37.3536105,33.0436543 L37.3536105,33.0436543 Z M35.8765864,37.126477 L39.6512035,34.1556893 L39.6512035,28.214442 L35.8765864,25.2429978 L32.1019694,28.214442 L32.1019694,34.1556893 L35.8765864,37.126477 L35.8765864,37.126477 Z" id="Fill-108" fill="#00E676"></path>
                        </g>
                        <path d="M31.235,170.6 L31.235,172.55 L26.745,172.55 L26.745,185 L24.415,185 L24.415,172.55 L19.915,172.55 L19.915,170.6 L31.235,170.6 Z M49.205,177.8 C49.205,178.866672 49.0316684,179.849996 48.685,180.75 C48.3383316,181.650005 47.8500031,182.424997 47.22,183.075 C46.5899968,183.725003 45.8333377,184.233332 44.95,184.6 C44.0666622,184.966669 43.0850054,185.15 42.005,185.15 C40.9316613,185.15 39.9533377,184.966669 39.07,184.6 C38.1866622,184.233332 37.4283365,183.725003 36.795,183.075 C36.1616635,182.424997 35.6716684,181.650005 35.325,180.75 C34.9783316,179.849996 34.805,178.866672 34.805,177.8 C34.805,176.733328 34.9783316,175.750005 35.325,174.85 C35.6716684,173.949996 36.1616635,173.173337 36.795,172.52 C37.4283365,171.866663 38.1866622,171.356669 39.07,170.99 C39.9533377,170.623332 40.9316613,170.44 42.005,170.44 C43.0850054,170.44 44.0666622,170.623332 44.95,170.99 C45.8333377,171.356669 46.5899968,171.866663 47.22,172.52 C47.8500031,173.173337 48.3383316,173.949996 48.685,174.85 C49.0316684,175.750005 49.205,176.733328 49.205,177.8 L49.205,177.8 Z M46.815,177.8 C46.815,176.973329 46.7033344,176.230003 46.48,175.57 C46.2566655,174.909997 45.9366687,174.350002 45.52,173.89 C45.1033312,173.429998 44.5983363,173.076668 44.005,172.83 C43.4116637,172.583332 42.7450037,172.46 42.005,172.46 C41.271663,172.46 40.6083363,172.583332 40.015,172.83 C39.4216637,173.076668 38.9150021,173.429998 38.495,173.89 C38.0749979,174.350002 37.7516678,174.909997 37.525,175.57 C37.2983322,176.230003 37.185,176.973329 37.185,177.8 C37.185,178.633338 37.2983322,179.379997 37.525,180.04 C37.7516678,180.700003 38.0749979,181.258331 38.495,181.715 C38.9150021,182.171669 39.4216637,182.521665 40.015,182.765 C40.6083363,183.008335 41.271663,183.13 42.005,183.13 C42.7450037,183.13 43.4116637,183.008335 44.005,182.765 C44.5983363,182.521665 45.1033312,182.171669 45.52,181.715 C45.9366687,181.258331 46.2566655,180.700003 46.48,180.04 C46.7033344,179.379997 46.815,178.633338 46.815,177.8 L46.815,177.8 Z M68.295,177.8 C68.295,178.866672 68.1216684,179.849996 67.775,180.75 C67.4283316,181.650005 66.9400031,182.424997 66.31,183.075 C65.6799968,183.725003 64.9233377,184.233332 64.04,184.6 C63.1566622,184.966669 62.1750054,185.15 61.095,185.15 C60.0216613,185.15 59.0433377,184.966669 58.16,184.6 C57.2766622,184.233332 56.5183365,183.725003 55.885,183.075 C55.2516635,182.424997 54.7616684,181.650005 54.415,180.75 C54.0683316,179.849996 53.895,178.866672 53.895,177.8 C53.895,176.733328 54.0683316,175.750005 54.415,174.85 C54.7616684,173.949996 55.2516635,173.173337 55.885,172.52 C56.5183365,171.866663 57.2766622,171.356669 58.16,170.99 C59.0433377,170.623332 60.0216613,170.44 61.095,170.44 C62.1750054,170.44 63.1566622,170.623332 64.04,170.99 C64.9233377,171.356669 65.6799968,171.866663 66.31,172.52 C66.9400031,173.173337 67.4283316,173.949996 67.775,174.85 C68.1216684,175.750005 68.295,176.733328 68.295,177.8 L68.295,177.8 Z M65.905,177.8 C65.905,176.973329 65.7933344,176.230003 65.57,175.57 C65.3466655,174.909997 65.0266687,174.350002 64.61,173.89 C64.1933312,173.429998 63.6883363,173.076668 63.095,172.83 C62.5016637,172.583332 61.8350037,172.46 61.095,172.46 C60.361663,172.46 59.6983363,172.583332 59.105,172.83 C58.5116637,173.076668 58.0050021,173.429998 57.585,173.89 C57.1649979,174.350002 56.8416678,174.909997 56.615,175.57 C56.3883322,176.230003 56.275,176.973329 56.275,177.8 C56.275,178.633338 56.3883322,179.379997 56.615,180.04 C56.8416678,180.700003 57.1649979,181.258331 57.585,181.715 C58.0050021,182.171669 58.5116637,182.521665 59.105,182.765 C59.6983363,183.008335 60.361663,183.13 61.095,183.13 C61.8350037,183.13 62.5016637,183.008335 63.095,182.765 C63.6883363,182.521665 64.1933312,182.171669 64.61,181.715 C65.0266687,181.258331 65.3466655,180.700003 65.57,180.04 C65.7933344,179.379997 65.905,178.633338 65.905,177.8 L65.905,177.8 Z M76.195,183.04 L82.175,183.04 L82.175,185 L73.855,185 L73.855,170.6 L76.195,170.6 L76.195,183.04 Z M94.715,173.06 C94.6416663,173.180001 94.5650004,173.268333 94.485,173.325 C94.4049996,173.381667 94.3050006,173.41 94.185,173.41 C94.0583327,173.41 93.9166674,173.356667 93.76,173.25 C93.6033325,173.143333 93.4100011,173.025001 93.18,172.895 C92.9499988,172.764999 92.6783349,172.645001 92.365,172.535 C92.0516651,172.424999 91.6783355,172.37 91.245,172.37 C90.844998,172.37 90.4933348,172.42 90.19,172.52 C89.8866651,172.620001 89.6316677,172.759999 89.425,172.94 C89.2183323,173.120001 89.0633338,173.331665 88.96,173.575 C88.8566661,173.818335 88.805,174.083332 88.805,174.37 C88.805,174.736669 88.9016657,175.041665 89.095,175.285 C89.2883343,175.528335 89.5433317,175.736666 89.86,175.91 C90.1766682,176.083334 90.5383313,176.234999 90.945,176.365 C91.3516687,176.495001 91.7666645,176.633333 92.19,176.78 C92.6133354,176.926667 93.0283313,177.093332 93.435,177.28 C93.8416687,177.466668 94.2033317,177.703332 94.52,177.99 C94.8366682,178.276668 95.0916657,178.626665 95.285,179.04 C95.4783343,179.453335 95.575,179.956664 95.575,180.55 C95.575,181.190003 95.4650011,181.789997 95.245,182.35 C95.0249989,182.910003 94.7066687,183.398331 94.29,183.815 C93.8733312,184.231669 93.360003,184.559999 92.75,184.8 C92.1399969,185.040001 91.4450039,185.16 90.665,185.16 C90.2049977,185.16 89.7566688,185.115 89.32,185.025 C88.8833311,184.935 88.4666686,184.808334 88.07,184.645 C87.6733313,184.481666 87.3016684,184.283335 86.955,184.05 C86.6083316,183.816666 86.2983347,183.556668 86.025,183.27 L86.705,182.15 C86.7650003,182.056666 86.8416662,181.983334 86.935,181.93 C87.0283338,181.876666 87.1316661,181.85 87.245,181.85 C87.3983341,181.85 87.5683324,181.921666 87.755,182.065 C87.9416676,182.208334 88.1666653,182.364999 88.43,182.535 C88.6933346,182.705001 89.0116648,182.861666 89.385,183.005 C89.7583352,183.148334 90.2049974,183.22 90.725,183.22 C91.5716709,183.22 92.2266643,183.013335 92.69,182.6 C93.1533356,182.186665 93.385,181.61667 93.385,180.89 C93.385,180.483331 93.2883343,180.151668 93.095,179.895 C92.9016657,179.638332 92.6466682,179.423334 92.33,179.25 C92.0133317,179.076666 91.6516687,178.930001 91.245,178.81 C90.8383313,178.689999 90.4250021,178.561667 90.005,178.425 C89.5849979,178.288333 89.1716687,178.128334 88.765,177.945 C88.3583313,177.761666 87.9966682,177.521668 87.68,177.225 C87.3633317,176.928332 87.1083343,176.561669 86.915,176.125 C86.7216657,175.688331 86.625,175.143337 86.625,174.49 C86.625,173.969997 86.7266656,173.466669 86.93,172.98 C87.1333343,172.493331 87.429998,172.061669 87.82,171.685 C88.2100019,171.308331 88.6916638,171.006668 89.265,170.78 C89.8383362,170.553332 90.491663,170.44 91.225,170.44 C92.0516708,170.44 92.8099965,170.569999 93.5,170.83 C94.1900034,171.090001 94.7849975,171.459998 95.285,171.94 L94.715,173.06 Z" id="TOOLS" fill="#FFFFFF"></path>
                    </g>
                </g>
            </g>
        </g>
    </g>
</svg>