<?xml version="1.0" encoding="UTF-8" standalone="no"?>
<svg width="280px" height="240px" viewBox="0 0 280 240" version="1.1" xmlns="http://www.w3.org/2000/svg" xmlns:xlink="http://www.w3.org/1999/xlink" xmlns:sketch="http://www.bohemiancoding.com/sketch/ns">
    <!-- Generator: Sketch 3.4 (15575) - http://www.bohemiancoding.com/sketch -->
    <title>logo-organize-small</title>
    <desc>Created with Sketch.</desc>
    <defs></defs>
    <g id="Page-1" stroke="none" stroke-width="1" fill="none" fill-rule="evenodd" sketch:type="MSPage">
        <g id="Artboard-1-Copy" sketch:type="MSArtboardGroup" transform="translate(-1181.000000, -440.000000)">
            <g id="Group-Copy" sketch:type="MSLayerGroup" transform="translate(281.000000, 440.000000)">
                <g id="logo-organize-small" transform="translate(900.000000, 0.000000)" sketch:type="MSShapeGroup">
                    <rect id="Rectangle-8" fill="#455A64" x="0" y="0" width="280" height="240"></rect>
                    <g id="inner" transform="translate(73.000000, 61.000000)">
                        <g id="Group">
                            <path d="M102.795873,23.0486497 C109.123492,23.0486497 114.256825,17.9017006 114.256825,11.5528743 C114.256825,5.2036976 109.123492,0.056748503 102.795873,0.056748503 C96.4647619,0.056748503 91.3349206,5.2036976 91.3349206,11.5528743 C91.3349206,17.9017006 96.4647619,23.0486497 102.795873,23.0486497" id="Fill-45" fill="#FFFFFF"></path>
                            <path d="M131.930159,56.8553443 C130.934921,41.9441497 124.268571,34.1965778 118.852381,30.3229671 C114.626984,27.2998832 110.548254,26.1270808 108.362222,25.6853533 C106.619683,25.172515 99.6390476,25.3119341 96.855873,26.2227126 C94.547619,26.9548383 87.175873,29.2097156 80.0904762,30.4627365 C76.8079365,31.0435329 72.2193651,30.4147455 68.3990476,29.8539162 C67.5679365,29.6059042 66.7822222,29.4240988 66.2479365,29.4240988 L55.4260317,29.4240988 C55.4260317,29.4240988 54.7101587,29.5687725 54.7380952,30.285485 C54.7625397,31.0025479 55.5307937,31.0908234 55.5307937,31.0908234 L61.7780952,31.8341587 C61.5965079,32.2117814 61.4673016,32.6237335 61.4079365,33.0616078 C61.0866667,35.337503 62.6685714,37.4424521 64.9349206,37.762976 C65.4831746,37.8400419 66.0453968,37.9230629 66.6250794,38.0081856 C69.7749206,38.4726826 73.4660317,39.015997 77.0279365,39.015997 C78.5714286,39.015997 80.0904762,38.9137096 81.5326984,38.6586916 C84.5463492,38.1258862 87.9930159,37.8621108 91.2615873,37.7325 L91.5898413,112.53088 C91.5619048,114.829195 92.7806349,116.998949 95.6860317,116.998949 C98.5914286,116.998949 99.8555556,114.803272 99.8869841,112.523174 L102.223175,73.5618234 L104.224127,73.5618234 L106.37873,112.523174 C106.392698,114.815183 108.309841,116.995096 110.527302,116.995096 C112.744762,116.995096 114.686349,114.827093 114.675873,112.529129 L114.218413,39.6766617 C114.218413,39.4822455 114.218413,39.2951856 114.214921,39.1130299 C118.468254,41.3377814 122.910159,46.3137844 123.653968,57.413021 C123.800635,59.6111497 125.623492,61.2953892 127.788571,61.2953892 C127.882857,61.2953892 127.977143,61.2925868 128.071429,61.2862814 C130.355238,61.1321497 132.08381,59.1487545 131.930159,56.8553443" id="Fill-46" fill="#FFFFFF"></path>
                            <path d="M33.0174603,17.1856886 L19.5904762,11.0228713 L17.8514286,12.1921707 L16.7653968,12.9239461 L11.6634921,16.3558293 L20.295873,25.7459551 L33.0174603,17.1856886" id="Fill-47" fill="#FF5722"></path>
                            <path d="M8.36,18.5788293 L0.272380952,24.0203802 L0.911428571,38.7879521 L13.5457143,30.2875868 L8.36,18.5788293" id="Fill-48" fill="#FF5722"></path>
                            <path d="M34.2606349,19.1414102 L21.6507937,27.626012 L25.4361905,33.2910539 L18.591746,37.8971407 L14.8028571,32.2320988 L2.19301587,40.7167006 L12.9834921,56.8553443 C13.5526984,57.7079731 14.6526984,57.838985 15.5047619,57.2672964 L44.5971429,37.6939671 C45.4457143,37.1226287 45.6203175,36.1330329 45.0511111,35.2800539 L34.2606349,19.1414102" id="Fill-49" fill="#FF5722"></path>
                            <path d="M21.6368254,110.002769 C11.2793651,110.002769 2.88095238,111.244581 2.88095238,112.77679 C2.88095238,114.309 11.2793651,115.551162 21.6368254,115.551162 C31.9977778,115.551162 40.3961905,114.309 40.3961905,112.77679 C40.3961905,111.244581 31.9977778,110.002769 21.6368254,110.002769" id="Fill-50" fill="#FFFFFF"></path>
                            <path d="M35.5492063,71.4057305 L35.5492063,54.0368353 C35.5492063,52.5382545 34.4247619,51.3230659 32.9301587,51.3230659 C31.4355556,51.3230659 30.3111111,52.5382545 30.3111111,54.0368353 L30.3111111,71.4057305 C30.3111111,72.9046617 31.4355556,74.1195 32.9301587,74.1195 C34.4247619,74.1195 35.5492063,72.9046617 35.5492063,71.4057305" id="Fill-51" fill="#FFFFFF"></path>
                            <path d="M25.0730159,96.0114611 L25.0730159,61.274021 C25.0730159,59.7750898 23.9485714,58.5602515 22.4539683,58.5602515 C20.9593651,58.5602515 19.8349206,59.7750898 19.8349206,61.274021 L19.8349206,96.0114611 C19.8349206,97.5103922 20.9593651,98.7255808 22.4539683,98.7255808 C23.9485714,98.7255808 25.0730159,97.5103922 25.0730159,96.0114611" id="Fill-52" fill="#FFFFFF"></path>
                        </g>
                    </g>
                </g>
            </g>
        </g>
    </g>
</svg>