<?xml version="1.0" encoding="UTF-8" standalone="no"?>
<svg width="280px" height="280px" viewBox="0 0 280 280" version="1.1" xmlns="http://www.w3.org/2000/svg" xmlns:xlink="http://www.w3.org/1999/xlink" xmlns:sketch="http://www.bohemiancoding.com/sketch/ns">
    <!-- Generator: Sketch 3.4 (15575) - http://www.bohemiancoding.com/sketch -->
    <title>logo-tools</title>
    <desc>Created with Sketch.</desc>
    <defs>
        <linearGradient x1="0%" y1="0%" x2="100%" y2="100%" id="linearGradient-1">
            <stop stop-color="#455A64" offset="0%"></stop>
            <stop stop-color="#3B4C55" offset="100%"></stop>
        </linearGradient>
    </defs>
    <g id="Page-1" stroke="none" stroke-width="1" fill="none" fill-rule="evenodd" sketch:type="MSPage">
        <g id="Artboard-1-Copy" sketch:type="MSArtboardGroup" transform="translate(-281.000000, -2206.000000)">
            <g id="Group" sketch:type="MSLayerGroup" transform="translate(281.000000, 1906.000000)">
                <g id="logo-tools" transform="translate(0.000000, 300.000000)" sketch:type="MSShapeGroup">
                    <rect id="Rectangle-8" fill="url(#linearGradient-1)" x="0" y="0" width="280" height="280"></rect>
                    <g id="inner" transform="translate(83.000000, 41.000000)">
                        <g id="Group">
                            <path d="M55.4143326,37.0303063 C61.1730853,37.0303063 65.8421225,41.6990153 65.8421225,47.4580963 C65.8421225,53.216849 61.1730853,57.885558 55.4143326,57.885558 C49.6549234,57.885558 44.9868709,53.216849 44.9868709,47.4580963 C44.9868709,41.6990153 49.6549234,37.0303063 55.4143326,37.0303063" id="Fill-98" fill="#FFFFFF"></path>
                            <path d="M30.1326039,63.6751641 C25.0598468,61.1530635 22.5055799,57.4847921 20.933698,51.0551422 C19.8426696,46.5912473 20.1574398,42.611488 20.1712254,42.4440919 C20.3442013,40.3667396 22.1652079,38.8253829 24.2461707,38.995733 C26.3238512,39.1693654 27.8675055,40.993326 27.6945295,43.0710066 C27.6919037,43.0998906 27.4772429,46.0316193 28.2669584,49.2626915 C29.2152079,53.140372 31.1435449,55.6115974 33.999453,56.6080963 C40.4107221,58.8446389 45.7266958,59.6067834 47.6261488,59.8247265 C50.9356674,60.3626915 56.8388403,61.4287746 60.9351204,65.4160832 C63.8386214,68.4600656 65.7003282,70.6010941 69.8671772,73.2961707 C71.3816193,74.27593 80.2135667,75.4017505 86.521116,74.9560175 C88.5974836,74.8122538 90.4060175,76.3739606 90.5540481,78.452954 C90.7017505,80.5326039 89.1357768,82.3381838 87.0561269,82.4858862 C85.9017505,82.5679431 83.809628,82.6867615 81.3715536,82.6867615 C76.7025164,82.6867615 68.7974836,82.2512035 65.7672867,80.2916849 C64.2738512,79.3253829 62.9084245,78.4939825 61.664442,77.7728665 C61.6362144,83.3291028 61.9152079,145.601751 61.9152079,145.601751 C61.9424508,147.685996 60.4391685,149.671772 58.1399344,149.671772 C55.8407002,149.671772 54.3938731,147.925602 54.3666302,145.857768 L51.7276805,105.010832 C51.5218818,105.023304 51.3154267,105.031838 51.106674,105.031838 C51.0426696,105.031838 50.9780088,105.034792 50.9133479,105.036433 L48.4582057,146.159737 C48.4483589,148.237418 46.8177243,150 44.6661926,150 C42.5146608,150 40.8991247,148.250547 40.9089716,146.166302 C40.9089716,146.166302 41.3359956,74.1449672 41.3258206,70.3371991 C37.8768053,68.0750547 33.6423414,65.4200219 30.1326039,63.6751641" id="Fill-99" fill="#FFFFFF"></path>
                            <path d="M23.5670678,29.1334792 L19.7438731,20.5726477 L19.4100656,10.9910284 L23.1672867,6.82122538 L24.0390591,3.15098468 L24.3925602,2.83326039 L28.9017505,6.44835886 L26.7367615,10.2722101 L30.0032823,8.44562363 L30.4332604,15.3525164 L30.3170678,15.6236324 L26.9245077,17.3169584 L29.7915755,16.8551422 L23.5670678,29.1334792 L23.5670678,29.1334792 Z M23.3550328,35.2910284 L32.7479212,15.5917943 L32.1846827,6.53402626 L24.2944201,0.207768053 L13.5866521,9.84059081 L23.3550328,35.2910284 L23.3550328,35.2910284 Z" id="Fill-100" fill="#00E676"></path>
                            <path d="M89.6678337,28.6329322 L86.6067834,24.7230853 L84.8405908,15.3607221 L87.0850109,11.0533917 L90.0462801,7.91356674 L90.3295405,7.60634573 L93.9397155,11.0947484 L92.1206783,13.4189278 L94.8223195,13.0221007 L95.1659737,19.6864333 L95.0734136,19.9477024 L90.907221,18.2117068 L94.6522976,21.1362144 L89.6678337,28.6329322 L89.6678337,28.6329322 Z M89.4987965,34.5738512 L97.0198031,19.9171772 L96.5688184,11.1771335 L90.2507659,5.07374179 L81.676477,14.3678337 L89.4987965,34.5738512 L89.4987965,34.5738512 Z" id="Fill-101" fill="#00E676"></path>
                            <path d="M94.4770241,61.0431072 L91.9539387,51.9328228 L94.3250547,45.8343545 L98.3734136,41.2801969 L99.5061269,33.7808534 L105.939716,39.9971554 L102.697812,44.1387309 L107.511926,43.4310722 L108.124726,55.3073304 L107.960284,55.7730853 L100.14453,60.7621444 L104.922538,61.331291 L98.3277899,71.2496718 L94.4770241,61.0431072 L94.4770241,61.0431072 Z M87.240919,46.8459519 L98.0254923,81.8363239 L111.428665,55.7182713 L110.624508,40.1442013 L99.3656455,29.2664114 L87.240919,46.8459519 L87.240919,46.8459519 Z" id="Fill-102" fill="#00E676"></path>
                            <path d="M108.250766,77.5752735 L109.72779,76.4222101 L111.204814,77.5752735 L111.204814,81.2934354 L109.72779,82.4461707 L108.250766,81.2934354 L108.250766,77.5752735 L108.250766,77.5752735 Z M109.72779,73.4924508 L105.953173,76.463895 L105.953173,82.4051422 L109.72779,85.37593 L113.502407,82.4051422 L113.502407,76.463895 L109.72779,73.4924508 L109.72779,73.4924508 Z" id="Fill-103" fill="#00E676"></path>
                            <path d="M76.0844639,38.1978118 L77.561488,37.0444201 L79.038512,38.1978118 L79.038512,41.9156455 L77.561488,43.068709 L76.0844639,41.9156455 L76.0844639,38.1978118 L76.0844639,38.1978118 Z M77.561488,34.1146608 L73.7868709,37.086105 L73.7868709,43.0276805 L77.561488,45.99814 L81.336105,43.0276805 L81.336105,37.086105 L77.561488,34.1146608 L77.561488,34.1146608 Z" id="Fill-104" fill="#00E676"></path>
                            <path d="M20.9422319,72.3236324 L22.419256,71.1705689 L23.8962801,72.3236324 L23.8962801,76.0414661 L22.419256,77.1945295 L20.9422319,76.0414661 L20.9422319,72.3236324 L20.9422319,72.3236324 Z M22.419256,68.2408096 L18.6446389,71.2122538 L18.6446389,77.1535011 L22.419256,80.1242888 L26.1938731,77.1535011 L26.1938731,71.2122538 L22.419256,68.2408096 L22.419256,68.2408096 Z" id="Fill-105" fill="#00E676"></path>
                            <path d="M4.20262582,53.3294311 L7.8131291,50.4922319 L11.4236324,53.3294311 L11.4236324,60.413895 L7.8131291,63.2507659 L4.20262582,60.413895 L4.20262582,53.3294311 L4.20262582,53.3294311 Z M7.8131291,47.5624726 L1.90503282,52.2173961 L1.90503282,61.5262582 L7.8131291,66.1805252 L13.7212254,61.5262582 L13.7212254,52.2173961 L7.8131291,47.5624726 L7.8131291,47.5624726 Z" id="Fill-106" fill="#00E676"></path>
                            <path d="M2.56148796,23.3592998 L5.02319475,21.5297593 L7.48490153,23.3592998 L7.48490153,28.4291028 L5.02319475,30.2579869 L2.56148796,28.4291028 L2.56148796,23.3592998 L2.56148796,23.3592998 Z M0.263894967,22.2472648 L0.263894967,29.5411379 L5.02319475,33.1877462 L9.78249453,29.5411379 L9.78249453,22.2472648 L5.02319475,18.6003282 L0.263894967,22.2472648 L0.263894967,22.2472648 Z" id="Fill-107" fill="#00E676"></path>
                            <path d="M37.3536105,33.0436543 L35.8765864,34.1967177 L34.3995624,33.0436543 L34.3995624,29.3258206 L35.8765864,28.1727571 L37.3536105,29.3258206 L37.3536105,33.0436543 L37.3536105,33.0436543 Z M35.8765864,37.126477 L39.6512035,34.1556893 L39.6512035,28.214442 L35.8765864,25.2429978 L32.1019694,28.214442 L32.1019694,34.1556893 L35.8765864,37.126477 L35.8765864,37.126477 Z" id="Fill-108" fill="#00E676"></path>
                        </g>
                        <path d="M12.785,170.6 L12.785,172.55 L8.295,172.55 L8.295,185 L5.965,185 L5.965,172.55 L1.465,172.55 L1.465,170.6 L12.785,170.6 Z M30.755,177.8 C30.755,178.866672 30.5816684,179.849996 30.235,180.75 C29.8883316,181.650005 29.4000032,182.424997 28.77,183.075 C28.1399969,183.725003 27.3833378,184.233332 26.5,184.6 C25.6166623,184.966669 24.6350054,185.15 23.555,185.15 C22.4816613,185.15 21.5033378,184.966669 20.62,184.6 C19.7366623,184.233332 18.9783365,183.725003 18.345,183.075 C17.7116635,182.424997 17.2216684,181.650005 16.875,180.75 C16.5283316,179.849996 16.355,178.866672 16.355,177.8 C16.355,176.733328 16.5283316,175.750005 16.875,174.85 C17.2216684,173.949996 17.7116635,173.173337 18.345,172.52 C18.9783365,171.866663 19.7366623,171.356669 20.62,170.99 C21.5033378,170.623332 22.4816613,170.44 23.555,170.44 C24.6350054,170.44 25.6166623,170.623332 26.5,170.99 C27.3833378,171.356669 28.1399969,171.866663 28.77,172.52 C29.4000032,173.173337 29.8883316,173.949996 30.235,174.85 C30.5816684,175.750005 30.755,176.733328 30.755,177.8 L30.755,177.8 Z M28.365,177.8 C28.365,176.973329 28.2533345,176.230003 28.03,175.57 C27.8066656,174.909997 27.4866688,174.350002 27.07,173.89 C26.6533313,173.429998 26.1483363,173.076668 25.555,172.83 C24.9616637,172.583332 24.2950037,172.46 23.555,172.46 C22.821663,172.46 22.1583363,172.583332 21.565,172.83 C20.9716637,173.076668 20.4650021,173.429998 20.045,173.89 C19.6249979,174.350002 19.3016678,174.909997 19.075,175.57 C18.8483322,176.230003 18.735,176.973329 18.735,177.8 C18.735,178.633338 18.8483322,179.379997 19.075,180.04 C19.3016678,180.700003 19.6249979,181.258331 20.045,181.715 C20.4650021,182.171669 20.9716637,182.521665 21.565,182.765 C22.1583363,183.008335 22.821663,183.13 23.555,183.13 C24.2950037,183.13 24.9616637,183.008335 25.555,182.765 C26.1483363,182.521665 26.6533313,182.171669 27.07,181.715 C27.4866688,181.258331 27.8066656,180.700003 28.03,180.04 C28.2533345,179.379997 28.365,178.633338 28.365,177.8 L28.365,177.8 Z M49.845,177.8 C49.845,178.866672 49.6716684,179.849996 49.325,180.75 C48.9783316,181.650005 48.4900032,182.424997 47.86,183.075 C47.2299969,183.725003 46.4733378,184.233332 45.59,184.6 C44.7066623,184.966669 43.7250054,185.15 42.645,185.15 C41.5716613,185.15 40.5933378,184.966669 39.71,184.6 C38.8266623,184.233332 38.0683365,183.725003 37.435,183.075 C36.8016635,182.424997 36.3116684,181.650005 35.965,180.75 C35.6183316,179.849996 35.445,178.866672 35.445,177.8 C35.445,176.733328 35.6183316,175.750005 35.965,174.85 C36.3116684,173.949996 36.8016635,173.173337 37.435,172.52 C38.0683365,171.866663 38.8266623,171.356669 39.71,170.99 C40.5933378,170.623332 41.5716613,170.44 42.645,170.44 C43.7250054,170.44 44.7066623,170.623332 45.59,170.99 C46.4733378,171.356669 47.2299969,171.866663 47.86,172.52 C48.4900032,173.173337 48.9783316,173.949996 49.325,174.85 C49.6716684,175.750005 49.845,176.733328 49.845,177.8 L49.845,177.8 Z M47.455,177.8 C47.455,176.973329 47.3433345,176.230003 47.12,175.57 C46.8966656,174.909997 46.5766688,174.350002 46.16,173.89 C45.7433313,173.429998 45.2383363,173.076668 44.645,172.83 C44.0516637,172.583332 43.3850037,172.46 42.645,172.46 C41.911663,172.46 41.2483363,172.583332 40.655,172.83 C40.0616637,173.076668 39.5550021,173.429998 39.135,173.89 C38.7149979,174.350002 38.3916678,174.909997 38.165,175.57 C37.9383322,176.230003 37.825,176.973329 37.825,177.8 C37.825,178.633338 37.9383322,179.379997 38.165,180.04 C38.3916678,180.700003 38.7149979,181.258331 39.135,181.715 C39.5550021,182.171669 40.0616637,182.521665 40.655,182.765 C41.2483363,183.008335 41.911663,183.13 42.645,183.13 C43.3850037,183.13 44.0516637,183.008335 44.645,182.765 C45.2383363,182.521665 45.7433313,182.171669 46.16,181.715 C46.5766688,181.258331 46.8966656,180.700003 47.12,180.04 C47.3433345,179.379997 47.455,178.633338 47.455,177.8 L47.455,177.8 Z M57.745,183.04 L63.725,183.04 L63.725,185 L55.405,185 L55.405,170.6 L57.745,170.6 L57.745,183.04 Z M68.735,185 L68.735,170.6 L73.525,170.6 C74.4450046,170.6 75.2316634,170.688332 75.885,170.865 C76.5383366,171.041668 77.0749979,171.293332 77.495,171.62 C77.9150021,171.946668 78.2233324,172.344998 78.42,172.815 C78.6166677,173.285002 78.715,173.81333 78.715,174.4 C78.715,174.740002 78.6633339,175.069998 78.56,175.39 C78.4566662,175.710002 78.2966678,176.006665 78.08,176.28 C77.8633323,176.553335 77.5916683,176.801666 77.265,177.025 C76.9383317,177.248334 76.5516689,177.433333 76.105,177.58 C77.1250051,177.793334 77.8899975,178.169997 78.4,178.71 C78.9100026,179.250003 79.165,179.953329 79.165,180.82 C79.165,181.433336 79.0500012,181.994997 78.82,182.505 C78.5899989,183.015003 78.2566689,183.454998 77.82,183.825 C77.3833312,184.195002 76.8450032,184.483332 76.205,184.69 C75.5649968,184.896668 74.8350041,185 74.015,185 L68.735,185 Z M71.075,178.58 L71.075,183.15 L73.975,183.15 C74.5016693,183.15 74.9466649,183.088334 75.31,182.965 C75.6733352,182.841666 75.9699989,182.673334 76.2,182.46 C76.4300012,182.246666 76.5966662,181.995001 76.7,181.705 C76.8033339,181.414999 76.855,181.103335 76.855,180.77 C76.855,180.089997 76.6233357,179.555002 76.16,179.165 C75.6966644,178.774998 74.965005,178.58 73.965,178.58 L71.075,178.58 Z M71.075,176.93 L73.415,176.93 C74.415005,176.93 75.1616642,176.736669 75.655,176.35 C76.1483358,175.963331 76.395,175.40667 76.395,174.68 C76.395,173.886663 76.1633357,173.313335 75.7,172.96 C75.2366644,172.606665 74.5116716,172.43 73.525,172.43 L71.075,172.43 L71.075,176.93 Z M98.325,177.8 C98.325,178.866672 98.1516684,179.849996 97.805,180.75 C97.4583316,181.650005 96.9700032,182.424997 96.34,183.075 C95.7099969,183.725003 94.9533378,184.233332 94.07,184.6 C93.1866623,184.966669 92.2050054,185.15 91.125,185.15 C90.0516613,185.15 89.0733378,184.966669 88.19,184.6 C87.3066623,184.233332 86.5483365,183.725003 85.915,183.075 C85.2816635,182.424997 84.7916684,181.650005 84.445,180.75 C84.0983316,179.849996 83.925,178.866672 83.925,177.8 C83.925,176.733328 84.0983316,175.750005 84.445,174.85 C84.7916684,173.949996 85.2816635,173.173337 85.915,172.52 C86.5483365,171.866663 87.3066623,171.356669 88.19,170.99 C89.0733378,170.623332 90.0516613,170.44 91.125,170.44 C92.2050054,170.44 93.1866623,170.623332 94.07,170.99 C94.9533378,171.356669 95.7099969,171.866663 96.34,172.52 C96.9700032,173.173337 97.4583316,173.949996 97.805,174.85 C98.1516684,175.750005 98.325,176.733328 98.325,177.8 L98.325,177.8 Z M95.935,177.8 C95.935,176.973329 95.8233345,176.230003 95.6,175.57 C95.3766656,174.909997 95.0566688,174.350002 94.64,173.89 C94.2233313,173.429998 93.7183363,173.076668 93.125,172.83 C92.5316637,172.583332 91.8650037,172.46 91.125,172.46 C90.391663,172.46 89.7283363,172.583332 89.135,172.83 C88.5416637,173.076668 88.0350021,173.429998 87.615,173.89 C87.1949979,174.350002 86.8716678,174.909997 86.645,175.57 C86.4183322,176.230003 86.305,176.973329 86.305,177.8 C86.305,178.633338 86.4183322,179.379997 86.645,180.04 C86.8716678,180.700003 87.1949979,181.258331 87.615,181.715 C88.0350021,182.171669 88.5416637,182.521665 89.135,182.765 C89.7283363,183.008335 90.391663,183.13 91.125,183.13 C91.8650037,183.13 92.5316637,183.008335 93.125,182.765 C93.7183363,182.521665 94.2233313,182.171669 94.64,181.715 C95.0566688,181.258331 95.3766656,180.700003 95.6,180.04 C95.8233345,179.379997 95.935,178.633338 95.935,177.8 L95.935,177.8 Z M106.605,177.61 L101.945,170.6 L104.265,170.6 C104.431668,170.6 104.553333,170.625 104.63,170.675 C104.706667,170.725 104.775,170.8 104.835,170.9 L108.335,176.41 C108.361667,176.323333 108.393333,176.24 108.43,176.16 C108.466667,176.08 108.511666,175.996667 108.565,175.91 L111.825,170.94 C111.891667,170.826666 111.965,170.741667 112.045,170.685 C112.125,170.628333 112.221666,170.6 112.335,170.6 L114.565,170.6 L109.865,177.5 L114.715,185 L112.385,185 C112.224999,185 112.095001,184.956667 111.995,184.87 C111.895,184.783333 111.815,184.686667 111.755,184.58 L108.175,178.81 C108.148333,178.89 108.12,178.966666 108.09,179.04 C108.06,179.113334 108.025,179.183333 107.985,179.25 L104.525,184.58 C104.451666,184.686667 104.37,184.783333 104.28,184.87 C104.19,184.956667 104.071667,185 103.925,185 L101.745,185 L106.605,177.61 Z" id="TOOLBOX" fill="#FFFFFF"></path>
                    </g>
                </g>
            </g>
        </g>
    </g>
</svg>