<?xml version="1.0" encoding="UTF-8" standalone="no"?>
<svg width="280px" height="280px" viewBox="0 0 280 280" version="1.1" xmlns="http://www.w3.org/2000/svg" xmlns:xlink="http://www.w3.org/1999/xlink" xmlns:sketch="http://www.bohemiancoding.com/sketch/ns">
    <!-- Generator: Sketch 3.4 (15575) - http://www.bohemiancoding.com/sketch -->
    <title>logo-resources</title>
    <desc>Created with Sketch.</desc>
    <defs>
        <linearGradient x1="0%" y1="0%" x2="100%" y2="100%" id="linearGradient-1">
            <stop stop-color="#455A64" offset="0%"></stop>
            <stop stop-color="#3B4C55" offset="100%"></stop>
        </linearGradient>
    </defs>
    <g id="Page-1" stroke="none" stroke-width="1" fill="none" fill-rule="evenodd" sketch:type="MSPage">
        <g id="Artboard-1-Copy" sketch:type="MSArtboardGroup" transform="translate(-1181.000000, -1327.000000)">
            <g id="logo-resources" sketch:type="MSLayerGroup" transform="translate(1181.000000, 1327.000000)">
                <rect id="Rectangle-8" fill="url(#linearGradient-1)" sketch:type="MSShapeGroup" x="0" y="0" width="280" height="280"></rect>
                <g id="inner" transform="translate(65.000000, 51.000000)" sketch:type="MSShapeGroup">
                    <g id="Group">
                        <path d="M55.7491189,78.6901982 C60.9977974,82.0225771 67.9539648,80.4693833 71.2863436,75.2203744 C74.6183921,69.9713656 73.0651982,63.0151982 67.8165198,59.6831498 C62.5678414,56.3507709 55.6113436,57.9046256 52.2789648,63.153304 C48.9469163,68.401652 50.5007709,75.3581498 55.7491189,78.6901982" id="Fill-93" fill="#FFFFFF"></path>
                        <path d="M70.4101322,131.207048 C71.2139868,131.207048 72.0261013,130.969163 72.735793,130.473568 C74.5827093,129.188326 75.036674,126.647577 73.7504405,124.803965 L62.4102423,108.521696 L54.7645374,95.6890969 C54.9640969,95.495815 55.1335903,95.2681718 55.2825991,95.0015419 L65.5549559,110.482269 L75.035022,122.77533 C75.5164097,122.606828 75.9746696,122.345815 76.3807269,121.988987 C78.0693833,120.502203 78.2316079,117.92511 76.7438326,116.237115 L65.5156388,103.496696 L56.2955947,85.5938326 C55.2373348,81.5957048 51.9564978,78.3657489 47.6170705,77.5863436 C41.3464758,76.460022 32.197467,77.3662996 25.3321586,83.2893172 C21.1774229,86.8731278 16.3030837,93.673348 16.672467,105.71663 C16.8026432,109.995925 17.8361233,113.228524 22.7672907,124.024229 L4.53039648,123.128855 C2.28469163,122.957048 0.326101322,124.632159 0.151651982,126.875551 C-0.0227973568,129.118943 1.65429515,131.078194 3.89801762,131.253304 L30.4962555,133.542952 C30.6023128,133.549559 30.7077093,133.556167 30.8131057,133.556167 C32.1066079,133.556167 33.135793,133.011013 33.9066079,131.957048 C34.7398678,130.817181 34.7520925,129.455947 34.5878855,127.946035 L33.7813877,115.822467 L42.1701542,111.590088 L43.8026432,130.381057 C43.8839207,132.578194 45.6911894,134.306167 47.872467,134.306167 C47.9230176,134.306167 47.9738987,134.302863 48.0251101,134.302863 C50.2741189,134.220264 52.0301762,132.330396 51.9472467,130.080396 L50.9924009,104.242731 C50.9444934,102.948568 50.2840308,101.753524 49.2132159,101.025 C48.1427313,100.295154 46.7887665,100.119053 45.5676211,100.549229 L38.685793,102.971696 C38.8457048,101.253304 39.2798458,100.270044 39.6825991,99.922467 C40.3569383,99.3412996 44.5367841,98.0719163 47.4875551,97.4487885 L47.8334802,97.4732379 C49.0552863,97.0427313 50.2685022,97.8148678 51.3396476,98.5443833 C52.4104626,99.2729075 53.4211454,100.454075 53.4687225,101.748238 L53.9544053,109.344714 L67.0632159,129.459251 C67.8551762,130.599119 69.1222467,131.207048 70.4101322,131.207048" id="Fill-95" fill="#FFFFFF"></path>
                        <path d="M143.010463,117.720264 L134.856278,130.837004 L114.362775,130.837004 L143.519273,89.7720264 C141.589758,97.9595815 139.837996,105.137775 139.333811,106.74185 C138.826322,107.772026 138.767511,108.972687 139.217511,110.076211 C139.614648,111.049559 140.707599,112.677753 143.565198,112.677753 C143.802753,112.677753 144.078965,112.687996 144.381608,112.672797 L143.010463,117.720264 L143.010463,117.720264 Z M106.835683,108.52533 L106.947026,108.426872 L106.987004,108.448678 L106.972137,108.404736 L136.949009,81.8121145 L136.902093,81.7592511 L144.819053,74.6973568 L145.487775,79.967511 L112.493722,126.386564 L106.835683,108.52533 L106.835683,108.52533 Z M92.8443833,130.837004 L90.9102423,120.488987 L86.5172907,97.2323789 L101.630286,105.561344 L109.626872,130.837004 L92.8443833,130.837004 L92.8443833,130.837004 Z M82.8634361,130.837004 L85.2779736,126.118943 L88.5303965,130.837004 L82.8634361,130.837004 L82.8634361,130.837004 Z M87.4017621,77.154185 L91.2726872,79.0955947 L92.7472467,79.8373348 L99.6994493,99.8256608 L85.7587004,92.1726872 L87.4017621,77.154185 L87.4017621,77.154185 Z M96.8573789,76.9774229 L103.215198,61.1140969 L125.317731,86.7155286 L105.532599,104.26652 L96.4205947,78.0680617 L96.8573789,76.9774229 L96.8573789,76.9774229 Z M105.238877,48.3961454 L112.945705,51.317511 L122.555617,77.3170705 L104.484912,56.3861233 C104.454515,56.3507709 104.418172,56.325 104.385793,56.2922907 L105.238877,48.3961454 L105.238877,48.3961454 Z M116.780617,47.2424009 L118.114427,31.1134361 L124.997577,31.0265419 L125.759471,74.3002203 L116.593943,49.5036344 L116.780617,47.2424009 L116.780617,47.2424009 Z M129.085242,28.8003304 L134.56685,17.9818282 L141.854736,48.620815 L132.226652,80.5863436 L129.956828,82.6001101 L129.012555,28.9437225 L129.085242,28.8003304 L129.085242,28.8003304 Z M143.565198,108.644273 C143.12478,108.644273 142.887885,108.593062 142.989648,108.493282 C143.480947,108.012225 149.706608,81.0426211 149.706608,81.0426211 L147.868943,66.5514317 L138.046586,75.3115639 L146.047797,48.7450441 L135.949559,6.29008811 L125.707269,26.5040749 C125.54141,26.6368943 125.396035,26.7938326 125.279405,26.9715859 L114.380617,27.1090308 L112.743502,46.90837 L101.77467,42.75 L100.137225,57.9036344 L93.0971366,75.467511 L84.0105727,70.8832599 L81.5953744,92.9368943 L85.6893172,114.555396 L78.8038546,109.319273 L81.6835903,123.981278 L78.0185022,131.23348 L62.3055066,134.801762 L137.095374,134.801762 L146.755176,119.329295 L149.865529,108.092511 C149.865529,108.092511 145.243612,108.644273 143.565198,108.644273 L143.565198,108.644273 Z" id="Fill-96" fill="#FFFFFF"></path>
                        <path d="M51.9343612,21.4661894 L63.3406388,19.7530837 L69.9792952,23.6174009 L69.9792952,26.0167401 L64.1557269,29.585022 L52.0490088,28.3896476 L51.695815,31.7699339 L59.3468062,32.5285242 L53.564207,36.114978 L55.353304,39.0013216 L60.7087004,35.6772026 L58.3272026,42.5550661 L61.5370044,43.6661894 L65.2860132,32.835793 L71.7194934,28.8598018 L73.2832599,29.7773128 L73.2832599,36.8296256 L66.0072687,46.2911894 L68.7135463,48.3581498 L73.2832599,42.4120044 L73.2832599,49.2280837 L76.9176211,49.2280837 L76.9176211,42.5914097 L81.4912996,48.3954846 L84.1985683,46.2538546 L76.9176211,37.2029736 L76.9176211,29.7773128 L78.5927313,28.6893172 L84.5696035,32.2509912 L89.0064978,43.3030837 L92.136674,42.0287445 L89.3164097,35.0834802 L94.910022,38.379185 L96.6310573,35.4515419 L91.1864537,32.2470264 L98.5780837,31.1292952 L98.0705947,27.7704846 L86.6415198,29.513326 L80.2215859,25.6751101 L80.2215859,23.6900881 L86.3177313,19.8446035 L98.1327093,21.019163 L98.4422907,17.639207 L90.9736784,16.9007709 L96.4870044,13.4752203 L94.6926211,10.5888767 L89.3236784,13.9199339 L91.7686123,6.85440529 L88.5581498,5.74328194 L84.7443833,16.7613436 L78.5514317,20.6953744 L76.9176211,19.6318282 L76.9176211,12.8851322 L84.1579295,3.26002203 L81.5322687,1.19306167 L76.9176211,7.30209251 L76.9176211,0.329405286 L73.2832599,0.329405286 L73.2832599,6.80550661 L68.6735683,1.15572687 L66.0472467,3.29735683 L73.2832599,12.1939427 L73.2832599,19.6318282 L71.532489,20.6610132 L65.5992291,17.1763216 L61.0417401,5.93359031 L57.8900881,7.20792952 L60.7764317,14.3438326 L54.9145374,10.8938326 L53.1901982,13.8211454 L58.6232379,17.0197137 L51.4262115,18.1073789 L51.9343612,21.4661894" id="Fill-97" fill="#00B0FF"></path>
                    </g>
                    <path d="M10.935,169.2 L10.935,175 L8.595,175 L8.595,160.6 L12.835,160.6 C13.7816714,160.6 14.5966633,160.696666 15.28,160.89 C15.9633368,161.083334 16.5249978,161.358332 16.965,161.715 C17.4050022,162.071668 17.729999,162.499998 17.94,163 C18.1500011,163.500003 18.255,164.056664 18.255,164.67 C18.255,165.170003 18.1800008,165.636665 18.03,166.07 C17.8799993,166.503336 17.6633348,166.896665 17.38,167.25 C17.0966653,167.603335 16.7466688,167.909999 16.33,168.17 C15.9133313,168.430001 15.4416693,168.633333 14.915,168.78 C15.2083348,168.953334 15.4583323,169.196665 15.665,169.51 L19.555,175 L17.465,175 C17.0516646,175 16.7516676,174.840002 16.565,174.52 L13.205,169.67 C13.0916661,169.503333 12.968334,169.383334 12.835,169.31 C12.701666,169.236666 12.501668,169.2 12.235,169.2 L10.935,169.2 Z M10.935,167.5 L12.775,167.5 C13.308336,167.5 13.774998,167.435001 14.175,167.305 C14.575002,167.174999 14.908332,166.993335 15.175,166.76 C15.441668,166.526666 15.641666,166.248335 15.775,165.925 C15.908334,165.601665 15.975,165.243335 15.975,164.85 C15.975,164.063329 15.7150026,163.463335 15.195,163.05 C14.6749974,162.636665 13.8883386,162.43 12.835,162.43 L10.935,162.43 L10.935,167.5 Z M33.275,160.6 L33.275,162.49 L26.645,162.49 L26.645,166.83 L31.945,166.83 L31.945,168.66 L26.645,168.66 L26.645,173.11 L33.285,173.11 L33.275,175 L24.295,175 L24.295,160.6 L33.275,160.6 Z M46.345,163.06 C46.2716663,163.180001 46.1950004,163.268333 46.115,163.325 C46.0349996,163.381667 45.9350006,163.41 45.815,163.41 C45.6883327,163.41 45.5466675,163.356667 45.39,163.25 C45.2333326,163.143333 45.0400012,163.025001 44.81,162.895 C44.5799989,162.764999 44.3083349,162.645001 43.995,162.535 C43.6816651,162.424999 43.3083355,162.37 42.875,162.37 C42.474998,162.37 42.1233349,162.42 41.82,162.52 C41.5166652,162.620001 41.2616677,162.759999 41.055,162.94 C40.8483323,163.120001 40.6933339,163.331665 40.59,163.575 C40.4866662,163.818335 40.435,164.083332 40.435,164.37 C40.435,164.736669 40.5316657,165.041665 40.725,165.285 C40.9183343,165.528335 41.1733318,165.736666 41.49,165.91 C41.8066683,166.083334 42.1683313,166.234999 42.575,166.365 C42.9816687,166.495001 43.3966646,166.633333 43.82,166.78 C44.2433355,166.926667 44.6583313,167.093332 45.065,167.28 C45.4716687,167.466668 45.8333318,167.703332 46.15,167.99 C46.4666683,168.276668 46.7216657,168.626665 46.915,169.04 C47.1083343,169.453335 47.205,169.956664 47.205,170.55 C47.205,171.190003 47.0950011,171.789997 46.875,172.35 C46.6549989,172.910003 46.3366688,173.398331 45.92,173.815 C45.5033313,174.231669 44.9900031,174.559999 44.38,174.8 C43.769997,175.040001 43.0750039,175.16 42.295,175.16 C41.8349977,175.16 41.3866689,175.115 40.95,175.025 C40.5133312,174.935 40.0966687,174.808334 39.7,174.645 C39.3033314,174.481666 38.9316684,174.283335 38.585,174.05 C38.2383316,173.816666 37.9283347,173.556668 37.655,173.27 L38.335,172.15 C38.3950003,172.056666 38.4716662,171.983334 38.565,171.93 C38.6583338,171.876666 38.7616661,171.85 38.875,171.85 C39.0283341,171.85 39.1983324,171.921666 39.385,172.065 C39.5716676,172.208334 39.7966654,172.364999 40.06,172.535 C40.3233347,172.705001 40.6416648,172.861666 41.015,173.005 C41.3883352,173.148334 41.8349974,173.22 42.355,173.22 C43.2016709,173.22 43.8566644,173.013335 44.32,172.6 C44.7833357,172.186665 45.015,171.61667 45.015,170.89 C45.015,170.483331 44.9183343,170.151668 44.725,169.895 C44.5316657,169.638332 44.2766683,169.423334 43.96,169.25 C43.6433318,169.076666 43.2816687,168.930001 42.875,168.81 C42.4683313,168.689999 42.0550021,168.561667 41.635,168.425 C41.2149979,168.288333 40.8016687,168.128334 40.395,167.945 C39.9883313,167.761666 39.6266683,167.521668 39.31,167.225 C38.9933318,166.928332 38.7383343,166.561669 38.545,166.125 C38.3516657,165.688331 38.255,165.143337 38.255,164.49 C38.255,163.969997 38.3566657,163.466669 38.56,162.98 C38.7633344,162.493331 39.0599981,162.061669 39.45,161.685 C39.840002,161.308331 40.3216638,161.006668 40.895,160.78 C41.4683362,160.553332 42.121663,160.44 42.855,160.44 C43.6816708,160.44 44.4399966,160.569999 45.13,160.83 C45.8200035,161.090001 46.4149975,161.459998 46.915,161.94 L46.345,163.06 Z M66.255,167.8 C66.255,168.866672 66.0816684,169.849996 65.735,170.75 C65.3883316,171.650005 64.9000032,172.424997 64.27,173.075 C63.6399969,173.725003 62.8833378,174.233332 62,174.6 C61.1166623,174.966669 60.1350054,175.15 59.055,175.15 C57.9816613,175.15 57.0033378,174.966669 56.12,174.6 C55.2366623,174.233332 54.4783365,173.725003 53.845,173.075 C53.2116635,172.424997 52.7216684,171.650005 52.375,170.75 C52.0283316,169.849996 51.855,168.866672 51.855,167.8 C51.855,166.733328 52.0283316,165.750005 52.375,164.85 C52.7216684,163.949996 53.2116635,163.173337 53.845,162.52 C54.4783365,161.866663 55.2366623,161.356669 56.12,160.99 C57.0033378,160.623332 57.9816613,160.44 59.055,160.44 C60.1350054,160.44 61.1166623,160.623332 62,160.99 C62.8833378,161.356669 63.6399969,161.866663 64.27,162.52 C64.9000032,163.173337 65.3883316,163.949996 65.735,164.85 C66.0816684,165.750005 66.255,166.733328 66.255,167.8 L66.255,167.8 Z M63.865,167.8 C63.865,166.973329 63.7533345,166.230003 63.53,165.57 C63.3066656,164.909997 62.9866688,164.350002 62.57,163.89 C62.1533313,163.429998 61.6483363,163.076668 61.055,162.83 C60.4616637,162.583332 59.7950037,162.46 59.055,162.46 C58.321663,162.46 57.6583363,162.583332 57.065,162.83 C56.4716637,163.076668 55.9650021,163.429998 55.545,163.89 C55.1249979,164.350002 54.8016678,164.909997 54.575,165.57 C54.3483322,166.230003 54.235,166.973329 54.235,167.8 C54.235,168.633338 54.3483322,169.379997 54.575,170.04 C54.8016678,170.700003 55.1249979,171.258331 55.545,171.715 C55.9650021,172.171669 56.4716637,172.521665 57.065,172.765 C57.6583363,173.008335 58.321663,173.13 59.055,173.13 C59.7950037,173.13 60.4616637,173.008335 61.055,172.765 C61.6483363,172.521665 62.1533313,172.171669 62.57,171.715 C62.9866688,171.258331 63.3066656,170.700003 63.53,170.04 C63.7533345,169.379997 63.865,168.633338 63.865,167.8 L63.865,167.8 Z M77.495,173.11 C78.0483361,173.11 78.5433312,173.016668 78.98,172.83 C79.4166689,172.643332 79.7866652,172.383335 80.09,172.05 C80.3933349,171.716665 80.6249992,171.315002 80.785,170.845 C80.9450008,170.374998 81.025,169.853336 81.025,169.28 L81.025,160.6 L83.355,160.6 L83.355,169.28 C83.355,170.126671 83.2200014,170.909996 82.95,171.63 C82.6799987,172.350004 82.2916692,172.971664 81.785,173.495 C81.2783308,174.018336 80.663337,174.428332 79.94,174.725 C79.2166631,175.021668 78.4016712,175.17 77.495,175.17 C76.5883288,175.17 75.773337,175.021668 75.05,174.725 C74.3266631,174.428332 73.7116692,174.018336 73.205,173.495 C72.6983308,172.971664 72.3100014,172.350004 72.04,171.63 C71.7699987,170.909996 71.635,170.126671 71.635,169.28 L71.635,160.6 L73.975,160.6 L73.975,169.27 C73.975,169.843336 74.0549992,170.364998 74.215,170.835 C74.3750008,171.305002 74.6049985,171.708332 74.905,172.045 C75.2050015,172.381668 75.5733312,172.643332 76.01,172.83 C76.4466689,173.016668 76.9416639,173.11 77.495,173.11 L77.495,173.11 Z M91.945,169.2 L91.945,175 L89.605,175 L89.605,160.6 L93.845,160.6 C94.7916714,160.6 95.6066633,160.696666 96.29,160.89 C96.9733368,161.083334 97.5349978,161.358332 97.975,161.715 C98.4150022,162.071668 98.739999,162.499998 98.95,163 C99.1600011,163.500003 99.265,164.056664 99.265,164.67 C99.265,165.170003 99.1900008,165.636665 99.04,166.07 C98.8899993,166.503336 98.6733348,166.896665 98.39,167.25 C98.1066653,167.603335 97.7566688,167.909999 97.34,168.17 C96.9233313,168.430001 96.4516693,168.633333 95.925,168.78 C96.2183348,168.953334 96.4683323,169.196665 96.675,169.51 L100.565,175 L98.475,175 C98.0616646,175 97.7616676,174.840002 97.575,174.52 L94.215,169.67 C94.1016661,169.503333 93.978334,169.383334 93.845,169.31 C93.711666,169.236666 93.511668,169.2 93.245,169.2 L91.945,169.2 Z M91.945,167.5 L93.785,167.5 C94.318336,167.5 94.784998,167.435001 95.185,167.305 C95.585002,167.174999 95.918332,166.993335 96.185,166.76 C96.451668,166.526666 96.651666,166.248335 96.785,165.925 C96.918334,165.601665 96.985,165.243335 96.985,164.85 C96.985,164.063329 96.7250026,163.463335 96.205,163.05 C95.6849974,162.636665 94.8983386,162.43 93.845,162.43 L91.945,162.43 L91.945,167.5 Z M115.105,171.79 C115.231667,171.79 115.341666,171.84 115.435,171.94 L116.365,172.95 C115.77833,173.65667 115.058338,174.201665 114.205,174.585 C113.351662,174.968335 112.331673,175.16 111.145,175.16 C110.091661,175.16 109.140004,174.978335 108.29,174.615 C107.439996,174.251665 106.715003,173.745003 106.115,173.095 C105.514997,172.444997 105.053335,171.670005 104.73,170.77 C104.406665,169.869996 104.245,168.880005 104.245,167.8 C104.245,166.719995 104.416665,165.728338 104.76,164.825 C105.103335,163.921662 105.586664,163.145003 106.21,162.495 C106.833336,161.844997 107.579996,161.340002 108.45,160.98 C109.320004,160.619998 110.278328,160.44 111.325,160.44 C112.365005,160.44 113.283329,160.608332 114.08,160.945 C114.876671,161.281668 115.56833,161.729997 116.155,162.29 L115.385,163.38 C115.331666,163.453334 115.268334,163.516666 115.195,163.57 C115.121666,163.623334 115.021667,163.65 114.895,163.65 C114.761666,163.65 114.610001,163.588334 114.44,163.465 C114.269999,163.341666 114.053335,163.205001 113.79,163.055 C113.526665,162.904999 113.196669,162.768334 112.8,162.645 C112.403331,162.521666 111.908336,162.46 111.315,162.46 C110.62833,162.46 109.998336,162.579999 109.425,162.82 C108.851664,163.060001 108.358335,163.409998 107.945,163.87 C107.531665,164.330002 107.210001,164.889997 106.98,165.55 C106.749999,166.210003 106.635,166.959996 106.635,167.8 C106.635,168.646671 106.754999,169.401663 106.995,170.065 C107.235001,170.728337 107.564998,171.288331 107.985,171.745 C108.405002,172.201669 108.898331,172.549999 109.465,172.79 C110.03167,173.030001 110.641663,173.15 111.295,173.15 C111.695002,173.15 112.053332,173.128334 112.37,173.085 C112.686668,173.041666 112.978332,172.971667 113.245,172.875 C113.511668,172.778333 113.763332,172.656667 114,172.51 C114.236668,172.363333 114.471666,172.183334 114.705,171.97 C114.838334,171.849999 114.971666,171.79 115.105,171.79 L115.105,171.79 Z M130.375,160.6 L130.375,162.49 L123.745,162.49 L123.745,166.83 L129.045,166.83 L129.045,168.66 L123.745,168.66 L123.745,173.11 L130.385,173.11 L130.375,175 L121.395,175 L121.395,160.6 L130.375,160.6 Z M143.445,163.06 C143.371666,163.180001 143.295,163.268333 143.215,163.325 C143.135,163.381667 143.035001,163.41 142.915,163.41 C142.788333,163.41 142.646667,163.356667 142.49,163.25 C142.333333,163.143333 142.140001,163.025001 141.91,162.895 C141.679999,162.764999 141.408335,162.645001 141.095,162.535 C140.781665,162.424999 140.408336,162.37 139.975,162.37 C139.574998,162.37 139.223335,162.42 138.92,162.52 C138.616665,162.620001 138.361668,162.759999 138.155,162.94 C137.948332,163.120001 137.793334,163.331665 137.69,163.575 C137.586666,163.818335 137.535,164.083332 137.535,164.37 C137.535,164.736669 137.631666,165.041665 137.825,165.285 C138.018334,165.528335 138.273332,165.736666 138.59,165.91 C138.906668,166.083334 139.268331,166.234999 139.675,166.365 C140.081669,166.495001 140.496665,166.633333 140.92,166.78 C141.343335,166.926667 141.758331,167.093332 142.165,167.28 C142.571669,167.466668 142.933332,167.703332 143.25,167.99 C143.566668,168.276668 143.821666,168.626665 144.015,169.04 C144.208334,169.453335 144.305,169.956664 144.305,170.55 C144.305,171.190003 144.195001,171.789997 143.975,172.35 C143.754999,172.910003 143.436669,173.398331 143.02,173.815 C142.603331,174.231669 142.090003,174.559999 141.48,174.8 C140.869997,175.040001 140.175004,175.16 139.395,175.16 C138.934998,175.16 138.486669,175.115 138.05,175.025 C137.613331,174.935 137.196669,174.808334 136.8,174.645 C136.403331,174.481666 136.031668,174.283335 135.685,174.05 C135.338332,173.816666 135.028335,173.556668 134.755,173.27 L135.435,172.15 C135.495,172.056666 135.571666,171.983334 135.665,171.93 C135.758334,171.876666 135.861666,171.85 135.975,171.85 C136.128334,171.85 136.298332,171.921666 136.485,172.065 C136.671668,172.208334 136.896665,172.364999 137.16,172.535 C137.423335,172.705001 137.741665,172.861666 138.115,173.005 C138.488335,173.148334 138.934997,173.22 139.455,173.22 C140.301671,173.22 140.956664,173.013335 141.42,172.6 C141.883336,172.186665 142.115,171.61667 142.115,170.89 C142.115,170.483331 142.018334,170.151668 141.825,169.895 C141.631666,169.638332 141.376668,169.423334 141.06,169.25 C140.743332,169.076666 140.381669,168.930001 139.975,168.81 C139.568331,168.689999 139.155002,168.561667 138.735,168.425 C138.314998,168.288333 137.901669,168.128334 137.495,167.945 C137.088331,167.761666 136.726668,167.521668 136.41,167.225 C136.093332,166.928332 135.838334,166.561669 135.645,166.125 C135.451666,165.688331 135.355,165.143337 135.355,164.49 C135.355,163.969997 135.456666,163.466669 135.66,162.98 C135.863334,162.493331 136.159998,162.061669 136.55,161.685 C136.940002,161.308331 137.421664,161.006668 137.995,160.78 C138.568336,160.553332 139.221663,160.44 139.955,160.44 C140.781671,160.44 141.539997,160.569999 142.23,160.83 C142.920003,161.090001 143.514998,161.459998 144.015,161.94 L143.445,163.06 Z" id="RESOURCES" fill="#FFFFFF"></path>
                </g>
            </g>
        </g>
    </g>
</svg>