<?xml version="1.0" encoding="UTF-8" standalone="no"?>
<svg width="280px" height="280px" viewBox="0 0 280 280" version="1.1" xmlns="http://www.w3.org/2000/svg" xmlns:xlink="http://www.w3.org/1999/xlink" xmlns:sketch="http://www.bohemiancoding.com/sketch/ns">
    <!-- Generator: Sketch 3.4 (15575) - http://www.bohemiancoding.com/sketch -->
    <title>logo-internals-small</title>
    <desc>Created with Sketch.</desc>
    <defs></defs>
    <g id="Page-1" stroke="none" stroke-width="1" fill="none" fill-rule="evenodd" sketch:type="MSPage">
        <g id="Artboard-1-Copy" sketch:type="MSArtboardGroup" transform="translate(-1481.000000, -740.000000)">
            <g id="Group-Copy" sketch:type="MSLayerGroup" transform="translate(281.000000, 440.000000)">
                <g id="logo-internals-small" transform="translate(1200.000000, 300.000000)" sketch:type="MSShapeGroup">
                    <rect id="Rectangle-8" fill="#455A64" x="0" y="0" width="280" height="280"></rect>
                    <g id="inner" transform="translate(66.000000, 67.000000)">
                        <g id="Group">
                            <path d="M121.740951,37.4340257 C123.079074,37.9519878 124.367768,37.9460059 124.614915,37.4210063 C124.862061,36.8963585 123.975864,36.0515031 122.637741,35.5335409 C121.296087,35.0155788 120.007393,35.0219125 119.760247,35.5469122 C119.5131,36.0712082 120.399297,36.9160635 121.740951,37.4340257" id="Fill-109" fill="#FF5722"></path>
                            <path d="M83.6697619,19.8257756 C83.5214738,20.5048972 84.5488981,21.2990823 85.9646958,21.6002886 C87.3769629,21.9014948 88.6409419,21.5953623 88.78923,20.9162407 C88.9339873,20.237471 87.906563,19.442934 86.4907653,19.1417277 C85.0784983,18.8405215 83.8145192,19.146654 83.6697619,19.8257756" id="Fill-110" fill="#FF5722"></path>
                            <path d="M96.097712,19.3057022 C95.9635466,19.9228935 96.8991735,20.6452959 98.1843366,20.9190558 C99.4694996,21.1931675 100.620497,20.9144814 100.751132,20.29729 C100.885297,19.6800987 99.9496704,18.9576963 98.6645074,18.6839365 C97.3793443,18.4101766 96.2283467,18.6885109 96.097712,19.3057022" id="Fill-111" fill="#FF5722"></path>
                            <path d="M125.133923,42.3507955 C124.929144,42.7913449 125.769443,43.4746889 127.008707,43.8768837 C128.244441,44.2794304 129.413092,44.2481134 129.617871,43.8072122 C129.819119,43.366311 128.98235,42.6829669 127.743086,42.281124 C126.503822,41.8785773 125.338701,41.9098943 125.133923,42.3507955" id="Fill-112" fill="#FF5722"></path>
                            <path d="M124.74908,25.6799443 C124.893837,25.0004709 122.083426,23.826611 118.471553,23.0567053 C114.85968,22.2871514 111.812714,22.2139611 111.667956,22.8930827 C111.519668,23.5718524 114.33008,24.7457123 117.945483,25.515618 C121.557356,26.2851718 124.604323,26.358714 124.74908,25.6799443" id="Fill-113" fill="#FF5722"></path>
                            <path d="M135.436411,21.1139953 C135.528208,20.425725 132.643653,19.4763623 128.989412,18.9935877 C125.338701,18.5111651 122.305858,18.6779546 122.214061,19.3665768 C122.122263,20.0544953 125.006819,21.003858 128.657529,21.4862806 C132.31177,21.9690551 135.344614,21.8022657 135.436411,21.1139953" id="Fill-114" fill="#FF5722"></path>
                            <path d="M83.4367378,65.403982 L66.214141,56.4050933 L58.6973496,39.7616885 C58.2666082,36.3340599 56.7342984,33.1808949 53.3978175,30.7297234 C43.8120548,23.6890273 33.4671986,27.7127346 33.4671986,27.7127346 C32.4150597,28.3204253 31.4617794,29.0160851 30.5897045,29.7800089 C30.222515,29.9503171 29.8694483,30.1617948 29.5375655,30.426054 L8.7843011,46.7784571 C8.06757557,47.3555345 7.52032209,48.1141801 7.19903133,48.9759256 L0.519008144,69.3991874 C-0.30010675,71.6001747 0.826176229,74.0446605 3.03637418,74.8603101 C3.52360631,75.0404709 4.02496112,75.125625 4.51572392,75.125625 C6.24928173,75.125625 7.87691952,74.0654212 8.51597036,72.351079 L16.2940312,53.8297095 L26.7271541,46.1243187 C25.9927752,57.075418 24.7535109,71.7648529 26.4976607,78.1120005 L32.8563931,105.694541 L20.576731,130.859338 C19.217424,133.206354 20.0224162,136.20786 22.3773715,137.566103 C23.1541184,138.012987 24.0014787,138.224112 24.8382469,138.224112 C26.5400287,138.224112 28.1959118,137.344421 29.1103547,135.768015 L46.3894422,110.306938 C47.2791704,108.775923 47.5510319,106.967278 47.1520664,105.243435 L43.2118413,84.5231897 C45.0619112,84.1421075 42.8905506,84.1663869 44.5817404,83.5305462 L63.0824388,100.956172 L70.7263343,131.527903 C71.2347504,133.864363 73.3072523,135.458363 75.6092476,135.458363 C75.9623144,135.458363 76.3189118,135.419657 76.6755093,135.342244 C79.37647,134.761648 81.0888438,132.104981 80.502753,129.416645 L75.6127783,97.8684564 C75.3656316,96.7301361 74.8360314,95.6716917 74.0734072,94.7895374 L54.008623,71.5445782 C53.062404,67.3639339 52.6740306,62.726554 54.1533804,59.1437479 C54.4252418,58.4924245 54.7041645,57.813303 54.9866179,57.1165876 L57.3309812,62.3109879 C57.80056,63.3483197 58.5949602,64.2065464 59.5941392,64.7551218 L79.3305713,72.8401873 C79.9837448,73.1969901 80.6863477,73.3662426 81.3783586,73.3662426 C82.882423,73.3662426 84.3405887,72.5720575 85.1138049,71.1666629 C86.2471492,69.1134637 85.4986477,66.5324498 83.4367378,65.403982" id="Fill-115" fill="#FFFFFF"></path>
                            <path d="M65.1831861,17.0396177 L54.3051991,14.6046326 C53.2918974,14.3773204 52.7058066,13.1510309 53.04122,11.6601304 C53.3766335,10.1692298 54.4323031,9.31065122 55.4456047,9.53761154 L65.6704182,11.8265679 L140.492327,14.2369217 L161.538637,7.07095753 L65.4550475,10.4567129 C65.1831861,8.66495791 64.6783006,7.72791089 63.6191003,6.11033479 C59.6682832,0.0826909689 51.5618703,-1.6175761 45.499714,2.32449592 C39.4481496,6.26234542 37.7463678,14.3449478 41.6971849,20.3750547 C45.648002,26.4093842 53.7579456,28.1117625 59.8130406,24.1718018 C62.2527319,22.5858946 63.6720603,21.1020315 64.6147486,18.5787254 L150.710079,71.2764483 L140.492327,56.8593659 L65.1831861,17.0396177" id="Fill-116" fill="#FF5722"></path>
                        </g>
                    </g>
                </g>
            </g>
        </g>
    </g>
</svg>