<?xml version="1.0" encoding="UTF-8" standalone="no"?>
<svg width="280px" height="280px" viewBox="0 0 280 280" version="1.1" xmlns="http://www.w3.org/2000/svg" xmlns:xlink="http://www.w3.org/1999/xlink" xmlns:sketch="http://www.bohemiancoding.com/sketch/ns">
    <!-- Generator: Sketch 3.4 (15575) - http://www.bohemiancoding.com/sketch -->
    <title>logo-perform</title>
    <desc>Created with Sketch.</desc>
    <defs>
        <linearGradient x1="0%" y1="0%" x2="100%" y2="100%" id="linearGradient-1">
            <stop stop-color="#455A64" offset="0%"></stop>
            <stop stop-color="#3B4C55" offset="100%"></stop>
        </linearGradient>
    </defs>
    <g id="Page-1" stroke="none" stroke-width="1" fill="none" fill-rule="evenodd" sketch:type="MSPage">
        <g id="Artboard-1-Copy" sketch:type="MSArtboardGroup" transform="translate(-1481.000000, -1027.000000)">
            <g id="logo-perform" sketch:type="MSLayerGroup" transform="translate(1481.000000, 1027.000000)">
                <rect id="Rectangle-8" fill="url(#linearGradient-1)" sketch:type="MSShapeGroup" x="0" y="0" width="280" height="280"></rect>
                <g id="inner" transform="translate(73.000000, 70.000000)" sketch:type="MSShapeGroup">
                    <path d="M12.98,150.79 L12.98,156 L10.64,156 L10.64,141.6 L15.12,141.6 C16.0600047,141.6 16.8749965,141.709999 17.565,141.93 C18.2550034,142.150001 18.8249977,142.458331 19.275,142.855 C19.7250022,143.251669 20.0599989,143.728331 20.28,144.285 C20.5000011,144.841669 20.61,145.456663 20.61,146.13 C20.61,146.81667 20.4933345,147.444997 20.26,148.015 C20.0266655,148.585003 19.6800023,149.074998 19.22,149.485 C18.7599977,149.895002 18.1883367,150.214999 17.505,150.445 C16.8216632,150.675001 16.0266712,150.79 15.12,150.79 L12.98,150.79 Z M12.98,148.94 L15.12,148.94 C15.6400026,148.94 16.0983313,148.873334 16.495,148.74 C16.8916686,148.606666 17.2216653,148.418335 17.485,148.175 C17.7483346,147.931665 17.946666,147.636668 18.08,147.29 C18.213334,146.943332 18.28,146.556669 18.28,146.13 C18.28,145.709998 18.2150006,145.333335 18.085,145 C17.9549993,144.666665 17.7600013,144.383335 17.5,144.15 C17.2399987,143.916666 16.9116686,143.738334 16.515,143.615 C16.1183313,143.491666 15.653336,143.43 15.12,143.43 L12.98,143.43 L12.98,148.94 Z M34.83,141.6 L34.83,143.49 L28.2,143.49 L28.2,147.83 L33.5,147.83 L33.5,149.66 L28.2,149.66 L28.2,154.11 L34.84,154.11 L34.83,156 L25.85,156 L25.85,141.6 L34.83,141.6 Z M42.71,150.2 L42.71,156 L40.37,156 L40.37,141.6 L44.61,141.6 C45.5566714,141.6 46.3716632,141.696666 47.055,141.89 C47.7383367,142.083334 48.2999978,142.358332 48.74,142.715 C49.1800022,143.071668 49.5049989,143.499998 49.715,144 C49.925001,144.500003 50.03,145.056664 50.03,145.67 C50.03,146.170003 49.9550007,146.636665 49.805,147.07 C49.6549992,147.503336 49.4383347,147.896665 49.155,148.25 C48.8716652,148.603335 48.5216687,148.909999 48.105,149.17 C47.6883312,149.430001 47.2166693,149.633333 46.69,149.78 C46.9833348,149.953334 47.2333323,150.196665 47.44,150.51 L51.33,156 L49.24,156 C48.8266646,156 48.5266676,155.840002 48.34,155.52 L44.98,150.67 C44.8666661,150.503333 44.743334,150.383334 44.61,150.31 C44.476666,150.236666 44.276668,150.2 44.01,150.2 L42.71,150.2 Z M42.71,148.5 L44.55,148.5 C45.083336,148.5 45.549998,148.435001 45.95,148.305 C46.350002,148.174999 46.683332,147.993335 46.95,147.76 C47.216668,147.526666 47.416666,147.248335 47.55,146.925 C47.683334,146.601665 47.75,146.243335 47.75,145.85 C47.75,145.063329 47.4900026,144.463335 46.97,144.05 C46.4499974,143.636665 45.6633386,143.43 44.61,143.43 L42.71,143.43 L42.71,148.5 Z M65.05,141.6 L65.05,143.49 L58.42,143.49 L58.42,148.1 L64.05,148.1 L64.05,149.99 L58.42,149.99 L58.42,156 L56.07,156 L56.07,141.6 L65.05,141.6 Z M83.78,148.8 C83.78,149.866672 83.6066684,150.849996 83.26,151.75 C82.9133316,152.650005 82.4250031,153.424997 81.795,154.075 C81.1649968,154.725003 80.4083377,155.233332 79.525,155.6 C78.6416622,155.966669 77.6600054,156.15 76.58,156.15 C75.5066613,156.15 74.5283377,155.966669 73.645,155.6 C72.7616622,155.233332 72.0033365,154.725003 71.37,154.075 C70.7366635,153.424997 70.2466684,152.650005 69.9,151.75 C69.5533316,150.849996 69.38,149.866672 69.38,148.8 C69.38,147.733328 69.5533316,146.750005 69.9,145.85 C70.2466684,144.949996 70.7366635,144.173337 71.37,143.52 C72.0033365,142.866663 72.7616622,142.356669 73.645,141.99 C74.5283377,141.623332 75.5066613,141.44 76.58,141.44 C77.6600054,141.44 78.6416622,141.623332 79.525,141.99 C80.4083377,142.356669 81.1649968,142.866663 81.795,143.52 C82.4250031,144.173337 82.9133316,144.949996 83.26,145.85 C83.6066684,146.750005 83.78,147.733328 83.78,148.8 L83.78,148.8 Z M81.39,148.8 C81.39,147.973329 81.2783344,147.230003 81.055,146.57 C80.8316655,145.909997 80.5116687,145.350002 80.095,144.89 C79.6783312,144.429998 79.1733363,144.076668 78.58,143.83 C77.9866637,143.583332 77.3200037,143.46 76.58,143.46 C75.846663,143.46 75.1833363,143.583332 74.59,143.83 C73.9966637,144.076668 73.4900021,144.429998 73.07,144.89 C72.6499979,145.350002 72.3266678,145.909997 72.1,146.57 C71.8733322,147.230003 71.76,147.973329 71.76,148.8 C71.76,149.633338 71.8733322,150.379997 72.1,151.04 C72.3266678,151.700003 72.6499979,152.258331 73.07,152.715 C73.4900021,153.171669 73.9966637,153.521665 74.59,153.765 C75.1833363,154.008335 75.846663,154.13 76.58,154.13 C77.3200037,154.13 77.9866637,154.008335 78.58,153.765 C79.1733363,153.521665 79.6783312,153.171669 80.095,152.715 C80.5116687,152.258331 80.8316655,151.700003 81.055,151.04 C81.2783344,150.379997 81.39,149.633338 81.39,148.8 L81.39,148.8 Z M91.68,150.2 L91.68,156 L89.34,156 L89.34,141.6 L93.58,141.6 C94.5266714,141.6 95.3416632,141.696666 96.025,141.89 C96.7083367,142.083334 97.2699978,142.358332 97.71,142.715 C98.1500022,143.071668 98.4749989,143.499998 98.685,144 C98.895001,144.500003 99,145.056664 99,145.67 C99,146.170003 98.9250007,146.636665 98.775,147.07 C98.6249992,147.503336 98.4083347,147.896665 98.125,148.25 C97.8416652,148.603335 97.4916687,148.909999 97.075,149.17 C96.6583312,149.430001 96.1866693,149.633333 95.66,149.78 C95.9533348,149.953334 96.2033323,150.196665 96.41,150.51 L100.3,156 L98.21,156 C97.7966646,156 97.4966676,155.840002 97.31,155.52 L93.95,150.67 C93.8366661,150.503333 93.713334,150.383334 93.58,150.31 C93.446666,150.236666 93.246668,150.2 92.98,150.2 L91.68,150.2 Z M91.68,148.5 L93.52,148.5 C94.053336,148.5 94.519998,148.435001 94.92,148.305 C95.320002,148.174999 95.653332,147.993335 95.92,147.76 C96.186668,147.526666 96.386666,147.248335 96.52,146.925 C96.653334,146.601665 96.72,146.243335 96.72,145.85 C96.72,145.063329 96.4600026,144.463335 95.94,144.05 C95.4199974,143.636665 94.6333386,143.43 93.58,143.43 L91.68,143.43 L91.68,148.5 Z M112.2,150.36 C112.293334,150.553334 112.386666,150.751666 112.48,150.955 C112.573334,151.158334 112.656666,151.366666 112.73,151.58 C112.81,151.366666 112.895,151.155001 112.985,150.945 C113.075,150.734999 113.169999,150.533334 113.27,150.34 L117.82,141.99 C117.913334,141.803332 118.016666,141.691667 118.13,141.655 C118.243334,141.618333 118.403332,141.6 118.61,141.6 L120.36,141.6 L120.36,156 L118.3,156 L118.3,146.13 C118.3,145.969999 118.305,145.796668 118.315,145.61 C118.325,145.423332 118.336667,145.233334 118.35,145.04 L113.73,153.58 C113.549999,153.933335 113.273335,154.11 112.9,154.11 L112.57,154.11 C112.189998,154.11 111.913334,153.933335 111.74,153.58 L107.03,145.01 C107.05,145.210001 107.066667,145.404999 107.08,145.595 C107.093333,145.785001 107.1,145.963333 107.1,146.13 L107.1,156 L105.04,156 L105.04,141.6 L106.79,141.6 C106.996668,141.6 107.156666,141.618333 107.27,141.655 C107.383334,141.691667 107.486666,141.803332 107.58,141.99 L112.2,150.36 Z" id="PERFORM" fill="#FFFFFF"></path>
                    <g id="Group">
                        <path d="M19.2531163,48.366129 C23.3681628,43.863871 23.0481395,36.8841935 18.5354884,32.776129 C14.0260698,28.6683871 7.03081395,28.9883871 2.91576744,33.4909677 C-1.20251163,37.9932258 -0.882488372,44.9732258 3.63016279,49.0809677 C8.14281395,53.1890323 15.1348372,52.8687097 19.2531163,48.366129" id="Fill-17" fill="#FFFFFF"></path>
                        <path d="M70.6055349,88.7064516 L53.4794419,85.0025806 L58.1407907,77.4183871 L58.1213953,77.4183871 L58.1213953,77.4054839 L59.0232791,75.9845161 C60.187,73.856129 62.0198605,69.4903226 61.2828372,64.1287097 C60.1676047,63.1735484 59.0685349,62.2570968 57.9953256,61.2893548 L115.841953,61.2893548 C116.73414,61.2893548 117.455,60.4303226 117.455,59.353871 C117.455,58.2770968 116.73414,57.4183871 115.841953,57.4183871 L53.4891395,57.4183871 C46.9723023,51.9345161 42.036186,47.5754839 41.2280465,46.8412903 C45.8182791,45.6425806 52.8684884,46.0880645 62.0845116,53.4135484 C63.5391628,54.5709677 65.6629535,54.3751613 66.8234419,52.9222581 C66.998,52.6996774 67.1402326,52.5796774 67.2533721,52.2570968 L103.147698,52.2570968 C104.036651,52.2570968 104.760744,51.3980645 104.760744,50.3216129 C104.760744,49.2448387 104.036651,48.386129 103.147698,48.386129 L66.4581628,48.386129 C66.4032093,48.386129 66.3450233,48.1845161 66.2868372,48.1374194 C63.603814,46.0045161 61.0016047,44.1925806 58.5125349,42.9022581 L91.8628372,42.9022581 C92.7550233,42.9022581 93.4758837,42.0435484 93.4758837,40.9667742 C93.4758837,39.89 92.7550233,39.0312903 91.8628372,39.0312903 L47.5703256,39.0312903 C44.589907,38.7087097 41.9553721,38.5009677 39.7669302,38.6696774 C34.9213256,39.043871 30.3149302,41.3906452 27.9777907,42.77 C27.4347209,43.0393548 26.9175116,43.3848387 26.4358605,43.7754839 C26.4261628,43.7825806 26.4132326,43.7996774 26.4067674,43.8051613 C26.2063488,43.9645161 26.0447209,44.1112903 25.9186512,44.2396774 C25.795814,44.3551613 25.6794419,44.4758065 25.5630698,44.5996774 C23.0901628,47.2670968 22.6408372,51.2232258 23.9855814,54.4916129 C24.8066512,56.1145161 25.6277209,57.2103226 26.2677674,57.7990323 C26.2903953,57.8206452 26.8205349,58.3106452 27.770907,59.1774194 C28.853814,62.0851613 29.9819767,65.6664516 28.0586047,69.15 C27.3926977,70.3596774 21.7389535,73.1612903 18.238093,71.9303226 C16.482814,71.3129032 14.5594419,72.2322581 13.9387907,73.983871 C13.3213721,75.736129 14.2426512,77.6570968 15.9979302,78.2745161 C21.237907,80.1180645 32.3546744,77.4651613 34.9859767,71.3467742 C35.6615814,69.7735484 35.8102791,68.1477419 36.1173721,66.7006452 C36.1173721,66.7006452 36.8479302,59.21 34.7629302,50.8858065 C34.7629302,50.8858065 39.3725581,59.4448387 38.8036279,68.9532258 C40.9791395,70.68 43.0350465,72.123871 46.1867907,74.8412903 L42.2010465,86.9812903 C41.5577674,89.2003226 41.7840465,90.0554839 43.0996977,91.4590323 C43.8464186,92.2532258 46.0316279,92.6474194 47.3602093,92.6267742 L69.5355581,95.3480645 C71.3748837,95.6419355 73.1043023,94.393871 73.3984651,92.56 C73.4534186,92.2145161 73.4534186,91.8741935 73.4049302,91.5458065 C73.2012791,90.1280645 72.0957442,88.9451613 70.6055349,88.7064516" id="Fill-19" fill="#FFFFFF"></path>
                        <path d="M117.251349,79.0312903 L79.1071628,79.0312903 C74.5169302,74.8377419 69.3480698,70.6109677 64.3634651,66.3351613 C64.4345814,68.7041935 64.2406279,72.9245161 62.4821163,77.4619355 C69.2672558,82.2980645 91.125814,98.8187097 91.125814,98.8187097 C92.7517907,100.101935 94.9014419,100.052258 96.1330465,98.6590323 C97.3387907,97.2977419 97.9206512,94.8377419 93.9090465,91.6119355 L105.966488,91.6119355 C106.858674,91.6119355 107.582767,90.7529032 107.582767,89.6764516 C107.582767,88.5996774 106.858674,87.7409677 105.966488,87.7409677 L89.377,87.7409677 C87.7833488,86.4506452 85.8276512,84.8377419 83.6262791,82.9022581 L117.251349,82.9022581 C118.143535,82.9022581 118.867628,82.0435484 118.867628,80.9667742 C118.867628,79.89 118.143535,79.0312903 117.251349,79.0312903" id="Fill-20" fill="#FFFFFF"></path>
                        <path d="M59.6988837,22.316129 C59.7732326,22.3380645 60.7494651,22.353871 62.3657442,22.3641935 C62.5984884,20.3006452 62.7245581,18.0429032 62.7245581,15.6764516 C62.7245581,13.1245161 62.5758605,10.6987097 62.3107907,8.50677419 C60.8270465,8.51516129 59.938093,8.52709677 59.8734419,8.54387097 C52.3254186,9.26419355 42.7926047,12.1683871 42.7926047,15.4135484 C42.7926047,18.6335484 52.1799535,21.5703226 59.6988837,22.316129" id="Fill-21" fill="#FF5722"></path>
                        <path d="M114.241837,0.321612903 L96.6405581,0.321612903 C92.9134186,0.321612903 85.9925116,7.09580645 85.9925116,7.09580645 L107.967442,7.09580645 C107.967442,7.09580645 116.714744,0.321612903 114.241837,0.321612903" id="Fill-22" fill="#FF5722"></path>
                        <path d="M96.6405581,30.9667742 L114.241837,30.9667742 C116.714744,30.9667742 107.967442,24.5151613 107.967442,24.5151613 L85.9925116,24.5151613 C85.9925116,24.5151613 92.9134186,30.9667742 96.6405581,30.9667742" id="Fill-23" fill="#FF5722"></path>
                        <path d="M64.7513721,22.3751613 C76.3724186,22.4119355 103.891186,22.316129 103.891186,22.316129 C104.890047,22.316129 105.814558,22.0577419 106.619465,21.6083871 C108.064419,19.9119355 108.940442,17.7016129 108.940442,15.2841935 C108.940442,13.1319355 108.245442,11.1448387 107.072023,9.53774194 C106.173372,8.91516129 105.087233,8.54387097 103.897651,8.54387097 C103.897651,8.54387097 76.113814,8.46709677 64.664093,8.49709677 C64.9323953,10.6919355 65.1004884,13.1206452 65.1004884,15.6764516 C65.1004884,18.0470968 64.9808837,20.3083871 64.7513721,22.3751613" id="Fill-24" fill="#FF5722"></path>
                        <path d="M138.951512,15.4490323 C138.951512,15.0374194 124.492279,13.6951613 114.96593,13.1841935 C119.064814,12.8096774 122.840442,12.2812903 122.840442,11.6958065 C122.840442,10.88 115.518698,10.1754839 110.197907,9.84258065 C111.238791,11.3935484 111.849744,13.2664516 111.849744,15.2841935 C111.849744,17.4135484 111.167674,19.3809677 110.020116,20.9793548 C115.353837,20.6509677 122.840442,19.9396774 122.840442,19.1151613 C122.840442,18.5319355 119.100372,18.0058065 115.020884,17.6312903 C124.547233,17.1396774 138.951512,15.8596774 138.951512,15.4490323" id="Fill-25" fill="#FF5722"></path>
                    </g>
                </g>
            </g>
        </g>
    </g>
</svg>