<?xml version="1.0" encoding="UTF-8" standalone="no"?>
<svg width="40px" height="238px" viewBox="0 0 40 238" version="1.1" xmlns="http://www.w3.org/2000/svg" xmlns:xlink="http://www.w3.org/1999/xlink" xmlns:sketch="http://www.bohemiancoding.com/sketch/ns">
    <!-- Generator: Sketch 3.4 (15575) - http://www.bohemiancoding.com/sketch -->
    <title>logo-arrow</title>
    <desc>Created with Sketch.</desc>
    <defs></defs>
    <g id="Page-1" stroke="none" stroke-width="1" fill="none" fill-rule="evenodd" sketch:type="MSPage">
        <g id="Artboard-1-Copy" sketch:type="MSArtboardGroup" transform="translate(-281.000000, -874.000000)">
            <g id="Group" sketch:type="MSLayerGroup" transform="translate(281.000000, 874.000000)" fill="#37474F">
                <rect id="Rectangle-8" sketch:type="MSShapeGroup" x="0" y="0" width="40" height="238" rx="5"></rect>
            </g>
            <g id="chevron-right" sketch:type="MSLayerGroup" transform="translate(286.000000, 967.000000)" fill="#FFFFFF">
                <g id="Layer_1" sketch:type="MSShapeGroup">
                    <path d="M19.9624284,26.2428683 L19.9624284,26.2428683 L19.9624284,26.2428683 L0.36205507,5.83362791 C-0.130298806,5.32955132 -0.118576095,4.49723882 0.385500492,3.98143952 L3.89059118,0.394289851 C4.39466777,-0.121509448 5.21525756,-0.133232159 5.70761144,0.370844429 L29.645388,25.3050514 C29.9032876,25.5629511 30.0205147,25.9146324 29.9970693,26.2545911 C30.008792,26.6062724 29.8915649,26.946231 29.645388,27.2041307 L5.70761144,52.126615 C5.21525756,52.6306916 4.39466777,52.6189688 3.89059118,52.1031695 L0.385500492,48.5160199 C-0.118576095,48.0002206 -0.130298806,47.1679081 0.36205507,46.6638315 L19.9624284,26.2428683 L19.9624284,26.2428683 Z" id="Shape"></path>
                </g>
            </g>
        </g>
    </g>
</svg>