<?xml version="1.0" encoding="UTF-8" standalone="no"?>
<svg width="280px" height="280px" viewBox="0 0 280 280" version="1.1" xmlns="http://www.w3.org/2000/svg" xmlns:xlink="http://www.w3.org/1999/xlink" xmlns:sketch="http://www.bohemiancoding.com/sketch/ns">
    <!-- Generator: Sketch 3.4 (15575) - http://www.bohemiancoding.com/sketch -->
    <title>logo-understand</title>
    <desc>Created with Sketch.</desc>
    <defs>
        <linearGradient x1="0%" y1="0%" x2="100%" y2="100%" id="linearGradient-1">
            <stop stop-color="#455A64" offset="0%"></stop>
            <stop stop-color="#3B4C55" offset="100%"></stop>
        </linearGradient>
    </defs>
    <g id="Page-1" stroke="none" stroke-width="1" fill="none" fill-rule="evenodd" sketch:type="MSPage">
        <g id="Artboard-1-Copy" sketch:type="MSArtboardGroup" transform="translate(-581.000000, -1027.000000)">
            <g id="logo-understand" sketch:type="MSLayerGroup" transform="translate(581.000000, 1027.000000)">
                <rect id="Rectangle-8" fill="url(#linearGradient-1)" sketch:type="MSShapeGroup" x="0" y="0" width="280" height="280"></rect>
                <g id="inner" transform="translate(59.000000, 56.000000)" sketch:type="MSShapeGroup">
                    <path d="M7.755,168.11 C8.3083361,168.11 8.80333115,168.016668 9.24,167.83 C9.67666885,167.643332 10.0466651,167.383335 10.35,167.05 C10.6533348,166.716665 10.8849992,166.315002 11.045,165.845 C11.2050008,165.374998 11.285,164.853336 11.285,164.28 L11.285,155.6 L13.615,155.6 L13.615,164.28 C13.615,165.126671 13.4800013,165.909996 13.21,166.63 C12.9399986,167.350004 12.5516692,167.971664 12.045,168.495 C11.5383308,169.018336 10.9233369,169.428332 10.2,169.725 C9.47666305,170.021668 8.6616712,170.17 7.755,170.17 C6.8483288,170.17 6.03333695,170.021668 5.31,169.725 C4.58666305,169.428332 3.9716692,169.018336 3.465,168.495 C2.9583308,167.971664 2.57000135,167.350004 2.3,166.63 C2.02999865,165.909996 1.895,165.126671 1.895,164.28 L1.895,155.6 L4.235,155.6 L4.235,164.27 C4.235,164.843336 4.3149992,165.364998 4.475,165.835 C4.6350008,166.305002 4.8649985,166.708332 5.165,167.045 C5.4650015,167.381668 5.83333115,167.643332 6.27,167.83 C6.70666885,168.016668 7.2016639,168.11 7.755,168.11 L7.755,168.11 Z M21.085,155.6 C21.1850005,155.6 21.2699996,155.605 21.34,155.615 C21.4100003,155.625 21.4749997,155.643333 21.535,155.67 C21.5950003,155.696667 21.6516664,155.736666 21.705,155.79 C21.7583336,155.843334 21.8149997,155.91 21.875,155.99 L29.795,166.16 C29.7749999,165.953332 29.76,165.750001 29.75,165.55 C29.7399999,165.349999 29.735,165.163334 29.735,164.99 L29.735,155.6 L31.785,155.6 L31.785,170 L30.595,170 C30.4149991,170 30.2616673,169.968334 30.135,169.905 C30.0083327,169.841666 29.8883339,169.736667 29.775,169.59 L21.865,159.43 C21.8850001,159.623334 21.8999999,159.814999 21.91,160.005 C21.92,160.195001 21.925,160.369999 21.925,160.53 L21.925,170 L19.865,170 L19.865,155.6 L21.085,155.6 Z M50.855,162.8 C50.855,163.866672 50.6816684,164.841662 50.335,165.725 C49.9883316,166.608338 49.5000031,167.366664 48.87,168 C48.2399968,168.633337 47.4833377,169.124998 46.6,169.475 C45.7166622,169.825002 44.7350054,170 43.655,170 L38.215,170 L38.215,155.6 L43.655,155.6 C44.7350054,155.6 45.7166622,155.774998 46.6,156.125 C47.4833377,156.475002 48.2399968,156.966664 48.87,157.6 C49.5000031,158.233337 49.9883316,158.991662 50.335,159.875 C50.6816684,160.758338 50.855,161.733328 50.855,162.8 L50.855,162.8 Z M48.465,162.8 C48.465,161.973329 48.3533344,161.230003 48.13,160.57 C47.9066655,159.909997 47.5866687,159.353336 47.17,158.9 C46.7533312,158.446664 46.2483363,158.098335 45.655,157.855 C45.0616637,157.611665 44.3950037,157.49 43.655,157.49 L40.565,157.49 L40.565,168.11 L43.655,168.11 C44.3950037,168.11 45.0616637,167.990001 45.655,167.75 C46.2483363,167.509999 46.7533312,167.161669 47.17,166.705 C47.5866687,166.248331 47.9066655,165.69167 48.13,165.035 C48.3533344,164.37833 48.465,163.633338 48.465,162.8 L48.465,162.8 Z M65.405,155.6 L65.405,157.49 L58.775,157.49 L58.775,161.83 L64.075,161.83 L64.075,163.66 L58.775,163.66 L58.775,168.11 L65.415,168.11 L65.405,170 L56.425,170 L56.425,155.6 L65.405,155.6 Z M73.285,164.2 L73.285,170 L70.945,170 L70.945,155.6 L75.185,155.6 C76.1316714,155.6 76.9466632,155.696666 77.63,155.89 C78.3133367,156.083334 78.8749978,156.358332 79.315,156.715 C79.7550022,157.071668 80.0799989,157.499998 80.29,158 C80.500001,158.500003 80.605,159.056664 80.605,159.67 C80.605,160.170003 80.5300007,160.636665 80.38,161.07 C80.2299992,161.503336 80.0133347,161.896665 79.73,162.25 C79.4466652,162.603335 79.0966687,162.909999 78.68,163.17 C78.2633312,163.430001 77.7916693,163.633333 77.265,163.78 C77.5583348,163.953334 77.8083323,164.196665 78.015,164.51 L81.905,170 L79.815,170 C79.4016646,170 79.1016676,169.840002 78.915,169.52 L75.555,164.67 C75.4416661,164.503333 75.318334,164.383334 75.185,164.31 C75.051666,164.236666 74.851668,164.2 74.585,164.2 L73.285,164.2 Z M73.285,162.5 L75.125,162.5 C75.658336,162.5 76.124998,162.435001 76.525,162.305 C76.925002,162.174999 77.258332,161.993335 77.525,161.76 C77.791668,161.526666 77.991666,161.248335 78.125,160.925 C78.258334,160.601665 78.325,160.243335 78.325,159.85 C78.325,159.063329 78.0650026,158.463335 77.545,158.05 C77.0249974,157.636665 76.2383386,157.43 75.185,157.43 L73.285,157.43 L73.285,162.5 Z M94.175,158.06 C94.1016663,158.180001 94.0250004,158.268333 93.945,158.325 C93.8649996,158.381667 93.7650006,158.41 93.645,158.41 C93.5183327,158.41 93.3766674,158.356667 93.22,158.25 C93.0633325,158.143333 92.8700011,158.025001 92.64,157.895 C92.4099988,157.764999 92.1383349,157.645001 91.825,157.535 C91.5116651,157.424999 91.1383355,157.37 90.705,157.37 C90.304998,157.37 89.9533348,157.42 89.65,157.52 C89.3466651,157.620001 89.0916677,157.759999 88.885,157.94 C88.6783323,158.120001 88.5233338,158.331665 88.42,158.575 C88.3166661,158.818335 88.265,159.083332 88.265,159.37 C88.265,159.736669 88.3616657,160.041665 88.555,160.285 C88.7483343,160.528335 89.0033317,160.736666 89.32,160.91 C89.6366682,161.083334 89.9983313,161.234999 90.405,161.365 C90.8116687,161.495001 91.2266645,161.633333 91.65,161.78 C92.0733354,161.926667 92.4883313,162.093332 92.895,162.28 C93.3016687,162.466668 93.6633317,162.703332 93.98,162.99 C94.2966682,163.276668 94.5516657,163.626665 94.745,164.04 C94.9383343,164.453335 95.035,164.956664 95.035,165.55 C95.035,166.190003 94.9250011,166.789997 94.705,167.35 C94.4849989,167.910003 94.1666687,168.398331 93.75,168.815 C93.3333312,169.231669 92.820003,169.559999 92.21,169.8 C91.5999969,170.040001 90.9050039,170.16 90.125,170.16 C89.6649977,170.16 89.2166688,170.115 88.78,170.025 C88.3433311,169.935 87.9266686,169.808334 87.53,169.645 C87.1333313,169.481666 86.7616684,169.283335 86.415,169.05 C86.0683316,168.816666 85.7583347,168.556668 85.485,168.27 L86.165,167.15 C86.2250003,167.056666 86.3016662,166.983334 86.395,166.93 C86.4883338,166.876666 86.5916661,166.85 86.705,166.85 C86.8583341,166.85 87.0283324,166.921666 87.215,167.065 C87.4016676,167.208334 87.6266653,167.364999 87.89,167.535 C88.1533346,167.705001 88.4716648,167.861666 88.845,168.005 C89.2183352,168.148334 89.6649974,168.22 90.185,168.22 C91.0316709,168.22 91.6866643,168.013335 92.15,167.6 C92.6133356,167.186665 92.845,166.61667 92.845,165.89 C92.845,165.483331 92.7483343,165.151668 92.555,164.895 C92.3616657,164.638332 92.1066682,164.423334 91.79,164.25 C91.4733317,164.076666 91.1116687,163.930001 90.705,163.81 C90.2983313,163.689999 89.8850021,163.561667 89.465,163.425 C89.0449979,163.288333 88.6316687,163.128334 88.225,162.945 C87.8183313,162.761666 87.4566682,162.521668 87.14,162.225 C86.8233317,161.928332 86.5683343,161.561669 86.375,161.125 C86.1816657,160.688331 86.085,160.143337 86.085,159.49 C86.085,158.969997 86.1866656,158.466669 86.39,157.98 C86.5933343,157.493331 86.889998,157.061669 87.28,156.685 C87.6700019,156.308331 88.1516638,156.006668 88.725,155.78 C89.2983362,155.553332 89.951663,155.44 90.685,155.44 C91.5116708,155.44 92.2699965,155.569999 92.96,155.83 C93.6500034,156.090001 94.2449975,156.459998 94.745,156.94 L94.175,158.06 Z M110.465,155.6 L110.465,157.55 L105.975,157.55 L105.975,170 L103.645,170 L103.645,157.55 L99.145,157.55 L99.145,155.6 L110.465,155.6 Z M126.105,170 L124.295,170 C124.088332,170 123.921667,169.948334 123.795,169.845 C123.668333,169.741666 123.571667,169.613334 123.505,169.46 L122.305,166.28 L116.105,166.28 L114.905,169.46 C114.851666,169.593334 114.758334,169.716666 114.625,169.83 C114.491666,169.943334 114.325001,170 114.125,170 L112.315,170 L118.025,155.6 L120.395,155.6 L126.105,170 Z M116.735,164.6 L121.675,164.6 L119.695,159.34 C119.615,159.146666 119.533334,158.916668 119.45,158.65 C119.366666,158.383332 119.285,158.096668 119.205,157.79 C119.125,158.103335 119.043334,158.391665 118.96,158.655 C118.876666,158.918335 118.798334,159.149999 118.725,159.35 L116.735,164.6 Z M132.005,155.6 C132.105,155.6 132.19,155.605 132.26,155.615 C132.33,155.625 132.395,155.643333 132.455,155.67 C132.515,155.696667 132.571666,155.736666 132.625,155.79 C132.678334,155.843334 132.735,155.91 132.795,155.99 L140.715,166.16 C140.695,165.953332 140.68,165.750001 140.67,165.55 C140.66,165.349999 140.655,165.163334 140.655,164.99 L140.655,155.6 L142.705,155.6 L142.705,170 L141.515,170 C141.334999,170 141.181667,169.968334 141.055,169.905 C140.928333,169.841666 140.808334,169.736667 140.695,169.59 L132.785,159.43 C132.805,159.623334 132.82,159.814999 132.83,160.005 C132.84,160.195001 132.845,160.369999 132.845,160.53 L132.845,170 L130.785,170 L130.785,155.6 L132.005,155.6 Z M161.775,162.8 C161.775,163.866672 161.601668,164.841662 161.255,165.725 C160.908332,166.608338 160.420003,167.366664 159.79,168 C159.159997,168.633337 158.403338,169.124998 157.52,169.475 C156.636662,169.825002 155.655005,170 154.575,170 L149.135,170 L149.135,155.6 L154.575,155.6 C155.655005,155.6 156.636662,155.774998 157.52,156.125 C158.403338,156.475002 159.159997,156.966664 159.79,157.6 C160.420003,158.233337 160.908332,158.991662 161.255,159.875 C161.601668,160.758338 161.775,161.733328 161.775,162.8 L161.775,162.8 Z M159.385,162.8 C159.385,161.973329 159.273334,161.230003 159.05,160.57 C158.826666,159.909997 158.506669,159.353336 158.09,158.9 C157.673331,158.446664 157.168336,158.098335 156.575,157.855 C155.981664,157.611665 155.315004,157.49 154.575,157.49 L151.485,157.49 L151.485,168.11 L154.575,168.11 C155.315004,168.11 155.981664,167.990001 156.575,167.75 C157.168336,167.509999 157.673331,167.161669 158.09,166.705 C158.506669,166.248331 158.826666,165.69167 159.05,165.035 C159.273334,164.37833 159.385,163.633338 159.385,162.8 L159.385,162.8 Z" id="UNDERSTAND" fill="#FFFFFF"></path>
                    <g id="Group" transform="translate(23.000000, 0.000000)">
                        <path d="M60.3633333,26.1346099 C67.6154762,25.6616312 73.1064286,19.4403783 72.6328571,12.239669 C72.1561905,5.03865248 65.8883333,-0.415200946 58.6361905,0.058392435 C51.3840476,0.531371158 45.8930952,6.75231678 46.3697619,13.953026 C46.8464286,21.1537352 53.1111905,26.6082033 60.3633333,26.1346099" id="Fill-67" fill="#FFFFFF"></path>
                        <path d="M116.346905,48.3726005 C116.346905,48.3726005 116.390238,50.6456028 114.502143,52.2901182 C114.502143,52.2901182 115.929048,46.9118676 114.929286,44.2550118 C113.926429,41.5984634 113.09381,38.676383 114.663095,38.6991253 C114.663095,38.6991253 111.979524,38.4179196 111.682381,41.2216785 C111.682381,41.2216785 108.639762,29.5628605 103.399524,29.1550355 C105.841667,37.0656738 101.39381,39.1969976 101.39381,39.1969976 C101.39381,39.1969976 102.111905,34.5486525 98.1592857,34.1340662 C98.1592857,34.1340662 99.8245238,38.0795508 94.9030952,40.5962648 C90.0714286,43.0668794 87.2238095,49.7140898 89.882619,54.2453428 C89.882619,54.2453428 88.582619,54.3919385 87.49,52.5765485 C87.49,52.5765485 87.4528571,59.7416076 99.8183333,61.986643 C97.8466667,60.9577069 94.2747619,58.3487943 93.2904762,54.9804728 C92.312381,51.6275177 93.015,47.5225296 98.1778571,44.8134279 C103.102381,42.2315603 107.587381,39.9056974 106.875476,38.4286761 C106.875476,38.4286761 110.24619,43.1596927 109.119524,47.4856501 C109.119524,47.4856501 111.397619,46.5544444 112.304524,45.1668558 C112.304524,45.1668558 113.95119,52.3042553 109.781905,55.7140662 C109.781905,55.7140662 112.44381,55.6095745 113.338333,55.3793853 C113.338333,55.3793853 110.459762,61.6556501 103.702857,62.4719149 C117.807857,63.3130733 117.427143,50.007896 116.346905,48.3726005" id="Fill-68" fill="#FFEA00"></path>
                        <path d="M4.03619048,56.4030969 C4.94309524,56.5755083 7.60809524,56.5094326 7.60809524,56.5094326 C3.2252381,53.3734515 4.40452381,46.1456974 4.40452381,46.1456974 C5.40119048,47.4721277 7.735,48.2558156 7.735,48.2558156 C6.32666667,44.0109929 9.3847619,39.0737589 9.3847619,39.0737589 C8.76880952,40.5934988 13.3961905,42.6270922 18.4785714,44.8887234 C23.8085714,47.2613002 24.777381,51.3131206 24.0159524,54.7217021 C23.2545238,58.1459574 19.8590476,60.9779905 17.9585714,62.1310875 C30.1507143,59.0989835 29.6492857,51.9514421 29.6492857,51.9514421 C28.677381,53.8329078 27.3711905,53.7699054 27.3711905,53.7699054 C29.7297619,49.0779196 26.455,42.6264775 21.4747619,40.4705674 C16.3985714,38.2740898 17.8038095,34.2305674 17.8038095,34.2305674 C13.8852381,34.8968558 14.9066667,39.4895745 14.9066667,39.4895745 C14.9066667,39.4895745 10.3288095,37.6477541 12.2509524,29.596974 C7.04785714,30.3391726 4.7697619,42.1685579 4.7697619,42.1685579 C4.29,39.3896927 1.63119048,39.8420804 1.63119048,39.8420804 C3.19428571,39.7194563 2.55357143,42.6885579 1.72714286,45.4038061 C0.900714286,48.118747 2.67428571,53.3946572 2.67428571,53.3946572 C0.684047619,51.8743026 0.578809524,49.6037589 0.578809524,49.6037589 C-0.393095238,51.304208 0.0928571429,64.6063121 14.1111905,62.8640662 C7.31714286,62.4820567 4.03619048,56.4030969 4.03619048,56.4030969" id="Fill-69" fill="#FFEA00"></path>
                        <path d="M84.9395238,52.975461 L83.0421429,52.0547045 L69.797619,32.3392671 C65.662381,27.5984161 51.9102381,27.6611111 48.6819048,32.3392671 L35.4404762,52.0547045 L32.6485714,53.4069504 C30.8471429,60.0741371 24.0716667,65.0325768 15.9807143,65.0325768 C15.6897619,65.0325768 15.4019048,65.0258156 15.1140476,65.0132151 C15.1604762,65.2424823 15.2254762,65.4708274 15.3152381,65.6954846 C15.912619,67.1737352 17.3395238,68.0729787 18.8530952,68.0729787 C19.3235714,68.0729787 19.8002381,67.9856974 20.2645238,67.8019149 L40.1297619,61.142104 C40.9066667,60.8332388 41.5597619,60.2782033 41.9869048,59.5630496 L46.1871429,52.1908511 C44.9892857,71.9659102 43.4138095,108.431678 45.9519048,126.12766 C46.2583333,128.263593 47.9638095,130.126005 50.8330952,129.77565 C53.702381,129.428369 55.3892857,127.292435 55.12,124.941371 C53.4330952,110.211111 55.6183333,90.1938771 58.0264286,83.3490544 C58.5711905,81.8034988 61.6819048,81.9061466 62.2390476,83.3478251 C65.832619,93.5031915 66.8230952,107.758629 65.9161905,124.916785 C65.792381,127.283215 67.392619,129.36383 70.2,129.76643 C73.007381,130.169031 74.7747619,128.263593 75.0842857,126.12766 C77.6007143,108.55461 74.5395238,72.6060757 72.3078571,52.2077541 L76.492619,59.5630496 C76.9197619,60.2782033 77.5728571,60.8332388 78.3528571,61.142104 L98.215,67.8019149 C98.6792857,67.9860047 99.1559524,68.0729787 99.6264286,68.0729787 C101.136905,68.0729787 102.566905,67.1737352 103.164286,65.6954846 C103.260238,65.453617 103.331429,65.2074468 103.377857,64.9606619 C102.83,65.0070686 102.279048,65.0325768 101.71881,65.0325768 C93.457619,65.0325768 86.5614286,59.8599291 84.9395238,52.975461" id="Fill-70" fill="#FFFFFF"></path>
                        <path d="M19.1935714,18.3195508 C19.7971429,18.3195508 20.2830952,17.2820095 20.2830952,16.0022931 C20.2830952,14.7222695 19.7971429,13.6847281 19.1935714,13.6847281 C18.59,13.6847281 18.1009524,14.7222695 18.1009524,16.0022931 C18.1009524,17.2820095 18.59,18.3195508 19.1935714,18.3195508" id="Fill-71" fill="#FFEA00"></path>
                        <path d="M32.0109524,19.7363357 C32.6114286,19.7363357 33.1004762,18.698487 33.1004762,17.4187707 C33.1004762,16.1390544 32.6114286,15.101513 32.0109524,15.101513 C31.407381,15.101513 30.9183333,16.1390544 30.9183333,17.4187707 C30.9183333,18.698487 31.407381,19.7363357 32.0109524,19.7363357" id="Fill-72" fill="#FFEA00"></path>
                        <path d="M21.8895238,12.6935934 C22.282619,12.6935934 22.6014286,12.2144681 22.6014286,11.6237825 C22.6014286,11.0334043 22.282619,10.554279 21.8895238,10.554279 C21.4964286,10.554279 21.1807143,11.0334043 21.1807143,11.6237825 C21.1807143,12.2144681 21.4964286,12.6935934 21.8895238,12.6935934" id="Fill-73" fill="#FFEA00"></path>
                        <path d="M36.3164286,44.6493144 L38.2509524,42.3363593 C33.7690476,35.8597163 37.9630952,29.6999291 38.6997619,31.286052 C39.5571429,33.128487 39.4147619,36.0683924 42.4109524,31.8168085 C45.4071429,27.5652246 43.5438095,17.3443972 43.9864286,17.6403546 C43.4354762,16.1971395 42.912381,11.6305437 42.9185714,11.4154137 C41.092381,9.82898345 36.53,9.42791962 36.53,9.42791962 C43.237381,17.9307801 40.2566667,31.113948 39.5416667,27.7127423 C38.8297619,24.3115366 35.1247619,21.9079196 35.1247619,21.9079196 C35.1247619,21.9079196 37.2728571,25.4627896 33.7040476,32.2655083 C31.2030952,37.0327896 34.2611905,42.0637589 36.3164286,44.6493144" id="Fill-74" fill="#FFEA00"></path>
                        <path d="M96.902619,29.076052 C97.4659524,29.076052 97.9209524,28.0385106 97.9209524,26.7587943 C97.9209524,25.4787707 97.4659524,24.4412293 96.902619,24.4412293 C96.3392857,24.4412293 95.8842857,25.4787707 95.8842857,26.7587943 C95.8842857,28.0385106 96.3392857,29.076052 96.902619,29.076052" id="Fill-75" fill="#FFEA00"></path>
                        <path d="M85.202619,19.7363357 C85.7659524,19.7363357 86.2209524,18.698487 86.2209524,17.4187707 C86.2209524,16.1390544 85.7659524,15.101513 85.202619,15.101513 C84.642381,15.101513 84.187381,16.1390544 84.187381,17.4187707 C84.187381,18.698487 84.642381,19.7363357 85.202619,19.7363357" id="Fill-76" fill="#FFEA00"></path>
                        <path d="M94.3892857,23.4500946 C94.7545238,23.4500946 95.0485714,22.9709693 95.0485714,22.3802837 C95.0485714,21.7899054 94.7545238,21.3107801 94.3892857,21.3107801 C94.0209524,21.3107801 93.7269048,21.7899054 93.7269048,22.3802837 C93.7269048,22.9709693 94.0209524,23.4500946 94.3892857,23.4500946" id="Fill-77" fill="#FFEA00"></path>
                        <path d="M72.8340476,31.2792908 C73.2488095,30.6458865 73.8833333,29.7644681 74.3383333,29.5269031 C75.0719048,29.1452009 75.5857143,28.3581324 75.5857143,28.3581324 C75.5857143,28.3581324 76.0252381,35.1003073 78.5509524,37.204279 C81.0735714,39.3085579 80.4978571,37.5395745 80.7114286,36.2767612 C80.912619,35.1024586 84.435,40.6291489 81.692619,45.9450118 C82.212619,46.348227 82.7078571,46.7228605 83.1690476,47.0818203 C83.655,46.2169976 86.7780952,40.1945863 83.9057143,36.0613239 C81.1354762,32.0792671 81.3211905,29.9789835 81.3211905,29.9789835 C81.3211905,29.9789835 79.1297619,31.3382979 79.2597619,33.5280142 C79.3928571,35.7174232 76.9569048,22.293617 76.582381,20.688747 C76.2109524,19.0835697 75.4061905,23.8305674 73.722381,26.4911111 C72.5214286,28.3916312 71.9085714,29.1617967 71.7538095,29.3483452 C72.0788095,29.9104492 72.4409524,30.5576832 72.8340476,31.2792908" id="Fill-78" fill="#FFEA00"></path>
                    </g>
                </g>
            </g>
        </g>
    </g>
</svg>